<svg xmlns="http://www.w3.org/2000/svg" viewBox="0 0 100 120" width="100" height="120" shape-rendering="crispEdges" role="img" aria-label="여성 증명사진">
<rect x="0" y="0" width="100" height="120" fill="#dfe7f2"></rect>
<rect x="25" y="0" width="50" height="5" fill="#1d1f2e"></rect><rect x="20" y="5" width="5" height="5" fill="#1d1f2e"></rect><rect x="25" y="5" width="50" height="5" fill="#3a2a1a"></rect><rect x="75" y="5" width="5" height="5" fill="#1d1f2e"></rect><rect x="15" y="10" width="5" height="5" fill="#1d1f2e"></rect><rect x="20" y="10" width="60" height="5" fill="#3a2a1a"></rect><rect x="80" y="10" width="5" height="5" fill="#1d1f2e"></rect><rect x="15" y="15" width="5" height="5" fill="#1d1f2e"></rect><rect x="20" y="15" width="15" height="5" fill="#3a2a1a"></rect><rect x="35" y="15" width="30" height="5" fill="#f0c8a0"></rect><rect x="65" y="15" width="15" height="5" fill="#3a2a1a"></rect><rect x="80" y="15" width="5" height="5" fill="#1d1f2e"></rect><rect x="15" y="20" width="5" height="5" fill="#1d1f2e"></rect><rect x="20" y="20" width="10" height="5" fill="#3a2a1a"></rect><rect x="30" y="20" width="40" height="5" fill="#f0c8a0"></rect><rect x="70" y="20" width="10" height="5" fill="#3a2a1a"></rect><rect x="80" y="20" width="5" height="5" fill="#1d1f2e"></rect><rect x="15" y="25" width="5" height="5" fill="#1d1f2e"></rect><rect x="20" y="25" width="5" height="5" fill="#3a2a1a"></rect><rect x="25" y="25" width="50" height="5" fill="#f0c8a0"></rect><rect x="75" y="25" width="5" height="5" fill="#3a2a1a"></rect><rect x="80" y="25" width="5" height="5" fill="#1d1f2e"></rect><rect x="15" y="30" width="5" height="5" fill="#1d1f2e"></rect><rect x="20" y="30" width="5" height="5" fill="#3a2a1a"></rect><rect x="25" y="30" width="50" height="5" fill="#f0c8a0"></rect><rect x="75" y="30" width="5" height="5" fill="#3a2a1a"></rect><rect x="80" y="30" width="5" height="5" fill="#1d1f2e"></rect><rect x="15" y="35" width="5" height="5" fill="#1d1f2e"></rect><rect x="20" y="35" width="5" height="5" fill="#3a2a1a"></rect><rect x="25" y="35" width="10" height="5" fill="#f0c8a0"></rect><rect x="35" y="35" width="5" height="5" fill="#1d1f2e"></rect><rect x="40" y="35" width="20" height="5" fill="#f0c8a0"></rect><rect x="60" y="35" width="5" height="5" fill="#1d1f2e"></rect><rect x="65" y="35" width="10" height="5" fill="#f0c8a0"></rect><rect x="75" y="35" width="5" height="5" fill="#3a2a1a"></rect><rect x="80" y="35" width="5" height="5" fill="#1d1f2e"></rect><rect x="15" y="40" width="5" height="5" fill="#1d1f2e"></rect><rect x="20" y="40" width="5" height="5" fill="#3a2a1a"></rect><rect x="25" y="40" width="50" height="5" fill="#f0c8a0"></rect><rect x="75" y="40" width="5" height="5" fill="#3a2a1a"></rect><rect x="80" y="40" width="5" height="5" fill="#1d1f2e"></rect><rect x="15" y="45" width="5" height="5" fill="#1d1f2e"></rect><rect x="20" y="45" width="5" height="5" fill="#3a2a1a"></rect><rect x="25" y="45" width="10" height="5" fill="#f0c8a0"></rect><rect x="35" y="45" width="5" height="5" fill="#e8a892"></rect><rect x="40" y="45" width="20" height="5" fill="#f0c8a0"></rect><rect x="60" y="45" width="5" height="5" fill="#e8a892"></rect><rect x="65" y="45" width="10" height="5" fill="#f0c8a0"></rect><rect x="75" y="45" width="5" height="5" fill="#3a2a1a"></rect><rect x="80" y="45" width="5" height="5" fill="#1d1f2e"></rect><rect x="15" y="50" width="5" height="5" fill="#1d1f2e"></rect><rect x="20" y="50" width="5" height="5" fill="#3a2a1a"></rect><rect x="25" y="50" width="20" height="5" fill="#f0c8a0"></rect><rect x="45" y="50" width="10" height="5" fill="#1d1f2e"></rect><rect x="55" y="50" width="20" height="5" fill="#f0c8a0"></rect><rect x="75" y="50" width="5" height="5" fill="#3a2a1a"></rect><rect x="80" y="50" width="5" height="5" fill="#1d1f2e"></rect><rect x="15" y="55" width="5" height="5" fill="#1d1f2e"></rect><rect x="20" y="55" width="5" height="5" fill="#3a2a1a"></rect><rect x="25" y="55" width="15" height="5" fill="#f0c8a0"></rect><rect x="40" y="55" width="20" height="5" fill="#b5705a"></rect><rect x="60" y="55" width="15" height="5" fill="#f0c8a0"></rect><rect x="75" y="55" width="5" height="5" fill="#3a2a1a"></rect><rect x="80" y="55" width="5" height="5" fill="#1d1f2e"></rect><rect x="15" y="60" width="5" height="5" fill="#1d1f2e"></rect><rect x="20" y="60" width="5" height="5" fill="#3a2a1a"></rect><rect x="25" y="60" width="50" height="5" fill="#f0c8a0"></rect><rect x="75" y="60" width="5" height="5" fill="#3a2a1a"></rect><rect x="80" y="60" width="5" height="5" fill="#1d1f2e"></rect><rect x="15" y="65" width="5" height="5" fill="#1d1f2e"></rect><rect x="20" y="65" width="10" height="5" fill="#3a2a1a"></rect><rect x="30" y="65" width="40" height="5" fill="#f0c8a0"></rect><rect x="70" y="65" width="10" height="5" fill="#3a2a1a"></rect><rect x="80" y="65" width="5" height="5" fill="#1d1f2e"></rect><rect x="15" y="70" width="5" height="5" fill="#1d1f2e"></rect><rect x="20" y="70" width="15" height="5" fill="#3a2a1a"></rect><rect x="35" y="70" width="5" height="5" fill="#1d1f2e"></rect><rect x="40" y="70" width="20" height="5" fill="#f0c8a0"></rect><rect x="60" y="70" width="5" height="5" fill="#1d1f2e"></rect><rect x="65" y="70" width="15" height="5" fill="#3a2a1a"></rect><rect x="80" y="70" width="5" height="5" fill="#1d1f2e"></rect><rect x="15" y="75" width="5" height="5" fill="#1d1f2e"></rect><rect x="20" y="75" width="15" height="5" fill="#3a2a1a"></rect><rect x="35" y="75" width="5" height="5" fill="#1d1f2e"></rect><rect x="40" y="75" width="20" height="5" fill="#f0c8a0"></rect><rect x="60" y="75" width="5" height="5" fill="#1d1f2e"></rect><rect x="65" y="75" width="15" height="5" fill="#3a2a1a"></rect><rect x="80" y="75" width="5" height="5" fill="#1d1f2e"></rect><rect x="10" y="80" width="5" height="5" fill="#1d1f2e"></rect><rect x="15" y="80" width="15" height="5" fill="#3a2a1a"></rect><rect x="30" y="80" width="10" height="5" fill="#9c5a78"></rect><rect x="40" y="80" width="5" height="5" fill="#1d1f2e"></rect><rect x="45" y="80" width="10" height="5" fill="#c77a96"></rect><rect x="55" y="80" width="5" height="5" fill="#1d1f2e"></rect><rect x="60" y="80" width="10" height="5" fill="#9c5a78"></rect><rect x="70" y="80" width="15" height="5" fill="#3a2a1a"></rect><rect x="85" y="80" width="5" height="5" fill="#1d1f2e"></rect><rect x="5" y="85" width="5" height="5" fill="#1d1f2e"></rect><rect x="10" y="85" width="10" height="5" fill="#3a2a1a"></rect><rect x="20" y="85" width="20" height="5" fill="#9c5a78"></rect><rect x="40" y="85" width="5" height="5" fill="#6e3a52"></rect><rect x="45" y="85" width="10" height="5" fill="#c77a96"></rect><rect x="55" y="85" width="5" height="5" fill="#6e3a52"></rect><rect x="60" y="85" width="20" height="5" fill="#9c5a78"></rect><rect x="80" y="85" width="10" height="5" fill="#3a2a1a"></rect><rect x="90" y="85" width="5" height="5" fill="#1d1f2e"></rect><rect x="5" y="90" width="5" height="5" fill="#1d1f2e"></rect><rect x="10" y="90" width="5" height="5" fill="#3a2a1a"></rect><rect x="15" y="90" width="25" height="5" fill="#9c5a78"></rect><rect x="40" y="90" width="5" height="5" fill="#6e3a52"></rect><rect x="45" y="90" width="10" height="5" fill="#c77a96"></rect><rect x="55" y="90" width="5" height="5" fill="#6e3a52"></rect><rect x="60" y="90" width="25" height="5" fill="#9c5a78"></rect><rect x="85" y="90" width="5" height="5" fill="#3a2a1a"></rect><rect x="90" y="90" width="5" height="5" fill="#1d1f2e"></rect><rect x="0" y="95" width="5" height="5" fill="#1d1f2e"></rect><rect x="5" y="95" width="5" height="5" fill="#3a2a1a"></rect><rect x="10" y="95" width="30" height="5" fill="#9c5a78"></rect><rect x="40" y="95" width="20" height="5" fill="#6e3a52"></rect><rect x="60" y="95" width="30" height="5" fill="#9c5a78"></rect><rect x="90" y="95" width="5" height="5" fill="#3a2a1a"></rect><rect x="95" y="95" width="5" height="5" fill="#1d1f2e"></rect><rect x="0" y="100" width="5" height="5" fill="#1d1f2e"></rect><rect x="5" y="100" width="35" height="5" fill="#9c5a78"></rect><rect x="40" y="100" width="20" height="5" fill="#6e3a52"></rect><rect x="60" y="100" width="35" height="5" fill="#9c5a78"></rect><rect x="95" y="100" width="5" height="5" fill="#1d1f2e"></rect><rect x="0" y="105" width="5" height="5" fill="#1d1f2e"></rect><rect x="5" y="105" width="40" height="5" fill="#9c5a78"></rect><rect x="45" y="105" width="10" height="5" fill="#6e3a52"></rect><rect x="55" y="105" width="40" height="5" fill="#9c5a78"></rect><rect x="95" y="105" width="5" height="5" fill="#1d1f2e"></rect><rect x="0" y="110" width="5" height="5" fill="#1d1f2e"></rect><rect x="5" y="110" width="90" height="5" fill="#9c5a78"></rect><rect x="95" y="110" width="5" height="5" fill="#1d1f2e"></rect><rect x="5" y="115" width="90" height="5" fill="#1d1f2e"></rect>
</svg>