<svg xmlns="http://www.w3.org/2000/svg" viewBox="0 0 384 216" width="384" height="216" shape-rendering="crispEdges" role="img" aria-label="칼퇴 B(남성) — 땅거미, 서둘러 뛰어나가는 뒷모습">
<rect x="0" y="0" width="384" height="4" fill="#1a2238"></rect><rect x="0" y="4" width="384" height="4" fill="#1a2238"></rect><rect x="0" y="8" width="384" height="4" fill="#1a2238"></rect><rect x="0" y="12" width="384" height="4" fill="#1a2238"></rect><rect x="0" y="16" width="4" height="4" fill="#1a2238"></rect><rect x="4" y="16" width="116" height="4" fill="#262c38"></rect><rect x="120" y="16" width="264" height="4" fill="#1a2238"></rect><rect x="0" y="20" width="4" height="4" fill="#1a2238"></rect><rect x="4" y="20" width="116" height="4" fill="#262c38"></rect><rect x="120" y="20" width="264" height="4" fill="#1a2238"></rect><rect x="0" y="24" width="8" height="4" fill="#1a2238"></rect><rect x="8" y="24" width="100" height="4" fill="#2e3543"></rect><rect x="108" y="24" width="8" height="4" fill="#262c38"></rect><rect x="116" y="24" width="268" height="4" fill="#1a2238"></rect><rect x="0" y="28" width="8" height="4" fill="#1a2238"></rect><rect x="8" y="28" width="100" height="4" fill="#2e3543"></rect><rect x="108" y="28" width="8" height="4" fill="#262c38"></rect><rect x="116" y="28" width="268" height="4" fill="#1a2238"></rect><rect x="0" y="32" width="8" height="4" fill="#1a2238"></rect><rect x="8" y="32" width="8" height="4" fill="#2e3543"></rect><rect x="16" y="32" width="92" height="4" fill="#3a4254"></rect><rect x="108" y="32" width="8" height="4" fill="#262c38"></rect><rect x="116" y="32" width="268" height="4" fill="#1a2238"></rect><rect x="0" y="36" width="8" height="4" fill="#1a2238"></rect><rect x="8" y="36" width="8" height="4" fill="#2e3543"></rect><rect x="16" y="36" width="92" height="4" fill="#3a4254"></rect><rect x="108" y="36" width="8" height="4" fill="#262c38"></rect><rect x="116" y="36" width="268" height="4" fill="#1a2238"></rect><rect x="0" y="40" width="8" height="4" fill="#26345c"></rect><rect x="8" y="40" width="8" height="4" fill="#2e3543"></rect><rect x="16" y="40" width="8" height="4" fill="#3a4254"></rect><rect x="24" y="40" width="20" height="4" fill="#b88a3e"></rect><rect x="44" y="40" width="12" height="4" fill="#3a4254"></rect><rect x="56" y="40" width="20" height="4" fill="#b88a3e"></rect><rect x="76" y="40" width="12" height="4" fill="#3a4254"></rect><rect x="88" y="40" width="20" height="4" fill="#b88a3e"></rect><rect x="108" y="40" width="8" height="4" fill="#262c38"></rect><rect x="116" y="40" width="268" height="4" fill="#26345c"></rect><rect x="0" y="44" width="8" height="4" fill="#26345c"></rect><rect x="8" y="44" width="8" height="4" fill="#2e3543"></rect><rect x="16" y="44" width="8" height="4" fill="#3a4254"></rect><rect x="24" y="44" width="4" height="4" fill="#b88a3e"></rect><rect x="28" y="44" width="16" height="4" fill="#e8b85c"></rect><rect x="44" y="44" width="12" height="4" fill="#3a4254"></rect><rect x="56" y="44" width="4" height="4" fill="#b88a3e"></rect><rect x="60" y="44" width="16" height="4" fill="#e8b85c"></rect><rect x="76" y="44" width="12" height="4" fill="#3a4254"></rect><rect x="88" y="44" width="4" height="4" fill="#b88a3e"></rect><rect x="92" y="44" width="16" height="4" fill="#e8b85c"></rect><rect x="108" y="44" width="8" height="4" fill="#262c38"></rect><rect x="116" y="44" width="268" height="4" fill="#26345c"></rect><rect x="0" y="48" width="8" height="4" fill="#26345c"></rect><rect x="8" y="48" width="8" height="4" fill="#2e3543"></rect><rect x="16" y="48" width="8" height="4" fill="#3a4254"></rect><rect x="24" y="48" width="4" height="4" fill="#b88a3e"></rect><rect x="28" y="48" width="16" height="4" fill="#e8b85c"></rect><rect x="44" y="48" width="12" height="4" fill="#3a4254"></rect><rect x="56" y="48" width="4" height="4" fill="#b88a3e"></rect><rect x="60" y="48" width="16" height="4" fill="#e8b85c"></rect><rect x="76" y="48" width="12" height="4" fill="#3a4254"></rect><rect x="88" y="48" width="4" height="4" fill="#b88a3e"></rect><rect x="92" y="48" width="16" height="4" fill="#e8b85c"></rect><rect x="108" y="48" width="8" height="4" fill="#262c38"></rect><rect x="116" y="48" width="268" height="4" fill="#26345c"></rect><rect x="0" y="52" width="8" height="4" fill="#26345c"></rect><rect x="8" y="52" width="8" height="4" fill="#2e3543"></rect><rect x="16" y="52" width="8" height="4" fill="#3a4254"></rect><rect x="24" y="52" width="4" height="4" fill="#b88a3e"></rect><rect x="28" y="52" width="16" height="4" fill="#e8b85c"></rect><rect x="44" y="52" width="12" height="4" fill="#3a4254"></rect><rect x="56" y="52" width="4" height="4" fill="#b88a3e"></rect><rect x="60" y="52" width="16" height="4" fill="#e8b85c"></rect><rect x="76" y="52" width="12" height="4" fill="#3a4254"></rect><rect x="88" y="52" width="4" height="4" fill="#b88a3e"></rect><rect x="92" y="52" width="16" height="4" fill="#e8b85c"></rect><rect x="108" y="52" width="8" height="4" fill="#262c38"></rect><rect x="116" y="52" width="268" height="4" fill="#26345c"></rect><rect x="0" y="56" width="8" height="4" fill="#26345c"></rect><rect x="8" y="56" width="8" height="4" fill="#2e3543"></rect><rect x="16" y="56" width="8" height="4" fill="#3a4254"></rect><rect x="24" y="56" width="4" height="4" fill="#b88a3e"></rect><rect x="28" y="56" width="16" height="4" fill="#e8b85c"></rect><rect x="44" y="56" width="12" height="4" fill="#3a4254"></rect><rect x="56" y="56" width="4" height="4" fill="#b88a3e"></rect><rect x="60" y="56" width="16" height="4" fill="#e8b85c"></rect><rect x="76" y="56" width="12" height="4" fill="#3a4254"></rect><rect x="88" y="56" width="4" height="4" fill="#b88a3e"></rect><rect x="92" y="56" width="16" height="4" fill="#e8b85c"></rect><rect x="108" y="56" width="8" height="4" fill="#262c38"></rect><rect x="116" y="56" width="268" height="4" fill="#26345c"></rect><rect x="0" y="60" width="8" height="4" fill="#26345c"></rect><rect x="8" y="60" width="8" height="4" fill="#2e3543"></rect><rect x="16" y="60" width="8" height="4" fill="#3a4254"></rect><rect x="24" y="60" width="4" height="4" fill="#b88a3e"></rect><rect x="28" y="60" width="16" height="4" fill="#e8b85c"></rect><rect x="44" y="60" width="12" height="4" fill="#3a4254"></rect><rect x="56" y="60" width="4" height="4" fill="#b88a3e"></rect><rect x="60" y="60" width="16" height="4" fill="#e8b85c"></rect><rect x="76" y="60" width="12" height="4" fill="#3a4254"></rect><rect x="88" y="60" width="4" height="4" fill="#b88a3e"></rect><rect x="92" y="60" width="16" height="4" fill="#e8b85c"></rect><rect x="108" y="60" width="8" height="4" fill="#262c38"></rect><rect x="116" y="60" width="268" height="4" fill="#26345c"></rect><rect x="0" y="64" width="8" height="4" fill="#26345c"></rect><rect x="8" y="64" width="8" height="4" fill="#2e3543"></rect><rect x="16" y="64" width="92" height="4" fill="#3a4254"></rect><rect x="108" y="64" width="8" height="4" fill="#262c38"></rect><rect x="116" y="64" width="108" height="4" fill="#26345c"></rect><rect x="224" y="64" width="36" height="4" fill="#4a3826"></rect><rect x="260" y="64" width="124" height="4" fill="#26345c"></rect><rect x="0" y="68" width="8" height="4" fill="#26345c"></rect><rect x="8" y="68" width="8" height="4" fill="#2e3543"></rect><rect x="16" y="68" width="92" height="4" fill="#3a4254"></rect><rect x="108" y="68" width="8" height="4" fill="#262c38"></rect><rect x="116" y="68" width="108" height="4" fill="#26345c"></rect><rect x="224" y="68" width="36" height="4" fill="#4a3826"></rect><rect x="260" y="68" width="12" height="4" fill="#26345c"></rect><rect x="272" y="68" width="4" height="4" fill="#9fd4ff"></rect><rect x="276" y="68" width="108" height="4" fill="#26345c"></rect><rect x="0" y="72" width="8" height="4" fill="#3a4a78"></rect><rect x="8" y="72" width="8" height="4" fill="#2e3543"></rect><rect x="16" y="72" width="92" height="4" fill="#3a4254"></rect><rect x="108" y="72" width="8" height="4" fill="#262c38"></rect><rect x="116" y="72" width="108" height="4" fill="#3a4a78"></rect><rect x="224" y="72" width="36" height="4" fill="#4a3826"></rect><rect x="260" y="72" width="8" height="4" fill="#3a4a78"></rect><rect x="268" y="72" width="4" height="4" fill="#9fd4ff"></rect><rect x="272" y="72" width="4" height="4" fill="#5fa8e0"></rect><rect x="276" y="72" width="4" height="4" fill="#9fd4ff"></rect><rect x="280" y="72" width="104" height="4" fill="#3a4a78"></rect><rect x="0" y="76" width="8" height="4" fill="#3a4a78"></rect><rect x="8" y="76" width="8" height="4" fill="#2e3543"></rect><rect x="16" y="76" width="8" height="4" fill="#3a4254"></rect><rect x="24" y="76" width="20" height="4" fill="#b88a3e"></rect><rect x="44" y="76" width="12" height="4" fill="#3a4254"></rect><rect x="56" y="76" width="20" height="4" fill="#b88a3e"></rect><rect x="76" y="76" width="12" height="4" fill="#3a4254"></rect><rect x="88" y="76" width="20" height="4" fill="#b88a3e"></rect><rect x="108" y="76" width="8" height="4" fill="#262c38"></rect><rect x="116" y="76" width="108" height="4" fill="#3a4a78"></rect><rect x="224" y="76" width="8" height="4" fill="#4a3826"></rect><rect x="232" y="76" width="28" height="4" fill="#3a2a1a"></rect><rect x="260" y="76" width="8" height="4" fill="#3a4a78"></rect><rect x="268" y="76" width="12" height="4" fill="#9fd4ff"></rect><rect x="280" y="76" width="104" height="4" fill="#3a4a78"></rect><rect x="0" y="80" width="8" height="4" fill="#3a4a78"></rect><rect x="8" y="80" width="8" height="4" fill="#2e3543"></rect><rect x="16" y="80" width="8" height="4" fill="#3a4254"></rect><rect x="24" y="80" width="4" height="4" fill="#b88a3e"></rect><rect x="28" y="80" width="16" height="4" fill="#e8b85c"></rect><rect x="44" y="80" width="12" height="4" fill="#3a4254"></rect><rect x="56" y="80" width="4" height="4" fill="#b88a3e"></rect><rect x="60" y="80" width="16" height="4" fill="#e8b85c"></rect><rect x="76" y="80" width="12" height="4" fill="#3a4254"></rect><rect x="88" y="80" width="4" height="4" fill="#b88a3e"></rect><rect x="92" y="80" width="16" height="4" fill="#e8b85c"></rect><rect x="108" y="80" width="8" height="4" fill="#262c38"></rect><rect x="116" y="80" width="108" height="4" fill="#3a4a78"></rect><rect x="224" y="80" width="8" height="4" fill="#4a3826"></rect><rect x="232" y="80" width="28" height="4" fill="#3a2a1a"></rect><rect x="260" y="80" width="8" height="4" fill="#3a4a78"></rect><rect x="268" y="80" width="12" height="4" fill="#9fd4ff"></rect><rect x="280" y="80" width="104" height="4" fill="#3a4a78"></rect><rect x="0" y="84" width="8" height="4" fill="#3a4a78"></rect><rect x="8" y="84" width="8" height="4" fill="#2e3543"></rect><rect x="16" y="84" width="8" height="4" fill="#3a4254"></rect><rect x="24" y="84" width="4" height="4" fill="#b88a3e"></rect><rect x="28" y="84" width="16" height="4" fill="#e8b85c"></rect><rect x="44" y="84" width="12" height="4" fill="#3a4254"></rect><rect x="56" y="84" width="4" height="4" fill="#b88a3e"></rect><rect x="60" y="84" width="16" height="4" fill="#e8b85c"></rect><rect x="76" y="84" width="12" height="4" fill="#3a4254"></rect><rect x="88" y="84" width="4" height="4" fill="#b88a3e"></rect><rect x="92" y="84" width="16" height="4" fill="#e8b85c"></rect><rect x="108" y="84" width="8" height="4" fill="#262c38"></rect><rect x="116" y="84" width="108" height="4" fill="#3a4a78"></rect><rect x="224" y="84" width="8" height="4" fill="#4a3826"></rect><rect x="232" y="84" width="28" height="4" fill="#3a2a1a"></rect><rect x="260" y="84" width="124" height="4" fill="#3a4a78"></rect><rect x="0" y="88" width="8" height="4" fill="#3a4a78"></rect><rect x="8" y="88" width="8" height="4" fill="#2e3543"></rect><rect x="16" y="88" width="8" height="4" fill="#3a4254"></rect><rect x="24" y="88" width="4" height="4" fill="#b88a3e"></rect><rect x="28" y="88" width="16" height="4" fill="#e8b85c"></rect><rect x="44" y="88" width="12" height="4" fill="#3a4254"></rect><rect x="56" y="88" width="4" height="4" fill="#b88a3e"></rect><rect x="60" y="88" width="16" height="4" fill="#e8b85c"></rect><rect x="76" y="88" width="12" height="4" fill="#3a4254"></rect><rect x="88" y="88" width="4" height="4" fill="#b88a3e"></rect><rect x="92" y="88" width="16" height="4" fill="#e8b85c"></rect><rect x="108" y="88" width="8" height="4" fill="#262c38"></rect><rect x="116" y="88" width="108" height="4" fill="#3a4a78"></rect><rect x="224" y="88" width="8" height="4" fill="#4a3826"></rect><rect x="232" y="88" width="28" height="4" fill="#3a2a1a"></rect><rect x="260" y="88" width="124" height="4" fill="#3a4a78"></rect><rect x="0" y="92" width="8" height="4" fill="#3a4a78"></rect><rect x="8" y="92" width="8" height="4" fill="#2e3543"></rect><rect x="16" y="92" width="8" height="4" fill="#3a4254"></rect><rect x="24" y="92" width="4" height="4" fill="#b88a3e"></rect><rect x="28" y="92" width="16" height="4" fill="#e8b85c"></rect><rect x="44" y="92" width="12" height="4" fill="#3a4254"></rect><rect x="56" y="92" width="4" height="4" fill="#b88a3e"></rect><rect x="60" y="92" width="16" height="4" fill="#e8b85c"></rect><rect x="76" y="92" width="12" height="4" fill="#3a4254"></rect><rect x="88" y="92" width="4" height="4" fill="#b88a3e"></rect><rect x="92" y="92" width="16" height="4" fill="#e8b85c"></rect><rect x="108" y="92" width="8" height="4" fill="#262c38"></rect><rect x="116" y="92" width="108" height="4" fill="#3a4a78"></rect><rect x="224" y="92" width="8" height="4" fill="#4a3826"></rect><rect x="232" y="92" width="28" height="4" fill="#3a2a1a"></rect><rect x="260" y="92" width="124" height="4" fill="#3a4a78"></rect><rect x="0" y="96" width="8" height="4" fill="#3a4a78"></rect><rect x="8" y="96" width="8" height="4" fill="#2e3543"></rect><rect x="16" y="96" width="8" height="4" fill="#3a4254"></rect><rect x="24" y="96" width="4" height="4" fill="#b88a3e"></rect><rect x="28" y="96" width="16" height="4" fill="#e8b85c"></rect><rect x="44" y="96" width="12" height="4" fill="#3a4254"></rect><rect x="56" y="96" width="4" height="4" fill="#b88a3e"></rect><rect x="60" y="96" width="16" height="4" fill="#e8b85c"></rect><rect x="76" y="96" width="12" height="4" fill="#3a4254"></rect><rect x="88" y="96" width="4" height="4" fill="#b88a3e"></rect><rect x="92" y="96" width="16" height="4" fill="#e8b85c"></rect><rect x="108" y="96" width="8" height="4" fill="#262c38"></rect><rect x="116" y="96" width="116" height="4" fill="#3a4a78"></rect><rect x="232" y="96" width="16" height="4" fill="#f0c8a0"></rect><rect x="248" y="96" width="136" height="4" fill="#3a4a78"></rect><rect x="0" y="100" width="8" height="4" fill="#3a4a78"></rect><rect x="8" y="100" width="8" height="4" fill="#2e3543"></rect><rect x="16" y="100" width="92" height="4" fill="#3a4254"></rect><rect x="108" y="100" width="8" height="4" fill="#262c38"></rect><rect x="116" y="100" width="100" height="4" fill="#3a4a78"></rect><rect x="216" y="100" width="16" height="4" fill="#34466b"></rect><rect x="232" y="100" width="16" height="4" fill="#f0c8a0"></rect><rect x="248" y="100" width="16" height="4" fill="#34466b"></rect><rect x="264" y="100" width="120" height="4" fill="#3a4a78"></rect><rect x="0" y="104" width="8" height="4" fill="#6a5a8a"></rect><rect x="8" y="104" width="8" height="4" fill="#2e3543"></rect><rect x="16" y="104" width="20" height="4" fill="#3a4254"></rect><rect x="36" y="104" width="56" height="4" fill="#262c38"></rect><rect x="92" y="104" width="16" height="4" fill="#3a4254"></rect><rect x="108" y="104" width="8" height="4" fill="#262c38"></rect><rect x="116" y="104" width="60" height="4" fill="#6a5a8a"></rect><rect x="176" y="104" width="16" height="4" fill="#e8e4d4"></rect><rect x="192" y="104" width="24" height="4" fill="#6a5a8a"></rect><rect x="216" y="104" width="16" height="4" fill="#34466b"></rect><rect x="232" y="104" width="16" height="4" fill="#e8e4d4"></rect><rect x="248" y="104" width="16" height="4" fill="#34466b"></rect><rect x="264" y="104" width="120" height="4" fill="#6a5a8a"></rect><rect x="0" y="108" width="8" height="4" fill="#6a5a8a"></rect><rect x="8" y="108" width="8" height="4" fill="#2e3543"></rect><rect x="16" y="108" width="20" height="4" fill="#3a4254"></rect><rect x="36" y="108" width="56" height="4" fill="#262c38"></rect><rect x="92" y="108" width="16" height="4" fill="#3a4254"></rect><rect x="108" y="108" width="8" height="4" fill="#262c38"></rect><rect x="116" y="108" width="100" height="4" fill="#6a5a8a"></rect><rect x="216" y="108" width="56" height="4" fill="#34466b"></rect><rect x="272" y="108" width="112" height="4" fill="#6a5a8a"></rect><rect x="0" y="112" width="8" height="4" fill="#6a5a8a"></rect><rect x="8" y="112" width="8" height="4" fill="#2e3543"></rect><rect x="16" y="112" width="8" height="4" fill="#3a4254"></rect><rect x="24" y="112" width="20" height="4" fill="#b88a3e"></rect><rect x="44" y="112" width="40" height="4" fill="#9aa0ad"></rect><rect x="84" y="112" width="4" height="4" fill="#3a4254"></rect><rect x="88" y="112" width="20" height="4" fill="#b88a3e"></rect><rect x="108" y="112" width="8" height="4" fill="#262c38"></rect><rect x="116" y="112" width="92" height="4" fill="#6a5a8a"></rect><rect x="208" y="112" width="64" height="4" fill="#34466b"></rect><rect x="272" y="112" width="112" height="4" fill="#6a5a8a"></rect><rect x="0" y="116" width="8" height="4" fill="#6a5a8a"></rect><rect x="8" y="116" width="8" height="4" fill="#2e3543"></rect><rect x="16" y="116" width="8" height="4" fill="#3a4254"></rect><rect x="24" y="116" width="4" height="4" fill="#b88a3e"></rect><rect x="28" y="116" width="16" height="4" fill="#e8b85c"></rect><rect x="44" y="116" width="4" height="4" fill="#9aa0ad"></rect><rect x="48" y="116" width="12" height="4" fill="#1f242f"></rect><rect x="60" y="116" width="4" height="4" fill="#9aa0ad"></rect><rect x="64" y="116" width="16" height="4" fill="#1f242f"></rect><rect x="80" y="116" width="4" height="4" fill="#9aa0ad"></rect><rect x="84" y="116" width="4" height="4" fill="#3a4254"></rect><rect x="88" y="116" width="4" height="4" fill="#b88a3e"></rect><rect x="92" y="116" width="16" height="4" fill="#e8b85c"></rect><rect x="108" y="116" width="8" height="4" fill="#262c38"></rect><rect x="116" y="116" width="92" height="4" fill="#6a5a8a"></rect><rect x="208" y="116" width="8" height="4" fill="#34466b"></rect><rect x="216" y="116" width="4" height="4" fill="#6a5a8a"></rect><rect x="220" y="116" width="8" height="4" fill="#283a5a"></rect><rect x="228" y="116" width="28" height="4" fill="#34466b"></rect><rect x="256" y="116" width="8" height="4" fill="#283a5a"></rect><rect x="264" y="116" width="8" height="4" fill="#34466b"></rect><rect x="272" y="116" width="112" height="4" fill="#6a5a8a"></rect><rect x="0" y="120" width="8" height="4" fill="#6a5a8a"></rect><rect x="8" y="120" width="8" height="4" fill="#2e3543"></rect><rect x="16" y="120" width="8" height="4" fill="#3a4254"></rect><rect x="24" y="120" width="4" height="4" fill="#b88a3e"></rect><rect x="28" y="120" width="16" height="4" fill="#e8b85c"></rect><rect x="44" y="120" width="4" height="4" fill="#9aa0ad"></rect><rect x="48" y="120" width="12" height="4" fill="#1f242f"></rect><rect x="60" y="120" width="4" height="4" fill="#9aa0ad"></rect><rect x="64" y="120" width="16" height="4" fill="#1f242f"></rect><rect x="80" y="120" width="4" height="4" fill="#9aa0ad"></rect><rect x="84" y="120" width="4" height="4" fill="#3a4254"></rect><rect x="88" y="120" width="4" height="4" fill="#b88a3e"></rect><rect x="92" y="120" width="16" height="4" fill="#e8b85c"></rect><rect x="108" y="120" width="8" height="4" fill="#262c38"></rect><rect x="116" y="120" width="92" height="4" fill="#6a5a8a"></rect><rect x="208" y="120" width="8" height="4" fill="#34466b"></rect><rect x="216" y="120" width="12" height="4" fill="#283a5a"></rect><rect x="228" y="120" width="28" height="4" fill="#34466b"></rect><rect x="256" y="120" width="8" height="4" fill="#283a5a"></rect><rect x="264" y="120" width="8" height="4" fill="#34466b"></rect><rect x="272" y="120" width="112" height="4" fill="#6a5a8a"></rect><rect x="0" y="124" width="8" height="4" fill="#6a5a8a"></rect><rect x="8" y="124" width="8" height="4" fill="#2e3543"></rect><rect x="16" y="124" width="8" height="4" fill="#3a4254"></rect><rect x="24" y="124" width="4" height="4" fill="#b88a3e"></rect><rect x="28" y="124" width="16" height="4" fill="#e8b85c"></rect><rect x="44" y="124" width="4" height="4" fill="#9aa0ad"></rect><rect x="48" y="124" width="12" height="4" fill="#1f242f"></rect><rect x="60" y="124" width="4" height="4" fill="#9aa0ad"></rect><rect x="64" y="124" width="16" height="4" fill="#1f242f"></rect><rect x="80" y="124" width="4" height="4" fill="#9aa0ad"></rect><rect x="84" y="124" width="4" height="4" fill="#3a4254"></rect><rect x="88" y="124" width="4" height="4" fill="#b88a3e"></rect><rect x="92" y="124" width="16" height="4" fill="#e8b85c"></rect><rect x="108" y="124" width="8" height="4" fill="#262c38"></rect><rect x="116" y="124" width="52" height="4" fill="#6a5a8a"></rect><rect x="168" y="124" width="20" height="4" fill="#e8e4d4"></rect><rect x="188" y="124" width="12" height="4" fill="#6a5a8a"></rect><rect x="200" y="124" width="8" height="4" fill="#1d1f2e"></rect><rect x="208" y="124" width="8" height="4" fill="#34466b"></rect><rect x="216" y="124" width="12" height="4" fill="#283a5a"></rect><rect x="228" y="124" width="28" height="4" fill="#34466b"></rect><rect x="256" y="124" width="8" height="4" fill="#283a5a"></rect><rect x="264" y="124" width="8" height="4" fill="#f0c8a0"></rect><rect x="272" y="124" width="112" height="4" fill="#6a5a8a"></rect><rect x="0" y="128" width="8" height="4" fill="#b06a6e"></rect><rect x="8" y="128" width="8" height="4" fill="#2e3543"></rect><rect x="16" y="128" width="8" height="4" fill="#3a4254"></rect><rect x="24" y="128" width="4" height="4" fill="#b88a3e"></rect><rect x="28" y="128" width="16" height="4" fill="#e8b85c"></rect><rect x="44" y="128" width="4" height="4" fill="#9aa0ad"></rect><rect x="48" y="128" width="12" height="4" fill="#1f242f"></rect><rect x="60" y="128" width="4" height="4" fill="#9aa0ad"></rect><rect x="64" y="128" width="16" height="4" fill="#1f242f"></rect><rect x="80" y="128" width="4" height="4" fill="#9aa0ad"></rect><rect x="84" y="128" width="4" height="4" fill="#3a4254"></rect><rect x="88" y="128" width="4" height="4" fill="#b88a3e"></rect><rect x="92" y="128" width="16" height="4" fill="#e8b85c"></rect><rect x="108" y="128" width="8" height="4" fill="#262c38"></rect><rect x="116" y="128" width="84" height="4" fill="#b06a6e"></rect><rect x="200" y="128" width="8" height="4" fill="#1d1f2e"></rect><rect x="208" y="128" width="8" height="4" fill="#34466b"></rect><rect x="216" y="128" width="12" height="4" fill="#283a5a"></rect><rect x="228" y="128" width="28" height="4" fill="#34466b"></rect><rect x="256" y="128" width="8" height="4" fill="#283a5a"></rect><rect x="264" y="128" width="8" height="4" fill="#f0c8a0"></rect><rect x="272" y="128" width="112" height="4" fill="#b06a6e"></rect><rect x="0" y="132" width="8" height="4" fill="#b06a6e"></rect><rect x="8" y="132" width="8" height="4" fill="#2e3543"></rect><rect x="16" y="132" width="8" height="4" fill="#3a4254"></rect><rect x="24" y="132" width="4" height="4" fill="#b88a3e"></rect><rect x="28" y="132" width="16" height="4" fill="#e8b85c"></rect><rect x="44" y="132" width="4" height="4" fill="#9aa0ad"></rect><rect x="48" y="132" width="12" height="4" fill="#1f242f"></rect><rect x="60" y="132" width="4" height="4" fill="#9aa0ad"></rect><rect x="64" y="132" width="16" height="4" fill="#1f242f"></rect><rect x="80" y="132" width="4" height="4" fill="#9aa0ad"></rect><rect x="84" y="132" width="4" height="4" fill="#3a4254"></rect><rect x="88" y="132" width="4" height="4" fill="#b88a3e"></rect><rect x="92" y="132" width="16" height="4" fill="#e8b85c"></rect><rect x="108" y="132" width="8" height="4" fill="#262c38"></rect><rect x="116" y="132" width="84" height="4" fill="#b06a6e"></rect><rect x="200" y="132" width="8" height="4" fill="#1d1f2e"></rect><rect x="208" y="132" width="8" height="4" fill="#f0c8a0"></rect><rect x="216" y="132" width="12" height="4" fill="#283a5a"></rect><rect x="228" y="132" width="28" height="4" fill="#34466b"></rect><rect x="256" y="132" width="8" height="4" fill="#283a5a"></rect><rect x="264" y="132" width="12" height="4" fill="#b06a6e"></rect><rect x="276" y="132" width="28" height="4" fill="#c47840"></rect><rect x="304" y="132" width="80" height="4" fill="#b06a6e"></rect><rect x="0" y="136" width="8" height="4" fill="#b06a6e"></rect><rect x="8" y="136" width="8" height="4" fill="#2e3543"></rect><rect x="16" y="136" width="28" height="4" fill="#3a4254"></rect><rect x="44" y="136" width="4" height="4" fill="#9aa0ad"></rect><rect x="48" y="136" width="12" height="4" fill="#1f242f"></rect><rect x="60" y="136" width="4" height="4" fill="#9aa0ad"></rect><rect x="64" y="136" width="16" height="4" fill="#1f242f"></rect><rect x="80" y="136" width="4" height="4" fill="#9aa0ad"></rect><rect x="84" y="136" width="24" height="4" fill="#3a4254"></rect><rect x="108" y="136" width="8" height="4" fill="#262c38"></rect><rect x="116" y="136" width="76" height="4" fill="#b06a6e"></rect><rect x="192" y="136" width="24" height="4" fill="#46280f"></rect><rect x="216" y="136" width="12" height="4" fill="#283a5a"></rect><rect x="228" y="136" width="28" height="4" fill="#34466b"></rect><rect x="256" y="136" width="8" height="4" fill="#283a5a"></rect><rect x="264" y="136" width="8" height="4" fill="#b06a6e"></rect><rect x="272" y="136" width="8" height="4" fill="#c47840"></rect><rect x="280" y="136" width="20" height="4" fill="#e8a85c"></rect><rect x="300" y="136" width="8" height="4" fill="#c47840"></rect><rect x="308" y="136" width="76" height="4" fill="#b06a6e"></rect><rect x="0" y="140" width="8" height="4" fill="#b06a6e"></rect><rect x="8" y="140" width="8" height="4" fill="#2e3543"></rect><rect x="16" y="140" width="28" height="4" fill="#3a4254"></rect><rect x="44" y="140" width="4" height="4" fill="#9aa0ad"></rect><rect x="48" y="140" width="12" height="4" fill="#1f242f"></rect><rect x="60" y="140" width="4" height="4" fill="#9aa0ad"></rect><rect x="64" y="140" width="16" height="4" fill="#1f242f"></rect><rect x="80" y="140" width="4" height="4" fill="#9aa0ad"></rect><rect x="84" y="140" width="24" height="4" fill="#3a4254"></rect><rect x="108" y="140" width="8" height="4" fill="#262c38"></rect><rect x="116" y="140" width="76" height="4" fill="#b06a6e"></rect><rect x="192" y="140" width="24" height="4" fill="#46280f"></rect><rect x="216" y="140" width="12" height="4" fill="#283a5a"></rect><rect x="228" y="140" width="28" height="4" fill="#34466b"></rect><rect x="256" y="140" width="8" height="4" fill="#283a5a"></rect><rect x="264" y="140" width="4" height="4" fill="#b06a6e"></rect><rect x="268" y="140" width="8" height="4" fill="#c47840"></rect><rect x="276" y="140" width="28" height="4" fill="#e8a85c"></rect><rect x="304" y="140" width="8" height="4" fill="#c47840"></rect><rect x="312" y="140" width="72" height="4" fill="#b06a6e"></rect><rect x="0" y="144" width="8" height="4" fill="#b06a6e"></rect><rect x="8" y="144" width="8" height="4" fill="#2e3543"></rect><rect x="16" y="144" width="28" height="4" fill="#3a4254"></rect><rect x="44" y="144" width="4" height="4" fill="#9aa0ad"></rect><rect x="48" y="144" width="12" height="4" fill="#1f242f"></rect><rect x="60" y="144" width="4" height="4" fill="#9aa0ad"></rect><rect x="64" y="144" width="16" height="4" fill="#1f242f"></rect><rect x="80" y="144" width="4" height="4" fill="#9aa0ad"></rect><rect x="84" y="144" width="24" height="4" fill="#3a4254"></rect><rect x="108" y="144" width="8" height="4" fill="#262c38"></rect><rect x="116" y="144" width="64" height="4" fill="#b06a6e"></rect><rect x="180" y="144" width="16" height="4" fill="#e8e4d4"></rect><rect x="196" y="144" width="20" height="4" fill="#5a3820"></rect><rect x="216" y="144" width="12" height="4" fill="#283a5a"></rect><rect x="228" y="144" width="28" height="4" fill="#34466b"></rect><rect x="256" y="144" width="8" height="4" fill="#283a5a"></rect><rect x="264" y="144" width="8" height="4" fill="#c47840"></rect><rect x="272" y="144" width="36" height="4" fill="#e8a85c"></rect><rect x="308" y="144" width="8" height="4" fill="#c47840"></rect><rect x="316" y="144" width="68" height="4" fill="#b06a6e"></rect><rect x="0" y="148" width="8" height="4" fill="#b06a6e"></rect><rect x="8" y="148" width="8" height="4" fill="#2e3543"></rect><rect x="16" y="148" width="28" height="4" fill="#3a4254"></rect><rect x="44" y="148" width="4" height="4" fill="#9aa0ad"></rect><rect x="48" y="148" width="12" height="4" fill="#1f242f"></rect><rect x="60" y="148" width="4" height="4" fill="#9aa0ad"></rect><rect x="64" y="148" width="16" height="4" fill="#1f242f"></rect><rect x="80" y="148" width="4" height="4" fill="#9aa0ad"></rect><rect x="84" y="148" width="24" height="4" fill="#3a4254"></rect><rect x="108" y="148" width="8" height="4" fill="#262c38"></rect><rect x="116" y="148" width="76" height="4" fill="#b06a6e"></rect><rect x="192" y="148" width="24" height="4" fill="#5a3820"></rect><rect x="216" y="148" width="12" height="4" fill="#283a5a"></rect><rect x="228" y="148" width="28" height="4" fill="#34466b"></rect><rect x="256" y="148" width="8" height="4" fill="#283a5a"></rect><rect x="264" y="148" width="4" height="4" fill="#c47840"></rect><rect x="268" y="148" width="44" height="4" fill="#e8a85c"></rect><rect x="312" y="148" width="8" height="4" fill="#c47840"></rect><rect x="320" y="148" width="64" height="4" fill="#b06a6e"></rect><rect x="0" y="152" width="8" height="4" fill="#d98a5a"></rect><rect x="8" y="152" width="8" height="4" fill="#2e3543"></rect><rect x="16" y="152" width="28" height="4" fill="#3a4254"></rect><rect x="44" y="152" width="4" height="4" fill="#9aa0ad"></rect><rect x="48" y="152" width="12" height="4" fill="#1f242f"></rect><rect x="60" y="152" width="4" height="4" fill="#9aa0ad"></rect><rect x="64" y="152" width="16" height="4" fill="#1f242f"></rect><rect x="80" y="152" width="4" height="4" fill="#9aa0ad"></rect><rect x="84" y="152" width="24" height="4" fill="#3a4254"></rect><rect x="108" y="152" width="8" height="4" fill="#262c38"></rect><rect x="116" y="152" width="76" height="4" fill="#d98a5a"></rect><rect x="192" y="152" width="24" height="4" fill="#5a3820"></rect><rect x="216" y="152" width="12" height="4" fill="#283a5a"></rect><rect x="228" y="152" width="20" height="4" fill="#d98a5a"></rect><rect x="248" y="152" width="12" height="4" fill="#34466b"></rect><rect x="260" y="152" width="4" height="4" fill="#c47840"></rect><rect x="264" y="152" width="52" height="4" fill="#e8a85c"></rect><rect x="316" y="152" width="4" height="4" fill="#c47840"></rect><rect x="320" y="152" width="64" height="4" fill="#d98a5a"></rect><rect x="0" y="156" width="8" height="4" fill="#d98a5a"></rect><rect x="8" y="156" width="8" height="4" fill="#2e3543"></rect><rect x="16" y="156" width="28" height="4" fill="#3a4254"></rect><rect x="44" y="156" width="4" height="4" fill="#9aa0ad"></rect><rect x="48" y="156" width="12" height="4" fill="#1f242f"></rect><rect x="60" y="156" width="4" height="4" fill="#9aa0ad"></rect><rect x="64" y="156" width="16" height="4" fill="#1f242f"></rect><rect x="80" y="156" width="4" height="4" fill="#9aa0ad"></rect><rect x="84" y="156" width="24" height="4" fill="#3a4254"></rect><rect x="108" y="156" width="8" height="4" fill="#262c38"></rect><rect x="116" y="156" width="76" height="4" fill="#d98a5a"></rect><rect x="192" y="156" width="24" height="4" fill="#5a3820"></rect><rect x="216" y="156" width="12" height="4" fill="#283a5a"></rect><rect x="228" y="156" width="20" height="4" fill="#d98a5a"></rect><rect x="248" y="156" width="12" height="4" fill="#34466b"></rect><rect x="260" y="156" width="4" height="4" fill="#c47840"></rect><rect x="264" y="156" width="52" height="4" fill="#e8a85c"></rect><rect x="316" y="156" width="4" height="4" fill="#c47840"></rect><rect x="320" y="156" width="64" height="4" fill="#d98a5a"></rect><rect x="0" y="160" width="8" height="4" fill="#d98a5a"></rect><rect x="8" y="160" width="8" height="4" fill="#2e3543"></rect><rect x="16" y="160" width="28" height="4" fill="#3a4254"></rect><rect x="44" y="160" width="4" height="4" fill="#9aa0ad"></rect><rect x="48" y="160" width="12" height="4" fill="#1f242f"></rect><rect x="60" y="160" width="4" height="4" fill="#9aa0ad"></rect><rect x="64" y="160" width="16" height="4" fill="#1f242f"></rect><rect x="80" y="160" width="4" height="4" fill="#9aa0ad"></rect><rect x="84" y="160" width="24" height="4" fill="#3a4254"></rect><rect x="108" y="160" width="8" height="4" fill="#262c38"></rect><rect x="116" y="160" width="76" height="4" fill="#d98a5a"></rect><rect x="192" y="160" width="24" height="4" fill="#5a3820"></rect><rect x="216" y="160" width="12" height="4" fill="#283a5a"></rect><rect x="228" y="160" width="24" height="4" fill="#d98a5a"></rect><rect x="252" y="160" width="16" height="4" fill="#1d1f2e"></rect><rect x="268" y="160" width="116" height="4" fill="#d98a5a"></rect><rect x="0" y="164" width="8" height="4" fill="#d98a5a"></rect><rect x="8" y="164" width="8" height="4" fill="#2e3543"></rect><rect x="16" y="164" width="28" height="4" fill="#3a4254"></rect><rect x="44" y="164" width="4" height="4" fill="#9aa0ad"></rect><rect x="48" y="164" width="12" height="4" fill="#1f242f"></rect><rect x="60" y="164" width="4" height="4" fill="#9aa0ad"></rect><rect x="64" y="164" width="16" height="4" fill="#1f242f"></rect><rect x="80" y="164" width="4" height="4" fill="#9aa0ad"></rect><rect x="84" y="164" width="24" height="4" fill="#3a4254"></rect><rect x="108" y="164" width="8" height="4" fill="#262c38"></rect><rect x="116" y="164" width="96" height="4" fill="#d98a5a"></rect><rect x="212" y="164" width="16" height="4" fill="#1d1f2e"></rect><rect x="228" y="164" width="24" height="4" fill="#d98a5a"></rect><rect x="252" y="164" width="16" height="4" fill="#1d1f2e"></rect><rect x="268" y="164" width="48" height="4" fill="#e8a85c"></rect><rect x="316" y="164" width="4" height="4" fill="#c47840"></rect><rect x="320" y="164" width="64" height="4" fill="#d98a5a"></rect><rect x="0" y="168" width="212" height="4" fill="#3a3346"></rect><rect x="212" y="168" width="16" height="4" fill="#1d1f2e"></rect><rect x="228" y="168" width="156" height="4" fill="#3a3346"></rect><rect x="0" y="172" width="200" height="4" fill="#3a3346"></rect><rect x="200" y="172" width="68" height="4" fill="#2e2838"></rect><rect x="268" y="172" width="116" height="4" fill="#3a3346"></rect><rect x="0" y="176" width="200" height="4" fill="#4a4256"></rect><rect x="200" y="176" width="68" height="4" fill="#2e2838"></rect><rect x="268" y="176" width="116" height="4" fill="#4a4256"></rect><rect x="0" y="180" width="212" height="4" fill="#4a4256"></rect><rect x="212" y="180" width="44" height="4" fill="#2e2838"></rect><rect x="256" y="180" width="128" height="4" fill="#4a4256"></rect><rect x="0" y="184" width="384" height="4" fill="#4a4256"></rect><rect x="0" y="188" width="384" height="4" fill="#4a4256"></rect><rect x="0" y="192" width="384" height="4" fill="#4a4256"></rect><rect x="0" y="196" width="384" height="4" fill="#4a4256"></rect><rect x="0" y="200" width="384" height="4" fill="#4a4256"></rect><rect x="0" y="204" width="384" height="4" fill="#4a4256"></rect><rect x="0" y="208" width="384" height="4" fill="#4a4256"></rect><rect x="0" y="212" width="384" height="4" fill="#4a4256"></rect>
</svg>