<svg xmlns="http://www.w3.org/2000/svg" viewBox="0 0 384 216" width="384" height="216" shape-rendering="crispEdges" role="img" aria-label="칼퇴 성공(여성) — 환한 오후 퇴근">
<rect x="0" y="0" width="384" height="4" fill="#bfe3ff"></rect><rect x="0" y="4" width="384" height="4" fill="#bfe3ff"></rect><rect x="0" y="8" width="384" height="4" fill="#bfe3ff"></rect><rect x="0" y="12" width="80" height="4" fill="#bfe3ff"></rect><rect x="80" y="12" width="4" height="4" fill="#ffe267"></rect><rect x="84" y="12" width="300" height="4" fill="#bfe3ff"></rect><rect x="0" y="16" width="168" height="4" fill="#bfe3ff"></rect><rect x="168" y="16" width="16" height="4" fill="#4a3826"></rect><rect x="184" y="16" width="8" height="4" fill="#3d8bff"></rect><rect x="192" y="16" width="32" height="4" fill="#4a3826"></rect><rect x="224" y="16" width="160" height="4" fill="#bfe3ff"></rect><rect x="0" y="20" width="136" height="4" fill="#bfe3ff"></rect><rect x="136" y="20" width="8" height="4" fill="#3d8bff"></rect><rect x="144" y="20" width="24" height="4" fill="#bfe3ff"></rect><rect x="168" y="20" width="16" height="4" fill="#4a3826"></rect><rect x="184" y="20" width="8" height="4" fill="#3d8bff"></rect><rect x="192" y="20" width="32" height="4" fill="#4a3826"></rect><rect x="224" y="20" width="32" height="4" fill="#bfe3ff"></rect><rect x="256" y="20" width="8" height="4" fill="#ffd23f"></rect><rect x="264" y="20" width="120" height="4" fill="#bfe3ff"></rect><rect x="0" y="24" width="52" height="4" fill="#bfe3ff"></rect><rect x="52" y="24" width="4" height="4" fill="#ffe267"></rect><rect x="56" y="24" width="16" height="4" fill="#bfe3ff"></rect><rect x="72" y="24" width="20" height="4" fill="#ffe267"></rect><rect x="92" y="24" width="16" height="4" fill="#bfe3ff"></rect><rect x="108" y="24" width="4" height="4" fill="#ffe267"></rect><rect x="112" y="24" width="24" height="4" fill="#bfe3ff"></rect><rect x="136" y="24" width="8" height="4" fill="#3d8bff"></rect><rect x="144" y="24" width="24" height="4" fill="#bfe3ff"></rect><rect x="168" y="24" width="48" height="4" fill="#4a3826"></rect><rect x="216" y="24" width="4" height="4" fill="#ff7bd5"></rect><rect x="220" y="24" width="4" height="4" fill="#4a3826"></rect><rect x="224" y="24" width="32" height="4" fill="#bfe3ff"></rect><rect x="256" y="24" width="8" height="4" fill="#ffd23f"></rect><rect x="264" y="24" width="48" height="4" fill="#bfe3ff"></rect><rect x="312" y="24" width="8" height="4" fill="#ff7bd5"></rect><rect x="320" y="24" width="64" height="4" fill="#bfe3ff"></rect><rect x="0" y="28" width="64" height="4" fill="#bfe3ff"></rect><rect x="64" y="28" width="8" height="4" fill="#ffe267"></rect><rect x="72" y="28" width="20" height="4" fill="#fff6cf"></rect><rect x="92" y="28" width="8" height="4" fill="#ffe267"></rect><rect x="100" y="28" width="4" height="4" fill="#bfe3ff"></rect><rect x="104" y="28" width="8" height="4" fill="#e5383b"></rect><rect x="112" y="28" width="40" height="4" fill="#bfe3ff"></rect><rect x="152" y="28" width="16" height="4" fill="#ffffff"></rect><rect x="168" y="28" width="8" height="4" fill="#4a3826"></rect><rect x="176" y="28" width="44" height="4" fill="#3a2a1a"></rect><rect x="220" y="28" width="4" height="4" fill="#ff7bd5"></rect><rect x="224" y="28" width="88" height="4" fill="#bfe3ff"></rect><rect x="312" y="28" width="8" height="4" fill="#ff7bd5"></rect><rect x="320" y="28" width="64" height="4" fill="#bfe3ff"></rect><rect x="0" y="32" width="60" height="4" fill="#bfe3ff"></rect><rect x="60" y="32" width="4" height="4" fill="#ffe267"></rect><rect x="64" y="32" width="36" height="4" fill="#fff6cf"></rect><rect x="100" y="32" width="4" height="4" fill="#ffe267"></rect><rect x="104" y="32" width="8" height="4" fill="#e5383b"></rect><rect x="112" y="32" width="40" height="4" fill="#bfe3ff"></rect><rect x="152" y="32" width="16" height="4" fill="#ffffff"></rect><rect x="168" y="32" width="8" height="4" fill="#4a3826"></rect><rect x="176" y="32" width="48" height="4" fill="#3a2a1a"></rect><rect x="224" y="32" width="56" height="4" fill="#bfe3ff"></rect><rect x="280" y="32" width="8" height="4" fill="#3fc24a"></rect><rect x="288" y="32" width="96" height="4" fill="#bfe3ff"></rect><rect x="0" y="36" width="56" height="4" fill="#a9d6ff"></rect><rect x="56" y="36" width="8" height="4" fill="#ffe267"></rect><rect x="64" y="36" width="36" height="4" fill="#fff6cf"></rect><rect x="100" y="36" width="8" height="4" fill="#ffe267"></rect><rect x="108" y="36" width="52" height="4" fill="#a9d6ff"></rect><rect x="160" y="36" width="8" height="4" fill="#ffffff"></rect><rect x="168" y="36" width="8" height="4" fill="#4a3826"></rect><rect x="176" y="36" width="48" height="4" fill="#3a2a1a"></rect><rect x="224" y="36" width="56" height="4" fill="#a9d6ff"></rect><rect x="280" y="36" width="8" height="4" fill="#3fc24a"></rect><rect x="288" y="36" width="96" height="4" fill="#a9d6ff"></rect><rect x="0" y="40" width="56" height="4" fill="#a9d6ff"></rect><rect x="56" y="40" width="4" height="4" fill="#ffe267"></rect><rect x="60" y="40" width="44" height="4" fill="#fff6cf"></rect><rect x="104" y="40" width="4" height="4" fill="#ffe267"></rect><rect x="108" y="40" width="52" height="4" fill="#a9d6ff"></rect><rect x="160" y="40" width="8" height="4" fill="#ffd23f"></rect><rect x="168" y="40" width="8" height="4" fill="#4a3826"></rect><rect x="176" y="40" width="48" height="4" fill="#3a2a1a"></rect><rect x="224" y="40" width="8" height="4" fill="#a9d6ff"></rect><rect x="232" y="40" width="8" height="4" fill="#ffffff"></rect><rect x="240" y="40" width="4" height="4" fill="#3d8bff"></rect><rect x="244" y="40" width="36" height="4" fill="#ffffff"></rect><rect x="280" y="40" width="104" height="4" fill="#a9d6ff"></rect><rect x="0" y="44" width="52" height="4" fill="#a9d6ff"></rect><rect x="52" y="44" width="4" height="4" fill="#ffe267"></rect><rect x="56" y="44" width="52" height="4" fill="#fff6cf"></rect><rect x="108" y="44" width="4" height="4" fill="#ffe267"></rect><rect x="112" y="44" width="8" height="4" fill="#a9d6ff"></rect><rect x="120" y="44" width="4" height="4" fill="#3fc24a"></rect><rect x="124" y="44" width="36" height="4" fill="#a9d6ff"></rect><rect x="160" y="44" width="8" height="4" fill="#ffd23f"></rect><rect x="168" y="44" width="8" height="4" fill="#4a3826"></rect><rect x="176" y="44" width="48" height="4" fill="#3a2a1a"></rect><rect x="224" y="44" width="8" height="4" fill="#a9d6ff"></rect><rect x="232" y="44" width="12" height="4" fill="#ffffff"></rect><rect x="244" y="44" width="4" height="4" fill="#3d8bff"></rect><rect x="248" y="44" width="32" height="4" fill="#ffffff"></rect><rect x="280" y="44" width="56" height="4" fill="#a9d6ff"></rect><rect x="336" y="44" width="8" height="4" fill="#e5383b"></rect><rect x="344" y="44" width="40" height="4" fill="#a9d6ff"></rect><rect x="0" y="48" width="52" height="4" fill="#a9d6ff"></rect><rect x="52" y="48" width="4" height="4" fill="#ffe267"></rect><rect x="56" y="48" width="52" height="4" fill="#fff6cf"></rect><rect x="108" y="48" width="4" height="4" fill="#ffe267"></rect><rect x="112" y="48" width="12" height="4" fill="#a9d6ff"></rect><rect x="124" y="48" width="4" height="4" fill="#3fc24a"></rect><rect x="128" y="48" width="40" height="4" fill="#a9d6ff"></rect><rect x="168" y="48" width="8" height="4" fill="#4a3826"></rect><rect x="176" y="48" width="48" height="4" fill="#3a2a1a"></rect><rect x="224" y="48" width="68" height="4" fill="#ffffff"></rect><rect x="292" y="48" width="44" height="4" fill="#a9d6ff"></rect><rect x="336" y="48" width="8" height="4" fill="#e5383b"></rect><rect x="344" y="48" width="40" height="4" fill="#a9d6ff"></rect><rect x="0" y="52" width="40" height="4" fill="#a9d6ff"></rect><rect x="40" y="52" width="4" height="4" fill="#ffe267"></rect><rect x="44" y="52" width="8" height="4" fill="#a9d6ff"></rect><rect x="52" y="52" width="4" height="4" fill="#ffe267"></rect><rect x="56" y="52" width="52" height="4" fill="#fff6cf"></rect><rect x="108" y="52" width="4" height="4" fill="#ffe267"></rect><rect x="112" y="52" width="8" height="4" fill="#a9d6ff"></rect><rect x="120" y="52" width="4" height="4" fill="#ffe267"></rect><rect x="124" y="52" width="44" height="4" fill="#a9d6ff"></rect><rect x="168" y="52" width="8" height="4" fill="#4a3826"></rect><rect x="176" y="52" width="48" height="4" fill="#3a2a1a"></rect><rect x="224" y="52" width="68" height="4" fill="#ffffff"></rect><rect x="292" y="52" width="4" height="4" fill="#a9d6ff"></rect><rect x="296" y="52" width="4" height="4" fill="#e5383b"></rect><rect x="300" y="52" width="84" height="4" fill="#a9d6ff"></rect><rect x="0" y="56" width="52" height="4" fill="#a9d6ff"></rect><rect x="52" y="56" width="4" height="4" fill="#ffe267"></rect><rect x="56" y="56" width="52" height="4" fill="#fff6cf"></rect><rect x="108" y="56" width="4" height="4" fill="#ffe267"></rect><rect x="112" y="56" width="56" height="4" fill="#a9d6ff"></rect><rect x="168" y="56" width="8" height="4" fill="#4a3826"></rect><rect x="176" y="56" width="48" height="4" fill="#3a2a1a"></rect><rect x="224" y="56" width="68" height="4" fill="#ffffff"></rect><rect x="292" y="56" width="8" height="4" fill="#a9d6ff"></rect><rect x="300" y="56" width="4" height="4" fill="#e5383b"></rect><rect x="304" y="56" width="80" height="4" fill="#a9d6ff"></rect><rect x="0" y="60" width="52" height="4" fill="#a9d6ff"></rect><rect x="52" y="60" width="4" height="4" fill="#ffe267"></rect><rect x="56" y="60" width="52" height="4" fill="#fff6cf"></rect><rect x="108" y="60" width="4" height="4" fill="#ffe267"></rect><rect x="112" y="60" width="56" height="4" fill="#a9d6ff"></rect><rect x="168" y="60" width="8" height="4" fill="#4a3826"></rect><rect x="176" y="60" width="48" height="4" fill="#3a2a1a"></rect><rect x="224" y="60" width="16" height="4" fill="#a9d6ff"></rect><rect x="240" y="60" width="48" height="4" fill="#ffffff"></rect><rect x="288" y="60" width="96" height="4" fill="#a9d6ff"></rect><rect x="0" y="64" width="56" height="4" fill="#a9d6ff"></rect><rect x="56" y="64" width="4" height="4" fill="#ffe267"></rect><rect x="60" y="64" width="44" height="4" fill="#fff6cf"></rect><rect x="104" y="64" width="4" height="4" fill="#ffe267"></rect><rect x="108" y="64" width="60" height="4" fill="#a9d6ff"></rect><rect x="168" y="64" width="8" height="4" fill="#4a3826"></rect><rect x="176" y="64" width="48" height="4" fill="#3a2a1a"></rect><rect x="224" y="64" width="160" height="4" fill="#a9d6ff"></rect><rect x="0" y="68" width="56" height="4" fill="#a9d6ff"></rect><rect x="56" y="68" width="8" height="4" fill="#ffe267"></rect><rect x="64" y="68" width="36" height="4" fill="#fff6cf"></rect><rect x="100" y="68" width="8" height="4" fill="#ffe267"></rect><rect x="108" y="68" width="60" height="4" fill="#a9d6ff"></rect><rect x="168" y="68" width="8" height="4" fill="#4a3826"></rect><rect x="176" y="68" width="8" height="4" fill="#9c5a78"></rect><rect x="184" y="68" width="24" height="4" fill="#fdfcf2"></rect><rect x="208" y="68" width="8" height="4" fill="#9c5a78"></rect><rect x="216" y="68" width="8" height="4" fill="#3a2a1a"></rect><rect x="224" y="68" width="160" height="4" fill="#a9d6ff"></rect><rect x="0" y="72" width="60" height="4" fill="#c7e6ff"></rect><rect x="60" y="72" width="4" height="4" fill="#ffe267"></rect><rect x="64" y="72" width="36" height="4" fill="#fff6cf"></rect><rect x="100" y="72" width="4" height="4" fill="#ffe267"></rect><rect x="104" y="72" width="64" height="4" fill="#c7e6ff"></rect><rect x="168" y="72" width="8" height="4" fill="#4a3826"></rect><rect x="176" y="72" width="40" height="4" fill="#9c5a78"></rect><rect x="216" y="72" width="8" height="4" fill="#3a2a1a"></rect><rect x="224" y="72" width="160" height="4" fill="#c7e6ff"></rect><rect x="0" y="76" width="64" height="4" fill="#c7e6ff"></rect><rect x="64" y="76" width="8" height="4" fill="#ffe267"></rect><rect x="72" y="76" width="20" height="4" fill="#fff6cf"></rect><rect x="92" y="76" width="8" height="4" fill="#ffe267"></rect><rect x="100" y="76" width="68" height="4" fill="#c7e6ff"></rect><rect x="168" y="76" width="56" height="4" fill="#9c5a78"></rect><rect x="224" y="76" width="160" height="4" fill="#c7e6ff"></rect><rect x="0" y="80" width="52" height="4" fill="#c7e6ff"></rect><rect x="52" y="80" width="4" height="4" fill="#ffe267"></rect><rect x="56" y="80" width="16" height="4" fill="#c7e6ff"></rect><rect x="72" y="80" width="20" height="4" fill="#ffe267"></rect><rect x="92" y="80" width="16" height="4" fill="#c7e6ff"></rect><rect x="108" y="80" width="4" height="4" fill="#ffe267"></rect><rect x="112" y="80" width="56" height="4" fill="#c7e6ff"></rect><rect x="168" y="80" width="8" height="4" fill="#7e445e"></rect><rect x="176" y="80" width="40" height="4" fill="#9c5a78"></rect><rect x="216" y="80" width="8" height="4" fill="#7e445e"></rect><rect x="224" y="80" width="88" height="4" fill="#c7e6ff"></rect><rect x="312" y="80" width="36" height="4" fill="#ffffff"></rect><rect x="348" y="80" width="36" height="4" fill="#c7e6ff"></rect><rect x="0" y="84" width="160" height="4" fill="#c7e6ff"></rect><rect x="160" y="84" width="12" height="4" fill="#9c5a78"></rect><rect x="172" y="84" width="4" height="4" fill="#7e445e"></rect><rect x="176" y="84" width="40" height="4" fill="#9c5a78"></rect><rect x="216" y="84" width="4" height="4" fill="#7e445e"></rect><rect x="220" y="84" width="12" height="4" fill="#9c5a78"></rect><rect x="232" y="84" width="80" height="4" fill="#c7e6ff"></rect><rect x="312" y="84" width="36" height="4" fill="#ffffff"></rect><rect x="348" y="84" width="36" height="4" fill="#c7e6ff"></rect><rect x="0" y="88" width="160" height="4" fill="#c7e6ff"></rect><rect x="160" y="88" width="12" height="4" fill="#9c5a78"></rect><rect x="172" y="88" width="4" height="4" fill="#7e445e"></rect><rect x="176" y="88" width="40" height="4" fill="#9c5a78"></rect><rect x="216" y="88" width="4" height="4" fill="#7e445e"></rect><rect x="220" y="88" width="12" height="4" fill="#9c5a78"></rect><rect x="232" y="88" width="88" height="4" fill="#c7e6ff"></rect><rect x="320" y="88" width="28" height="4" fill="#ffffff"></rect><rect x="348" y="88" width="36" height="4" fill="#c7e6ff"></rect><rect x="0" y="92" width="80" height="4" fill="#c7e6ff"></rect><rect x="80" y="92" width="4" height="4" fill="#ffe267"></rect><rect x="84" y="92" width="76" height="4" fill="#c7e6ff"></rect><rect x="160" y="92" width="12" height="4" fill="#9c5a78"></rect><rect x="172" y="92" width="4" height="4" fill="#7e445e"></rect><rect x="176" y="92" width="40" height="4" fill="#9c5a78"></rect><rect x="216" y="92" width="4" height="4" fill="#7e445e"></rect><rect x="220" y="92" width="12" height="4" fill="#9c5a78"></rect><rect x="232" y="92" width="88" height="4" fill="#c7e6ff"></rect><rect x="320" y="92" width="28" height="4" fill="#ffffff"></rect><rect x="348" y="92" width="36" height="4" fill="#c7e6ff"></rect><rect x="0" y="96" width="160" height="4" fill="#c7e6ff"></rect><rect x="160" y="96" width="12" height="4" fill="#9c5a78"></rect><rect x="172" y="96" width="4" height="4" fill="#7e445e"></rect><rect x="176" y="96" width="40" height="4" fill="#9c5a78"></rect><rect x="216" y="96" width="4" height="4" fill="#7e445e"></rect><rect x="220" y="96" width="12" height="4" fill="#9c5a78"></rect><rect x="232" y="96" width="152" height="4" fill="#c7e6ff"></rect><rect x="0" y="100" width="160" height="4" fill="#c7e6ff"></rect><rect x="160" y="100" width="12" height="4" fill="#9c5a78"></rect><rect x="172" y="100" width="4" height="4" fill="#7e445e"></rect><rect x="176" y="100" width="40" height="4" fill="#9c5a78"></rect><rect x="216" y="100" width="4" height="4" fill="#7e445e"></rect><rect x="220" y="100" width="12" height="4" fill="#9c5a78"></rect><rect x="232" y="100" width="152" height="4" fill="#c7e6ff"></rect><rect x="0" y="104" width="160" height="4" fill="#c7e6ff"></rect><rect x="160" y="104" width="12" height="4" fill="#9c5a78"></rect><rect x="172" y="104" width="4" height="4" fill="#7e445e"></rect><rect x="176" y="104" width="40" height="4" fill="#9c5a78"></rect><rect x="216" y="104" width="4" height="4" fill="#7e445e"></rect><rect x="220" y="104" width="12" height="4" fill="#9c5a78"></rect><rect x="232" y="104" width="152" height="4" fill="#c7e6ff"></rect><rect x="0" y="108" width="160" height="4" fill="#e2f2ff"></rect><rect x="160" y="108" width="12" height="4" fill="#9c5a78"></rect><rect x="172" y="108" width="4" height="4" fill="#7e445e"></rect><rect x="176" y="108" width="40" height="4" fill="#9c5a78"></rect><rect x="216" y="108" width="4" height="4" fill="#7e445e"></rect><rect x="220" y="108" width="12" height="4" fill="#9c5a78"></rect><rect x="232" y="108" width="152" height="4" fill="#e2f2ff"></rect><rect x="0" y="112" width="160" height="4" fill="#e2f2ff"></rect><rect x="160" y="112" width="12" height="4" fill="#9c5a78"></rect><rect x="172" y="112" width="4" height="4" fill="#7e445e"></rect><rect x="176" y="112" width="40" height="4" fill="#9c5a78"></rect><rect x="216" y="112" width="4" height="4" fill="#7e445e"></rect><rect x="220" y="112" width="12" height="4" fill="#9c5a78"></rect><rect x="232" y="112" width="152" height="4" fill="#e2f2ff"></rect><rect x="0" y="116" width="160" height="4" fill="#e2f2ff"></rect><rect x="160" y="116" width="12" height="4" fill="#9c5a78"></rect><rect x="172" y="116" width="4" height="4" fill="#7e445e"></rect><rect x="176" y="116" width="40" height="4" fill="#9c5a78"></rect><rect x="216" y="116" width="4" height="4" fill="#7e445e"></rect><rect x="220" y="116" width="12" height="4" fill="#9c5a78"></rect><rect x="232" y="116" width="152" height="4" fill="#e2f2ff"></rect><rect x="0" y="120" width="160" height="4" fill="#e2f2ff"></rect><rect x="160" y="120" width="72" height="4" fill="#9c5a78"></rect><rect x="232" y="120" width="152" height="4" fill="#e2f2ff"></rect><rect x="0" y="124" width="160" height="4" fill="#e2f2ff"></rect><rect x="160" y="124" width="12" height="4" fill="#1d1f2e"></rect><rect x="172" y="124" width="60" height="4" fill="#9c5a78"></rect><rect x="232" y="124" width="152" height="4" fill="#e2f2ff"></rect><rect x="0" y="128" width="160" height="4" fill="#e2f2ff"></rect><rect x="160" y="128" width="12" height="4" fill="#1d1f2e"></rect><rect x="172" y="128" width="60" height="4" fill="#9c5a78"></rect><rect x="232" y="128" width="152" height="4" fill="#e2f2ff"></rect><rect x="0" y="132" width="160" height="4" fill="#e2f2ff"></rect><rect x="160" y="132" width="12" height="4" fill="#1d1f2e"></rect><rect x="172" y="132" width="48" height="4" fill="#9c5a78"></rect><rect x="220" y="132" width="12" height="4" fill="#f0c8a0"></rect><rect x="232" y="132" width="152" height="4" fill="#e2f2ff"></rect><rect x="0" y="136" width="152" height="4" fill="#e2f2ff"></rect><rect x="152" y="136" width="28" height="4" fill="#553318"></rect><rect x="180" y="136" width="40" height="4" fill="#9c5a78"></rect><rect x="220" y="136" width="12" height="4" fill="#f0c8a0"></rect><rect x="232" y="136" width="152" height="4" fill="#e2f2ff"></rect><rect x="0" y="140" width="152" height="4" fill="#f2faff"></rect><rect x="152" y="140" width="28" height="4" fill="#553318"></rect><rect x="180" y="140" width="40" height="4" fill="#7e445e"></rect><rect x="220" y="140" width="12" height="4" fill="#f0c8a0"></rect><rect x="232" y="140" width="152" height="4" fill="#f2faff"></rect><rect x="0" y="144" width="152" height="4" fill="#f2faff"></rect><rect x="152" y="144" width="28" height="4" fill="#6e4528"></rect><rect x="180" y="144" width="48" height="4" fill="#9c5a78"></rect><rect x="228" y="144" width="156" height="4" fill="#f2faff"></rect><rect x="0" y="148" width="152" height="4" fill="#f2faff"></rect><rect x="152" y="148" width="28" height="4" fill="#6e4528"></rect><rect x="180" y="148" width="12" height="4" fill="#e0a87f"></rect><rect x="192" y="148" width="8" height="4" fill="#f2faff"></rect><rect x="200" y="148" width="12" height="4" fill="#e0a87f"></rect><rect x="212" y="148" width="172" height="4" fill="#f2faff"></rect><rect x="0" y="152" width="152" height="4" fill="#f2faff"></rect><rect x="152" y="152" width="28" height="4" fill="#553318"></rect><rect x="180" y="152" width="12" height="4" fill="#e0a87f"></rect><rect x="192" y="152" width="8" height="4" fill="#f2faff"></rect><rect x="200" y="152" width="12" height="4" fill="#e0a87f"></rect><rect x="212" y="152" width="172" height="4" fill="#f2faff"></rect><rect x="0" y="156" width="152" height="4" fill="#f2faff"></rect><rect x="152" y="156" width="28" height="4" fill="#6e4528"></rect><rect x="180" y="156" width="12" height="4" fill="#e0a87f"></rect><rect x="192" y="156" width="8" height="4" fill="#f2faff"></rect><rect x="200" y="156" width="12" height="4" fill="#e0a87f"></rect><rect x="212" y="156" width="172" height="4" fill="#f2faff"></rect><rect x="0" y="160" width="152" height="4" fill="#f2faff"></rect><rect x="152" y="160" width="28" height="4" fill="#6e4528"></rect><rect x="180" y="160" width="12" height="4" fill="#e0a87f"></rect><rect x="192" y="160" width="8" height="4" fill="#f2faff"></rect><rect x="200" y="160" width="12" height="4" fill="#e0a87f"></rect><rect x="212" y="160" width="172" height="4" fill="#f2faff"></rect><rect x="0" y="164" width="152" height="4" fill="#f2faff"></rect><rect x="152" y="164" width="28" height="4" fill="#6e4528"></rect><rect x="180" y="164" width="12" height="4" fill="#1d1f2e"></rect><rect x="192" y="164" width="8" height="4" fill="#f2faff"></rect><rect x="200" y="164" width="12" height="4" fill="#e0a87f"></rect><rect x="212" y="164" width="172" height="4" fill="#f2faff"></rect><rect x="0" y="168" width="152" height="4" fill="#7ec86a"></rect><rect x="152" y="168" width="28" height="4" fill="#6e4528"></rect><rect x="180" y="168" width="12" height="4" fill="#1d1f2e"></rect><rect x="192" y="168" width="8" height="4" fill="#7ec86a"></rect><rect x="200" y="168" width="16" height="4" fill="#1d1f2e"></rect><rect x="216" y="168" width="168" height="4" fill="#7ec86a"></rect><rect x="0" y="172" width="200" height="4" fill="#7ec86a"></rect><rect x="200" y="172" width="16" height="4" fill="#1d1f2e"></rect><rect x="216" y="172" width="168" height="4" fill="#7ec86a"></rect><rect x="0" y="176" width="164" height="4" fill="#5fae4e"></rect><rect x="164" y="176" width="60" height="4" fill="#a86a38"></rect><rect x="224" y="176" width="160" height="4" fill="#5fae4e"></rect><rect x="0" y="180" width="160" height="4" fill="#c98a52"></rect><rect x="160" y="180" width="60" height="4" fill="#a86a38"></rect><rect x="220" y="180" width="164" height="4" fill="#c98a52"></rect><rect x="0" y="184" width="152" height="4" fill="#c98a52"></rect><rect x="152" y="184" width="60" height="4" fill="#a86a38"></rect><rect x="212" y="184" width="172" height="4" fill="#c98a52"></rect><rect x="0" y="188" width="152" height="4" fill="#c98a52"></rect><rect x="152" y="188" width="56" height="4" fill="#a86a38"></rect><rect x="208" y="188" width="176" height="4" fill="#c98a52"></rect><rect x="0" y="192" width="384" height="4" fill="#c98a52"></rect><rect x="0" y="196" width="384" height="4" fill="#c98a52"></rect><rect x="0" y="200" width="384" height="4" fill="#c98a52"></rect><rect x="0" y="204" width="384" height="4" fill="#c98a52"></rect><rect x="0" y="208" width="384" height="4" fill="#c98a52"></rect><rect x="0" y="212" width="384" height="4" fill="#c98a52"></rect>
</svg>