<svg xmlns="http://www.w3.org/2000/svg" viewBox="0 0 384 216" width="384" height="216" shape-rendering="crispEdges" role="img" aria-label="당일퇴사(남성) — 밝은 사무실, 모니터로 사직서 제출 후 짐 상자 들고 나가는 뒷모습">
<rect x="0" y="0" width="384" height="4" fill="#eef3f9"></rect><rect x="0" y="4" width="384" height="4" fill="#eef3f9"></rect><rect x="0" y="8" width="384" height="4" fill="#dfe7f2"></rect><rect x="0" y="12" width="276" height="4" fill="#dfe7f2"></rect><rect x="276" y="12" width="96" height="4" fill="#9fb0c4"></rect><rect x="372" y="12" width="12" height="4" fill="#dfe7f2"></rect><rect x="0" y="16" width="276" height="4" fill="#dfe7f2"></rect><rect x="276" y="16" width="4" height="4" fill="#9fb0c4"></rect><rect x="280" y="16" width="44" height="4" fill="#bfe0ff"></rect><rect x="324" y="16" width="4" height="4" fill="#9fb0c4"></rect><rect x="328" y="16" width="40" height="4" fill="#bfe0ff"></rect><rect x="368" y="16" width="4" height="4" fill="#9fb0c4"></rect><rect x="372" y="16" width="12" height="4" fill="#dfe7f2"></rect><rect x="0" y="20" width="276" height="4" fill="#dfe7f2"></rect><rect x="276" y="20" width="4" height="4" fill="#9fb0c4"></rect><rect x="280" y="20" width="44" height="4" fill="#bfe0ff"></rect><rect x="324" y="20" width="4" height="4" fill="#9fb0c4"></rect><rect x="328" y="20" width="40" height="4" fill="#bfe0ff"></rect><rect x="368" y="20" width="4" height="4" fill="#9fb0c4"></rect><rect x="372" y="20" width="12" height="4" fill="#dfe7f2"></rect><rect x="0" y="24" width="276" height="4" fill="#dfe7f2"></rect><rect x="276" y="24" width="4" height="4" fill="#9fb0c4"></rect><rect x="280" y="24" width="20" height="4" fill="#bfe0ff"></rect><rect x="300" y="24" width="4" height="4" fill="#fff4d0"></rect><rect x="304" y="24" width="20" height="4" fill="#bfe0ff"></rect><rect x="324" y="24" width="4" height="4" fill="#9fb0c4"></rect><rect x="328" y="24" width="40" height="4" fill="#bfe0ff"></rect><rect x="368" y="24" width="4" height="4" fill="#9fb0c4"></rect><rect x="372" y="24" width="12" height="4" fill="#dfe7f2"></rect><rect x="0" y="28" width="276" height="4" fill="#dfe7f2"></rect><rect x="276" y="28" width="4" height="4" fill="#9fb0c4"></rect><rect x="280" y="28" width="12" height="4" fill="#bfe0ff"></rect><rect x="292" y="28" width="20" height="4" fill="#fff4d0"></rect><rect x="312" y="28" width="12" height="4" fill="#bfe0ff"></rect><rect x="324" y="28" width="4" height="4" fill="#9fb0c4"></rect><rect x="328" y="28" width="40" height="4" fill="#bfe0ff"></rect><rect x="368" y="28" width="4" height="4" fill="#9fb0c4"></rect><rect x="372" y="28" width="12" height="4" fill="#dfe7f2"></rect><rect x="0" y="32" width="276" height="4" fill="#dfe7f2"></rect><rect x="276" y="32" width="4" height="4" fill="#9fb0c4"></rect><rect x="280" y="32" width="12" height="4" fill="#bfe0ff"></rect><rect x="292" y="32" width="20" height="4" fill="#fff4d0"></rect><rect x="312" y="32" width="12" height="4" fill="#bfe0ff"></rect><rect x="324" y="32" width="4" height="4" fill="#9fb0c4"></rect><rect x="328" y="32" width="40" height="4" fill="#bfe0ff"></rect><rect x="368" y="32" width="4" height="4" fill="#9fb0c4"></rect><rect x="372" y="32" width="12" height="4" fill="#dfe7f2"></rect><rect x="0" y="36" width="276" height="4" fill="#dfe7f2"></rect><rect x="276" y="36" width="4" height="4" fill="#9fb0c4"></rect><rect x="280" y="36" width="8" height="4" fill="#bfe0ff"></rect><rect x="288" y="36" width="28" height="4" fill="#fff4d0"></rect><rect x="316" y="36" width="8" height="4" fill="#bfe0ff"></rect><rect x="324" y="36" width="4" height="4" fill="#9fb0c4"></rect><rect x="328" y="36" width="40" height="4" fill="#bfe0ff"></rect><rect x="368" y="36" width="4" height="4" fill="#9fb0c4"></rect><rect x="372" y="36" width="12" height="4" fill="#dfe7f2"></rect><rect x="0" y="40" width="24" height="4" fill="#dfe7f2"></rect><rect x="24" y="40" width="128" height="4" fill="#0e1018"></rect><rect x="152" y="40" width="124" height="4" fill="#dfe7f2"></rect><rect x="276" y="40" width="4" height="4" fill="#9fb0c4"></rect><rect x="280" y="40" width="12" height="4" fill="#bfe0ff"></rect><rect x="292" y="40" width="20" height="4" fill="#fff4d0"></rect><rect x="312" y="40" width="12" height="4" fill="#bfe0ff"></rect><rect x="324" y="40" width="4" height="4" fill="#9fb0c4"></rect><rect x="328" y="40" width="40" height="4" fill="#bfe0ff"></rect><rect x="368" y="40" width="4" height="4" fill="#9fb0c4"></rect><rect x="372" y="40" width="12" height="4" fill="#dfe7f2"></rect><rect x="0" y="44" width="24" height="4" fill="#dfe7f2"></rect><rect x="24" y="44" width="4" height="4" fill="#1a1d28"></rect><rect x="28" y="44" width="120" height="4" fill="#3a6ea5"></rect><rect x="148" y="44" width="4" height="4" fill="#1a1d28"></rect><rect x="152" y="44" width="124" height="4" fill="#dfe7f2"></rect><rect x="276" y="44" width="4" height="4" fill="#9fb0c4"></rect><rect x="280" y="44" width="12" height="4" fill="#bfe0ff"></rect><rect x="292" y="44" width="20" height="4" fill="#fff4d0"></rect><rect x="312" y="44" width="12" height="4" fill="#bfe0ff"></rect><rect x="324" y="44" width="4" height="4" fill="#9fb0c4"></rect><rect x="328" y="44" width="40" height="4" fill="#bfe0ff"></rect><rect x="368" y="44" width="4" height="4" fill="#9fb0c4"></rect><rect x="372" y="44" width="12" height="4" fill="#dfe7f2"></rect><rect x="0" y="48" width="24" height="4" fill="#dfe7f2"></rect><rect x="24" y="48" width="4" height="4" fill="#1a1d28"></rect><rect x="28" y="48" width="100" height="4" fill="#3a6ea5"></rect><rect x="128" y="48" width="4" height="4" fill="#ffffff"></rect><rect x="132" y="48" width="4" height="4" fill="#3a6ea5"></rect><rect x="136" y="48" width="4" height="4" fill="#ffffff"></rect><rect x="140" y="48" width="8" height="4" fill="#3a6ea5"></rect><rect x="148" y="48" width="4" height="4" fill="#1a1d28"></rect><rect x="152" y="48" width="124" height="4" fill="#dfe7f2"></rect><rect x="276" y="48" width="4" height="4" fill="#9fb0c4"></rect><rect x="280" y="48" width="20" height="4" fill="#bfe0ff"></rect><rect x="300" y="48" width="4" height="4" fill="#fff4d0"></rect><rect x="304" y="48" width="20" height="4" fill="#bfe0ff"></rect><rect x="324" y="48" width="4" height="4" fill="#9fb0c4"></rect><rect x="328" y="48" width="40" height="4" fill="#bfe0ff"></rect><rect x="368" y="48" width="4" height="4" fill="#9fb0c4"></rect><rect x="372" y="48" width="12" height="4" fill="#dfe7f2"></rect><rect x="0" y="52" width="24" height="4" fill="#dfe7f2"></rect><rect x="24" y="52" width="4" height="4" fill="#1a1d28"></rect><rect x="28" y="52" width="120" height="4" fill="#3a6ea5"></rect><rect x="148" y="52" width="4" height="4" fill="#1a1d28"></rect><rect x="152" y="52" width="124" height="4" fill="#dfe7f2"></rect><rect x="276" y="52" width="96" height="4" fill="#9fb0c4"></rect><rect x="372" y="52" width="12" height="4" fill="#dfe7f2"></rect><rect x="0" y="56" width="24" height="4" fill="#dfe7f2"></rect><rect x="24" y="56" width="4" height="4" fill="#1a1d28"></rect><rect x="28" y="56" width="120" height="4" fill="#ffffff"></rect><rect x="148" y="56" width="4" height="4" fill="#1a1d28"></rect><rect x="152" y="56" width="124" height="4" fill="#dfe7f2"></rect><rect x="276" y="56" width="4" height="4" fill="#9fb0c4"></rect><rect x="280" y="56" width="44" height="4" fill="#a8d2f5"></rect><rect x="324" y="56" width="4" height="4" fill="#9fb0c4"></rect><rect x="328" y="56" width="40" height="4" fill="#a8d2f5"></rect><rect x="368" y="56" width="4" height="4" fill="#9fb0c4"></rect><rect x="372" y="56" width="12" height="4" fill="#dfe7f2"></rect><rect x="0" y="60" width="24" height="4" fill="#dfe7f2"></rect><rect x="24" y="60" width="4" height="4" fill="#1a1d28"></rect><rect x="28" y="60" width="120" height="4" fill="#ffffff"></rect><rect x="148" y="60" width="4" height="4" fill="#1a1d28"></rect><rect x="152" y="60" width="88" height="4" fill="#dfe7f2"></rect><rect x="240" y="60" width="40" height="4" fill="#4a3826"></rect><rect x="280" y="60" width="44" height="4" fill="#a8d2f5"></rect><rect x="324" y="60" width="4" height="4" fill="#9fb0c4"></rect><rect x="328" y="60" width="40" height="4" fill="#a8d2f5"></rect><rect x="368" y="60" width="4" height="4" fill="#9fb0c4"></rect><rect x="372" y="60" width="12" height="4" fill="#dfe7f2"></rect><rect x="0" y="64" width="24" height="4" fill="#dfe7f2"></rect><rect x="24" y="64" width="4" height="4" fill="#1a1d28"></rect><rect x="28" y="64" width="120" height="4" fill="#ffffff"></rect><rect x="148" y="64" width="4" height="4" fill="#1a1d28"></rect><rect x="152" y="64" width="88" height="4" fill="#dfe7f2"></rect><rect x="240" y="64" width="40" height="4" fill="#4a3826"></rect><rect x="280" y="64" width="44" height="4" fill="#a8d2f5"></rect><rect x="324" y="64" width="4" height="4" fill="#9fb0c4"></rect><rect x="328" y="64" width="28" height="4" fill="#a8d2f5"></rect><rect x="356" y="64" width="4" height="4" fill="#eef3f9"></rect><rect x="360" y="64" width="24" height="4" fill="#c4d2e2"></rect><rect x="0" y="68" width="24" height="4" fill="#dfe7f2"></rect><rect x="24" y="68" width="4" height="4" fill="#1a1d28"></rect><rect x="28" y="68" width="120" height="4" fill="#ffffff"></rect><rect x="148" y="68" width="4" height="4" fill="#1a1d28"></rect><rect x="152" y="68" width="88" height="4" fill="#dfe7f2"></rect><rect x="240" y="68" width="40" height="4" fill="#4a3826"></rect><rect x="280" y="68" width="44" height="4" fill="#a8d2f5"></rect><rect x="324" y="68" width="4" height="4" fill="#9fb0c4"></rect><rect x="328" y="68" width="28" height="4" fill="#a8d2f5"></rect><rect x="356" y="68" width="4" height="4" fill="#eef3f9"></rect><rect x="360" y="68" width="24" height="4" fill="#c4d2e2"></rect><rect x="0" y="72" width="24" height="4" fill="#dfe7f2"></rect><rect x="24" y="72" width="4" height="4" fill="#1a1d28"></rect><rect x="28" y="72" width="120" height="4" fill="#ffffff"></rect><rect x="148" y="72" width="4" height="4" fill="#1a1d28"></rect><rect x="152" y="72" width="88" height="4" fill="#dfe7f2"></rect><rect x="240" y="72" width="8" height="4" fill="#4a3826"></rect><rect x="248" y="72" width="32" height="4" fill="#3a2a1a"></rect><rect x="280" y="72" width="44" height="4" fill="#a8d2f5"></rect><rect x="324" y="72" width="4" height="4" fill="#9fb0c4"></rect><rect x="328" y="72" width="28" height="4" fill="#a8d2f5"></rect><rect x="356" y="72" width="4" height="4" fill="#eef3f9"></rect><rect x="360" y="72" width="24" height="4" fill="#c4d2e2"></rect><rect x="0" y="76" width="24" height="4" fill="#dfe7f2"></rect><rect x="24" y="76" width="4" height="4" fill="#1a1d28"></rect><rect x="28" y="76" width="120" height="4" fill="#ffffff"></rect><rect x="148" y="76" width="4" height="4" fill="#1a1d28"></rect><rect x="152" y="76" width="88" height="4" fill="#dfe7f2"></rect><rect x="240" y="76" width="8" height="4" fill="#4a3826"></rect><rect x="248" y="76" width="32" height="4" fill="#3a2a1a"></rect><rect x="280" y="76" width="44" height="4" fill="#a8d2f5"></rect><rect x="324" y="76" width="4" height="4" fill="#9fb0c4"></rect><rect x="328" y="76" width="28" height="4" fill="#a8d2f5"></rect><rect x="356" y="76" width="4" height="4" fill="#eef3f9"></rect><rect x="360" y="76" width="24" height="4" fill="#c4d2e2"></rect><rect x="0" y="80" width="24" height="4" fill="#dfe7f2"></rect><rect x="24" y="80" width="4" height="4" fill="#1a1d28"></rect><rect x="28" y="80" width="8" height="4" fill="#ffffff"></rect><rect x="36" y="80" width="72" height="4" fill="#b8bec8"></rect><rect x="108" y="80" width="40" height="4" fill="#ffffff"></rect><rect x="148" y="80" width="4" height="4" fill="#1a1d28"></rect><rect x="152" y="80" width="88" height="4" fill="#dfe7f2"></rect><rect x="240" y="80" width="8" height="4" fill="#4a3826"></rect><rect x="248" y="80" width="32" height="4" fill="#3a2a1a"></rect><rect x="280" y="80" width="44" height="4" fill="#a8d2f5"></rect><rect x="324" y="80" width="4" height="4" fill="#9fb0c4"></rect><rect x="328" y="80" width="28" height="4" fill="#a8d2f5"></rect><rect x="356" y="80" width="4" height="4" fill="#eef3f9"></rect><rect x="360" y="80" width="24" height="4" fill="#c4d2e2"></rect><rect x="0" y="84" width="24" height="4" fill="#dfe7f2"></rect><rect x="24" y="84" width="4" height="4" fill="#1a1d28"></rect><rect x="28" y="84" width="120" height="4" fill="#ffffff"></rect><rect x="148" y="84" width="4" height="4" fill="#1a1d28"></rect><rect x="152" y="84" width="88" height="4" fill="#dfe7f2"></rect><rect x="240" y="84" width="8" height="4" fill="#4a3826"></rect><rect x="248" y="84" width="32" height="4" fill="#3a2a1a"></rect><rect x="280" y="84" width="44" height="4" fill="#a8d2f5"></rect><rect x="324" y="84" width="4" height="4" fill="#9fb0c4"></rect><rect x="328" y="84" width="28" height="4" fill="#a8d2f5"></rect><rect x="356" y="84" width="4" height="4" fill="#eef3f9"></rect><rect x="360" y="84" width="24" height="4" fill="#c4d2e2"></rect><rect x="0" y="88" width="24" height="4" fill="#dfe7f2"></rect><rect x="24" y="88" width="4" height="4" fill="#1a1d28"></rect><rect x="28" y="88" width="8" height="4" fill="#ffffff"></rect><rect x="36" y="88" width="72" height="4" fill="#b8bec8"></rect><rect x="108" y="88" width="40" height="4" fill="#ffffff"></rect><rect x="148" y="88" width="4" height="4" fill="#1a1d28"></rect><rect x="152" y="88" width="88" height="4" fill="#dfe7f2"></rect><rect x="240" y="88" width="8" height="4" fill="#4a3826"></rect><rect x="248" y="88" width="32" height="4" fill="#3a2a1a"></rect><rect x="280" y="88" width="76" height="4" fill="#9fb0c4"></rect><rect x="356" y="88" width="4" height="4" fill="#eef3f9"></rect><rect x="360" y="88" width="24" height="4" fill="#c4d2e2"></rect><rect x="0" y="92" width="24" height="4" fill="#dfe7f2"></rect><rect x="24" y="92" width="4" height="4" fill="#1a1d28"></rect><rect x="28" y="92" width="120" height="4" fill="#ffffff"></rect><rect x="148" y="92" width="4" height="4" fill="#1a1d28"></rect><rect x="152" y="92" width="80" height="4" fill="#dfe7f2"></rect><rect x="232" y="92" width="56" height="4" fill="#3a4d72"></rect><rect x="288" y="92" width="68" height="4" fill="#dfe7f2"></rect><rect x="356" y="92" width="4" height="4" fill="#eef3f9"></rect><rect x="360" y="92" width="24" height="4" fill="#c4d2e2"></rect><rect x="0" y="96" width="24" height="4" fill="#dfe7f2"></rect><rect x="24" y="96" width="4" height="4" fill="#1a1d28"></rect><rect x="28" y="96" width="8" height="4" fill="#ffffff"></rect><rect x="36" y="96" width="72" height="4" fill="#b8bec8"></rect><rect x="108" y="96" width="40" height="4" fill="#ffffff"></rect><rect x="148" y="96" width="4" height="4" fill="#1a1d28"></rect><rect x="152" y="96" width="80" height="4" fill="#dfe7f2"></rect><rect x="232" y="96" width="60" height="4" fill="#3a4d72"></rect><rect x="292" y="96" width="64" height="4" fill="#dfe7f2"></rect><rect x="356" y="96" width="4" height="4" fill="#eef3f9"></rect><rect x="360" y="96" width="24" height="4" fill="#c4d2e2"></rect><rect x="0" y="100" width="24" height="4" fill="#dfe7f2"></rect><rect x="24" y="100" width="4" height="4" fill="#1a1d28"></rect><rect x="28" y="100" width="120" height="4" fill="#ffffff"></rect><rect x="148" y="100" width="4" height="4" fill="#1a1d28"></rect><rect x="152" y="100" width="80" height="4" fill="#dfe7f2"></rect><rect x="232" y="100" width="8" height="4" fill="#2c3c5c"></rect><rect x="240" y="100" width="40" height="4" fill="#3a4d72"></rect><rect x="280" y="100" width="4" height="4" fill="#2c3c5c"></rect><rect x="284" y="100" width="8" height="4" fill="#3a4d72"></rect><rect x="292" y="100" width="64" height="4" fill="#dfe7f2"></rect><rect x="356" y="100" width="4" height="4" fill="#eef3f9"></rect><rect x="360" y="100" width="24" height="4" fill="#c4d2e2"></rect><rect x="0" y="104" width="24" height="4" fill="#dfe7f2"></rect><rect x="24" y="104" width="4" height="4" fill="#1a1d28"></rect><rect x="28" y="104" width="8" height="4" fill="#ffffff"></rect><rect x="36" y="104" width="72" height="4" fill="#b8bec8"></rect><rect x="108" y="104" width="40" height="4" fill="#ffffff"></rect><rect x="148" y="104" width="4" height="4" fill="#1a1d28"></rect><rect x="152" y="104" width="80" height="4" fill="#dfe7f2"></rect><rect x="232" y="104" width="8" height="4" fill="#2c3c5c"></rect><rect x="240" y="104" width="40" height="4" fill="#3a4d72"></rect><rect x="280" y="104" width="8" height="4" fill="#2c3c5c"></rect><rect x="288" y="104" width="4" height="4" fill="#a87c42"></rect><rect x="292" y="104" width="40" height="4" fill="#e8dcc0"></rect><rect x="332" y="104" width="4" height="4" fill="#86621f"></rect><rect x="336" y="104" width="20" height="4" fill="#dfe7f2"></rect><rect x="356" y="104" width="4" height="4" fill="#eef3f9"></rect><rect x="360" y="104" width="24" height="4" fill="#c4d2e2"></rect><rect x="0" y="108" width="24" height="4" fill="#dfe7f2"></rect><rect x="24" y="108" width="4" height="4" fill="#1a1d28"></rect><rect x="28" y="108" width="120" height="4" fill="#ffffff"></rect><rect x="148" y="108" width="4" height="4" fill="#1a1d28"></rect><rect x="152" y="108" width="80" height="4" fill="#dfe7f2"></rect><rect x="232" y="108" width="8" height="4" fill="#2c3c5c"></rect><rect x="240" y="108" width="40" height="4" fill="#3a4d72"></rect><rect x="280" y="108" width="8" height="4" fill="#2c3c5c"></rect><rect x="288" y="108" width="4" height="4" fill="#a87c42"></rect><rect x="292" y="108" width="40" height="4" fill="#c69a5e"></rect><rect x="332" y="108" width="4" height="4" fill="#86621f"></rect><rect x="336" y="108" width="20" height="4" fill="#dfe7f2"></rect><rect x="356" y="108" width="4" height="4" fill="#eef3f9"></rect><rect x="360" y="108" width="24" height="4" fill="#c4d2e2"></rect><rect x="0" y="112" width="24" height="4" fill="#dfe7f2"></rect><rect x="24" y="112" width="4" height="4" fill="#1a1d28"></rect><rect x="28" y="112" width="84" height="4" fill="#ffffff"></rect><rect x="112" y="112" width="28" height="4" fill="#2e7036"></rect><rect x="140" y="112" width="8" height="4" fill="#ffffff"></rect><rect x="148" y="112" width="4" height="4" fill="#1a1d28"></rect><rect x="152" y="112" width="80" height="4" fill="#dfe7f2"></rect><rect x="232" y="112" width="8" height="4" fill="#2c3c5c"></rect><rect x="240" y="112" width="40" height="4" fill="#3a4d72"></rect><rect x="280" y="112" width="8" height="4" fill="#2c3c5c"></rect><rect x="288" y="112" width="4" height="4" fill="#a87c42"></rect><rect x="292" y="112" width="40" height="4" fill="#c69a5e"></rect><rect x="332" y="112" width="4" height="4" fill="#86621f"></rect><rect x="336" y="112" width="20" height="4" fill="#dfe7f2"></rect><rect x="356" y="112" width="4" height="4" fill="#eef3f9"></rect><rect x="360" y="112" width="24" height="4" fill="#c4d2e2"></rect><rect x="0" y="116" width="24" height="4" fill="#dfe7f2"></rect><rect x="24" y="116" width="4" height="4" fill="#1a1d28"></rect><rect x="28" y="116" width="84" height="4" fill="#ffffff"></rect><rect x="112" y="116" width="28" height="4" fill="#3f9a4a"></rect><rect x="140" y="116" width="8" height="4" fill="#ffffff"></rect><rect x="148" y="116" width="4" height="4" fill="#1a1d28"></rect><rect x="152" y="116" width="80" height="4" fill="#dfe7f2"></rect><rect x="232" y="116" width="8" height="4" fill="#2c3c5c"></rect><rect x="240" y="116" width="40" height="4" fill="#3a4d72"></rect><rect x="280" y="116" width="8" height="4" fill="#2c3c5c"></rect><rect x="288" y="116" width="4" height="4" fill="#a87c42"></rect><rect x="292" y="116" width="40" height="4" fill="#c69a5e"></rect><rect x="332" y="116" width="4" height="4" fill="#86621f"></rect><rect x="336" y="116" width="20" height="4" fill="#dfe7f2"></rect><rect x="356" y="116" width="4" height="4" fill="#eef3f9"></rect><rect x="360" y="116" width="24" height="4" fill="#c4d2e2"></rect><rect x="0" y="120" width="24" height="4" fill="#dfe7f2"></rect><rect x="24" y="120" width="4" height="4" fill="#1a1d28"></rect><rect x="28" y="120" width="84" height="4" fill="#ffffff"></rect><rect x="112" y="120" width="28" height="4" fill="#3f9a4a"></rect><rect x="140" y="120" width="8" height="4" fill="#ffffff"></rect><rect x="148" y="120" width="4" height="4" fill="#1a1d28"></rect><rect x="152" y="120" width="80" height="4" fill="#dfe7f2"></rect><rect x="232" y="120" width="8" height="4" fill="#2c3c5c"></rect><rect x="240" y="120" width="40" height="4" fill="#3a4d72"></rect><rect x="280" y="120" width="8" height="4" fill="#2c3c5c"></rect><rect x="288" y="120" width="4" height="4" fill="#a87c42"></rect><rect x="292" y="120" width="40" height="4" fill="#c69a5e"></rect><rect x="332" y="120" width="4" height="4" fill="#86621f"></rect><rect x="336" y="120" width="20" height="4" fill="#dfe7f2"></rect><rect x="356" y="120" width="4" height="4" fill="#eef3f9"></rect><rect x="360" y="120" width="24" height="4" fill="#c4d2e2"></rect><rect x="0" y="124" width="24" height="4" fill="#dfe7f2"></rect><rect x="24" y="124" width="4" height="4" fill="#1a1d28"></rect><rect x="28" y="124" width="120" height="4" fill="#ffffff"></rect><rect x="148" y="124" width="4" height="4" fill="#1a1d28"></rect><rect x="152" y="124" width="80" height="4" fill="#dfe7f2"></rect><rect x="232" y="124" width="8" height="4" fill="#2c3c5c"></rect><rect x="240" y="124" width="40" height="4" fill="#3a4d72"></rect><rect x="280" y="124" width="8" height="4" fill="#2c3c5c"></rect><rect x="288" y="124" width="48" height="4" fill="#e8dcc0"></rect><rect x="336" y="124" width="20" height="4" fill="#dfe7f2"></rect><rect x="356" y="124" width="4" height="4" fill="#eef3f9"></rect><rect x="360" y="124" width="24" height="4" fill="#c4d2e2"></rect><rect x="0" y="128" width="24" height="4" fill="#dfe7f2"></rect><rect x="24" y="128" width="4" height="4" fill="#1a1d28"></rect><rect x="28" y="128" width="120" height="4" fill="#ffffff"></rect><rect x="148" y="128" width="4" height="4" fill="#1a1d28"></rect><rect x="152" y="128" width="80" height="4" fill="#dfe7f2"></rect><rect x="232" y="128" width="8" height="4" fill="#2c3c5c"></rect><rect x="240" y="128" width="40" height="4" fill="#3a4d72"></rect><rect x="280" y="128" width="4" height="4" fill="#2c3c5c"></rect><rect x="284" y="128" width="8" height="4" fill="#3a4d72"></rect><rect x="292" y="128" width="40" height="4" fill="#c69a5e"></rect><rect x="332" y="128" width="4" height="4" fill="#86621f"></rect><rect x="336" y="128" width="20" height="4" fill="#dfe7f2"></rect><rect x="356" y="128" width="4" height="4" fill="#eef3f9"></rect><rect x="360" y="128" width="24" height="4" fill="#c4d2e2"></rect><rect x="0" y="132" width="24" height="4" fill="#dfe7f2"></rect><rect x="24" y="132" width="60" height="4" fill="#0e1018"></rect><rect x="84" y="132" width="8" height="4" fill="#2a2f3c"></rect><rect x="92" y="132" width="60" height="4" fill="#0e1018"></rect><rect x="152" y="132" width="84" height="4" fill="#dfe7f2"></rect><rect x="236" y="132" width="20" height="4" fill="#2c3c5c"></rect><rect x="256" y="132" width="8" height="4" fill="#dfe7f2"></rect><rect x="264" y="132" width="20" height="4" fill="#2c3c5c"></rect><rect x="284" y="132" width="8" height="4" fill="#3a4d72"></rect><rect x="292" y="132" width="40" height="4" fill="#c69a5e"></rect><rect x="332" y="132" width="4" height="4" fill="#86621f"></rect><rect x="336" y="132" width="20" height="4" fill="#dfe7f2"></rect><rect x="356" y="132" width="4" height="4" fill="#eef3f9"></rect><rect x="360" y="132" width="24" height="4" fill="#c4d2e2"></rect><rect x="0" y="136" width="8" height="4" fill="#dfe7f2"></rect><rect x="8" y="136" width="168" height="4" fill="#624f37"></rect><rect x="176" y="136" width="60" height="4" fill="#dfe7f2"></rect><rect x="236" y="136" width="20" height="4" fill="#2c3c5c"></rect><rect x="256" y="136" width="8" height="4" fill="#dfe7f2"></rect><rect x="264" y="136" width="20" height="4" fill="#2c3c5c"></rect><rect x="284" y="136" width="4" height="4" fill="#dfe7f2"></rect><rect x="288" y="136" width="4" height="4" fill="#a87c42"></rect><rect x="292" y="136" width="40" height="4" fill="#c69a5e"></rect><rect x="332" y="136" width="4" height="4" fill="#86621f"></rect><rect x="336" y="136" width="20" height="4" fill="#dfe7f2"></rect><rect x="356" y="136" width="4" height="4" fill="#eef3f9"></rect><rect x="360" y="136" width="24" height="4" fill="#c4d2e2"></rect><rect x="0" y="140" width="8" height="4" fill="#dfe7f2"></rect><rect x="8" y="140" width="168" height="4" fill="#7a6346"></rect><rect x="176" y="140" width="60" height="4" fill="#dfe7f2"></rect><rect x="236" y="140" width="20" height="4" fill="#2c3c5c"></rect><rect x="256" y="140" width="8" height="4" fill="#dfe7f2"></rect><rect x="264" y="140" width="20" height="4" fill="#2c3c5c"></rect><rect x="284" y="140" width="4" height="4" fill="#dfe7f2"></rect><rect x="288" y="140" width="4" height="4" fill="#a87c42"></rect><rect x="292" y="140" width="40" height="4" fill="#c69a5e"></rect><rect x="332" y="140" width="4" height="4" fill="#86621f"></rect><rect x="336" y="140" width="20" height="4" fill="#dfe7f2"></rect><rect x="356" y="140" width="4" height="4" fill="#eef3f9"></rect><rect x="360" y="140" width="24" height="4" fill="#c4d2e2"></rect><rect x="0" y="144" width="8" height="4" fill="#dfe7f2"></rect><rect x="8" y="144" width="168" height="4" fill="#7a6346"></rect><rect x="176" y="144" width="60" height="4" fill="#dfe7f2"></rect><rect x="236" y="144" width="20" height="4" fill="#2c3c5c"></rect><rect x="256" y="144" width="8" height="4" fill="#dfe7f2"></rect><rect x="264" y="144" width="20" height="4" fill="#2c3c5c"></rect><rect x="284" y="144" width="72" height="4" fill="#dfe7f2"></rect><rect x="356" y="144" width="4" height="4" fill="#eef3f9"></rect><rect x="360" y="144" width="24" height="4" fill="#c4d2e2"></rect><rect x="0" y="148" width="8" height="4" fill="#dfe7f2"></rect><rect x="8" y="148" width="168" height="4" fill="#7a6346"></rect><rect x="176" y="148" width="60" height="4" fill="#dfe7f2"></rect><rect x="236" y="148" width="20" height="4" fill="#2c3c5c"></rect><rect x="256" y="148" width="8" height="4" fill="#dfe7f2"></rect><rect x="264" y="148" width="20" height="4" fill="#2c3c5c"></rect><rect x="284" y="148" width="72" height="4" fill="#dfe7f2"></rect><rect x="356" y="148" width="4" height="4" fill="#eef3f9"></rect><rect x="360" y="148" width="24" height="4" fill="#c4d2e2"></rect><rect x="0" y="152" width="8" height="4" fill="#dfe7f2"></rect><rect x="8" y="152" width="168" height="4" fill="#4e3e2b"></rect><rect x="176" y="152" width="60" height="4" fill="#dfe7f2"></rect><rect x="236" y="152" width="20" height="4" fill="#2c3c5c"></rect><rect x="256" y="152" width="8" height="4" fill="#dfe7f2"></rect><rect x="264" y="152" width="20" height="4" fill="#2c3c5c"></rect><rect x="284" y="152" width="72" height="4" fill="#dfe7f2"></rect><rect x="356" y="152" width="4" height="4" fill="#eef3f9"></rect><rect x="360" y="152" width="24" height="4" fill="#c4d2e2"></rect><rect x="0" y="156" width="20" height="4" fill="#dfe7f2"></rect><rect x="20" y="156" width="12" height="4" fill="#5a4732"></rect><rect x="32" y="156" width="120" height="4" fill="#dfe7f2"></rect><rect x="152" y="156" width="12" height="4" fill="#5a4732"></rect><rect x="164" y="156" width="72" height="4" fill="#dfe7f2"></rect><rect x="236" y="156" width="20" height="4" fill="#2c3c5c"></rect><rect x="256" y="156" width="8" height="4" fill="#dfe7f2"></rect><rect x="264" y="156" width="20" height="4" fill="#2c3c5c"></rect><rect x="284" y="156" width="72" height="4" fill="#dfe7f2"></rect><rect x="356" y="156" width="4" height="4" fill="#eef3f9"></rect><rect x="360" y="156" width="24" height="4" fill="#c4d2e2"></rect><rect x="0" y="160" width="20" height="4" fill="#dfe7f2"></rect><rect x="20" y="160" width="12" height="4" fill="#5a4732"></rect><rect x="32" y="160" width="120" height="4" fill="#dfe7f2"></rect><rect x="152" y="160" width="12" height="4" fill="#5a4732"></rect><rect x="164" y="160" width="72" height="4" fill="#dfe7f2"></rect><rect x="236" y="160" width="20" height="4" fill="#2c3c5c"></rect><rect x="256" y="160" width="8" height="4" fill="#dfe7f2"></rect><rect x="264" y="160" width="20" height="4" fill="#2c3c5c"></rect><rect x="284" y="160" width="72" height="4" fill="#dfe7f2"></rect><rect x="356" y="160" width="4" height="4" fill="#eef3f9"></rect><rect x="360" y="160" width="24" height="4" fill="#c4d2e2"></rect><rect x="0" y="164" width="20" height="4" fill="#dfe7f2"></rect><rect x="20" y="164" width="12" height="4" fill="#5a4732"></rect><rect x="32" y="164" width="120" height="4" fill="#dfe7f2"></rect><rect x="152" y="164" width="12" height="4" fill="#5a4732"></rect><rect x="164" y="164" width="72" height="4" fill="#dfe7f2"></rect><rect x="236" y="164" width="20" height="4" fill="#2c3c5c"></rect><rect x="256" y="164" width="8" height="4" fill="#dfe7f2"></rect><rect x="264" y="164" width="20" height="4" fill="#2c3c5c"></rect><rect x="284" y="164" width="72" height="4" fill="#dfe7f2"></rect><rect x="356" y="164" width="4" height="4" fill="#eef3f9"></rect><rect x="360" y="164" width="24" height="4" fill="#c4d2e2"></rect><rect x="0" y="168" width="20" height="4" fill="#dfe7f2"></rect><rect x="20" y="168" width="12" height="4" fill="#5a4732"></rect><rect x="32" y="168" width="120" height="4" fill="#dfe7f2"></rect><rect x="152" y="168" width="12" height="4" fill="#5a4732"></rect><rect x="164" y="168" width="72" height="4" fill="#dfe7f2"></rect><rect x="236" y="168" width="20" height="4" fill="#2c3c5c"></rect><rect x="256" y="168" width="8" height="4" fill="#dfe7f2"></rect><rect x="264" y="168" width="20" height="4" fill="#2c3c5c"></rect><rect x="284" y="168" width="72" height="4" fill="#dfe7f2"></rect><rect x="356" y="168" width="4" height="4" fill="#eef3f9"></rect><rect x="360" y="168" width="24" height="4" fill="#c4d2e2"></rect><rect x="0" y="172" width="20" height="4" fill="#dfe7f2"></rect><rect x="20" y="172" width="12" height="4" fill="#5a4732"></rect><rect x="32" y="172" width="120" height="4" fill="#dfe7f2"></rect><rect x="152" y="172" width="12" height="4" fill="#5a4732"></rect><rect x="164" y="172" width="72" height="4" fill="#dfe7f2"></rect><rect x="236" y="172" width="20" height="4" fill="#2c3c5c"></rect><rect x="256" y="172" width="8" height="4" fill="#dfe7f2"></rect><rect x="264" y="172" width="20" height="4" fill="#2c3c5c"></rect><rect x="284" y="172" width="72" height="4" fill="#dfe7f2"></rect><rect x="356" y="172" width="4" height="4" fill="#eef3f9"></rect><rect x="360" y="172" width="24" height="4" fill="#c4d2e2"></rect><rect x="0" y="176" width="20" height="4" fill="#dfe7f2"></rect><rect x="20" y="176" width="12" height="4" fill="#5a4732"></rect><rect x="32" y="176" width="120" height="4" fill="#dfe7f2"></rect><rect x="152" y="176" width="12" height="4" fill="#5a4732"></rect><rect x="164" y="176" width="72" height="4" fill="#dfe7f2"></rect><rect x="236" y="176" width="20" height="4" fill="#2c3c5c"></rect><rect x="256" y="176" width="8" height="4" fill="#dfe7f2"></rect><rect x="264" y="176" width="20" height="4" fill="#2c3c5c"></rect><rect x="284" y="176" width="72" height="4" fill="#dfe7f2"></rect><rect x="356" y="176" width="4" height="4" fill="#eef3f9"></rect><rect x="360" y="176" width="24" height="4" fill="#c4d2e2"></rect><rect x="0" y="180" width="20" height="4" fill="#dfe7f2"></rect><rect x="20" y="180" width="12" height="4" fill="#5a4732"></rect><rect x="32" y="180" width="120" height="4" fill="#dfe7f2"></rect><rect x="152" y="180" width="12" height="4" fill="#5a4732"></rect><rect x="164" y="180" width="72" height="4" fill="#dfe7f2"></rect><rect x="236" y="180" width="20" height="4" fill="#2c3c5c"></rect><rect x="256" y="180" width="8" height="4" fill="#dfe7f2"></rect><rect x="264" y="180" width="4" height="4" fill="#2c3c5c"></rect><rect x="268" y="180" width="24" height="4" fill="#2c3c5c"></rect><rect x="292" y="180" width="64" height="4" fill="#dfe7f2"></rect><rect x="356" y="180" width="4" height="4" fill="#eef3f9"></rect><rect x="360" y="180" width="24" height="4" fill="#c4d2e2"></rect><rect x="0" y="184" width="20" height="4" fill="#dfe7f2"></rect><rect x="20" y="184" width="12" height="4" fill="#5a4732"></rect><rect x="32" y="184" width="120" height="4" fill="#dfe7f2"></rect><rect x="152" y="184" width="12" height="4" fill="#5a4732"></rect><rect x="164" y="184" width="68" height="4" fill="#dfe7f2"></rect><rect x="232" y="184" width="24" height="4" fill="#2c3c5c"></rect><rect x="256" y="184" width="100" height="4" fill="#dfe7f2"></rect><rect x="356" y="184" width="4" height="4" fill="#eef3f9"></rect><rect x="360" y="184" width="24" height="4" fill="#c4d2e2"></rect><rect x="0" y="188" width="384" height="4" fill="#b6a487"></rect><rect x="0" y="192" width="228" height="4" fill="#c9b89a"></rect><rect x="228" y="192" width="68" height="4" fill="#9a8a6e"></rect><rect x="296" y="192" width="88" height="4" fill="#c9b89a"></rect><rect x="0" y="196" width="8" height="4" fill="#c9b89a"></rect><rect x="8" y="196" width="4" height="4" fill="#a08d6f"></rect><rect x="12" y="196" width="44" height="4" fill="#c9b89a"></rect><rect x="56" y="196" width="4" height="4" fill="#a08d6f"></rect><rect x="60" y="196" width="44" height="4" fill="#c9b89a"></rect><rect x="104" y="196" width="4" height="4" fill="#a08d6f"></rect><rect x="108" y="196" width="44" height="4" fill="#c9b89a"></rect><rect x="152" y="196" width="4" height="4" fill="#a08d6f"></rect><rect x="156" y="196" width="44" height="4" fill="#c9b89a"></rect><rect x="200" y="196" width="4" height="4" fill="#a08d6f"></rect><rect x="204" y="196" width="24" height="4" fill="#c9b89a"></rect><rect x="228" y="196" width="68" height="4" fill="#9a8a6e"></rect><rect x="296" y="196" width="4" height="4" fill="#a08d6f"></rect><rect x="300" y="196" width="44" height="4" fill="#c9b89a"></rect><rect x="344" y="196" width="4" height="4" fill="#a08d6f"></rect><rect x="348" y="196" width="36" height="4" fill="#c9b89a"></rect><rect x="0" y="200" width="8" height="4" fill="#c9b89a"></rect><rect x="8" y="200" width="4" height="4" fill="#a08d6f"></rect><rect x="12" y="200" width="44" height="4" fill="#c9b89a"></rect><rect x="56" y="200" width="4" height="4" fill="#a08d6f"></rect><rect x="60" y="200" width="44" height="4" fill="#c9b89a"></rect><rect x="104" y="200" width="4" height="4" fill="#a08d6f"></rect><rect x="108" y="200" width="44" height="4" fill="#c9b89a"></rect><rect x="152" y="200" width="4" height="4" fill="#a08d6f"></rect><rect x="156" y="200" width="44" height="4" fill="#c9b89a"></rect><rect x="200" y="200" width="4" height="4" fill="#a08d6f"></rect><rect x="204" y="200" width="44" height="4" fill="#c9b89a"></rect><rect x="248" y="200" width="4" height="4" fill="#a08d6f"></rect><rect x="252" y="200" width="44" height="4" fill="#c9b89a"></rect><rect x="296" y="200" width="4" height="4" fill="#a08d6f"></rect><rect x="300" y="200" width="44" height="4" fill="#c9b89a"></rect><rect x="344" y="200" width="4" height="4" fill="#a08d6f"></rect><rect x="348" y="200" width="36" height="4" fill="#c9b89a"></rect><rect x="0" y="204" width="8" height="4" fill="#c9b89a"></rect><rect x="8" y="204" width="4" height="4" fill="#a08d6f"></rect><rect x="12" y="204" width="44" height="4" fill="#c9b89a"></rect><rect x="56" y="204" width="4" height="4" fill="#a08d6f"></rect><rect x="60" y="204" width="44" height="4" fill="#c9b89a"></rect><rect x="104" y="204" width="4" height="4" fill="#a08d6f"></rect><rect x="108" y="204" width="44" height="4" fill="#c9b89a"></rect><rect x="152" y="204" width="4" height="4" fill="#a08d6f"></rect><rect x="156" y="204" width="44" height="4" fill="#c9b89a"></rect><rect x="200" y="204" width="4" height="4" fill="#a08d6f"></rect><rect x="204" y="204" width="44" height="4" fill="#c9b89a"></rect><rect x="248" y="204" width="4" height="4" fill="#a08d6f"></rect><rect x="252" y="204" width="44" height="4" fill="#c9b89a"></rect><rect x="296" y="204" width="4" height="4" fill="#a08d6f"></rect><rect x="300" y="204" width="44" height="4" fill="#c9b89a"></rect><rect x="344" y="204" width="4" height="4" fill="#a08d6f"></rect><rect x="348" y="204" width="36" height="4" fill="#c9b89a"></rect><rect x="0" y="208" width="8" height="4" fill="#c9b89a"></rect><rect x="8" y="208" width="4" height="4" fill="#a08d6f"></rect><rect x="12" y="208" width="44" height="4" fill="#c9b89a"></rect><rect x="56" y="208" width="4" height="4" fill="#a08d6f"></rect><rect x="60" y="208" width="44" height="4" fill="#c9b89a"></rect><rect x="104" y="208" width="4" height="4" fill="#a08d6f"></rect><rect x="108" y="208" width="44" height="4" fill="#c9b89a"></rect><rect x="152" y="208" width="4" height="4" fill="#a08d6f"></rect><rect x="156" y="208" width="44" height="4" fill="#c9b89a"></rect><rect x="200" y="208" width="4" height="4" fill="#a08d6f"></rect><rect x="204" y="208" width="44" height="4" fill="#c9b89a"></rect><rect x="248" y="208" width="4" height="4" fill="#a08d6f"></rect><rect x="252" y="208" width="44" height="4" fill="#c9b89a"></rect><rect x="296" y="208" width="4" height="4" fill="#a08d6f"></rect><rect x="300" y="208" width="44" height="4" fill="#c9b89a"></rect><rect x="344" y="208" width="4" height="4" fill="#a08d6f"></rect><rect x="348" y="208" width="36" height="4" fill="#c9b89a"></rect><rect x="0" y="212" width="8" height="4" fill="#c9b89a"></rect><rect x="8" y="212" width="4" height="4" fill="#a08d6f"></rect><rect x="12" y="212" width="44" height="4" fill="#c9b89a"></rect><rect x="56" y="212" width="4" height="4" fill="#a08d6f"></rect><rect x="60" y="212" width="44" height="4" fill="#c9b89a"></rect><rect x="104" y="212" width="4" height="4" fill="#a08d6f"></rect><rect x="108" y="212" width="44" height="4" fill="#c9b89a"></rect><rect x="152" y="212" width="4" height="4" fill="#a08d6f"></rect><rect x="156" y="212" width="44" height="4" fill="#c9b89a"></rect><rect x="200" y="212" width="4" height="4" fill="#a08d6f"></rect><rect x="204" y="212" width="44" height="4" fill="#c9b89a"></rect><rect x="248" y="212" width="4" height="4" fill="#a08d6f"></rect><rect x="252" y="212" width="44" height="4" fill="#c9b89a"></rect><rect x="296" y="212" width="4" height="4" fill="#a08d6f"></rect><rect x="300" y="212" width="44" height="4" fill="#c9b89a"></rect><rect x="344" y="212" width="4" height="4" fill="#a08d6f"></rect><rect x="348" y="212" width="36" height="4" fill="#c9b89a"></rect>
<text x="36" y="70" font-family="&#39;Apple SD Gothic Neo&#39;,&#39;Malgun Gothic&#39;,sans-serif" font-size="9" font-weight="700" fill="#1d1f2e">사직서</text><text x="126" y="121.6" font-family="&#39;Apple SD Gothic Neo&#39;,&#39;Malgun Gothic&#39;,sans-serif" font-size="6" font-weight="700" fill="#ffffff" text-anchor="middle">제출</text>
</svg>