<svg xmlns="http://www.w3.org/2000/svg" viewBox="0 0 384 216" width="384" height="216" shape-rendering="crispEdges" role="img" aria-label="칼퇴 A(남성) — 노을, 건물에서 나와 퇴근하는 뒷모습">
<rect x="0" y="0" width="384" height="4" fill="#ffd9a0"></rect><rect x="0" y="4" width="384" height="4" fill="#ffd9a0"></rect><rect x="0" y="8" width="384" height="4" fill="#ffd9a0"></rect><rect x="0" y="12" width="384" height="4" fill="#ffd9a0"></rect><rect x="0" y="16" width="384" height="4" fill="#ffd9a0"></rect><rect x="0" y="20" width="4" height="4" fill="#ffd9a0"></rect><rect x="4" y="20" width="120" height="4" fill="#3f4656"></rect><rect x="124" y="20" width="260" height="4" fill="#ffd9a0"></rect><rect x="0" y="24" width="4" height="4" fill="#ffd9a0"></rect><rect x="4" y="24" width="120" height="4" fill="#3f4656"></rect><rect x="124" y="24" width="260" height="4" fill="#ffd9a0"></rect><rect x="0" y="28" width="8" height="4" fill="#ffd9a0"></rect><rect x="8" y="28" width="104" height="4" fill="#545d70"></rect><rect x="112" y="28" width="8" height="4" fill="#3f4656"></rect><rect x="120" y="28" width="264" height="4" fill="#ffd9a0"></rect><rect x="0" y="32" width="8" height="4" fill="#ffe7b0"></rect><rect x="8" y="32" width="104" height="4" fill="#545d70"></rect><rect x="112" y="32" width="8" height="4" fill="#3f4656"></rect><rect x="120" y="32" width="264" height="4" fill="#ffe7b0"></rect><rect x="0" y="36" width="8" height="4" fill="#ffe7b0"></rect><rect x="8" y="36" width="8" height="4" fill="#545d70"></rect><rect x="16" y="36" width="96" height="4" fill="#6a7488"></rect><rect x="112" y="36" width="8" height="4" fill="#3f4656"></rect><rect x="120" y="36" width="264" height="4" fill="#ffe7b0"></rect><rect x="0" y="40" width="8" height="4" fill="#ffe7b0"></rect><rect x="8" y="40" width="8" height="4" fill="#545d70"></rect><rect x="16" y="40" width="96" height="4" fill="#6a7488"></rect><rect x="112" y="40" width="8" height="4" fill="#3f4656"></rect><rect x="120" y="40" width="264" height="4" fill="#ffe7b0"></rect><rect x="0" y="44" width="8" height="4" fill="#ffe7b0"></rect><rect x="8" y="44" width="8" height="4" fill="#545d70"></rect><rect x="16" y="44" width="96" height="4" fill="#6a7488"></rect><rect x="112" y="44" width="8" height="4" fill="#3f4656"></rect><rect x="120" y="44" width="264" height="4" fill="#ffe7b0"></rect><rect x="0" y="48" width="8" height="4" fill="#ffe7b0"></rect><rect x="8" y="48" width="8" height="4" fill="#545d70"></rect><rect x="16" y="48" width="8" height="4" fill="#6a7488"></rect><rect x="24" y="48" width="20" height="4" fill="#e0b25e"></rect><rect x="44" y="48" width="12" height="4" fill="#6a7488"></rect><rect x="56" y="48" width="20" height="4" fill="#e0b25e"></rect><rect x="76" y="48" width="12" height="4" fill="#6a7488"></rect><rect x="88" y="48" width="20" height="4" fill="#e0b25e"></rect><rect x="108" y="48" width="4" height="4" fill="#6a7488"></rect><rect x="112" y="48" width="8" height="4" fill="#3f4656"></rect><rect x="120" y="48" width="100" height="4" fill="#ffe7b0"></rect><rect x="220" y="48" width="44" height="4" fill="#4a3826"></rect><rect x="264" y="48" width="120" height="4" fill="#ffe7b0"></rect><rect x="0" y="52" width="8" height="4" fill="#ffe7b0"></rect><rect x="8" y="52" width="8" height="4" fill="#545d70"></rect><rect x="16" y="52" width="8" height="4" fill="#6a7488"></rect><rect x="24" y="52" width="4" height="4" fill="#e0b25e"></rect><rect x="28" y="52" width="16" height="4" fill="#ffd98a"></rect><rect x="44" y="52" width="12" height="4" fill="#6a7488"></rect><rect x="56" y="52" width="4" height="4" fill="#e0b25e"></rect><rect x="60" y="52" width="16" height="4" fill="#ffd98a"></rect><rect x="76" y="52" width="12" height="4" fill="#6a7488"></rect><rect x="88" y="52" width="4" height="4" fill="#e0b25e"></rect><rect x="92" y="52" width="16" height="4" fill="#ffd98a"></rect><rect x="108" y="52" width="4" height="4" fill="#6a7488"></rect><rect x="112" y="52" width="8" height="4" fill="#3f4656"></rect><rect x="120" y="52" width="100" height="4" fill="#ffe7b0"></rect><rect x="220" y="52" width="44" height="4" fill="#4a3826"></rect><rect x="264" y="52" width="120" height="4" fill="#ffe7b0"></rect><rect x="0" y="56" width="8" height="4" fill="#ffe7b0"></rect><rect x="8" y="56" width="8" height="4" fill="#545d70"></rect><rect x="16" y="56" width="8" height="4" fill="#6a7488"></rect><rect x="24" y="56" width="4" height="4" fill="#e0b25e"></rect><rect x="28" y="56" width="16" height="4" fill="#ffd98a"></rect><rect x="44" y="56" width="12" height="4" fill="#6a7488"></rect><rect x="56" y="56" width="4" height="4" fill="#e0b25e"></rect><rect x="60" y="56" width="16" height="4" fill="#ffd98a"></rect><rect x="76" y="56" width="12" height="4" fill="#6a7488"></rect><rect x="88" y="56" width="4" height="4" fill="#e0b25e"></rect><rect x="92" y="56" width="16" height="4" fill="#ffd98a"></rect><rect x="108" y="56" width="4" height="4" fill="#6a7488"></rect><rect x="112" y="56" width="8" height="4" fill="#3f4656"></rect><rect x="120" y="56" width="100" height="4" fill="#ffe7b0"></rect><rect x="220" y="56" width="44" height="4" fill="#4a3826"></rect><rect x="264" y="56" width="120" height="4" fill="#ffe7b0"></rect><rect x="0" y="60" width="8" height="4" fill="#ffe7b0"></rect><rect x="8" y="60" width="8" height="4" fill="#545d70"></rect><rect x="16" y="60" width="8" height="4" fill="#6a7488"></rect><rect x="24" y="60" width="4" height="4" fill="#e0b25e"></rect><rect x="28" y="60" width="16" height="4" fill="#ffd98a"></rect><rect x="44" y="60" width="12" height="4" fill="#6a7488"></rect><rect x="56" y="60" width="4" height="4" fill="#e0b25e"></rect><rect x="60" y="60" width="16" height="4" fill="#ffd98a"></rect><rect x="76" y="60" width="12" height="4" fill="#6a7488"></rect><rect x="88" y="60" width="4" height="4" fill="#e0b25e"></rect><rect x="92" y="60" width="16" height="4" fill="#ffd98a"></rect><rect x="108" y="60" width="4" height="4" fill="#6a7488"></rect><rect x="112" y="60" width="8" height="4" fill="#3f4656"></rect><rect x="120" y="60" width="100" height="4" fill="#ffe7b0"></rect><rect x="220" y="60" width="8" height="4" fill="#4a3826"></rect><rect x="228" y="60" width="36" height="4" fill="#3a2a1a"></rect><rect x="264" y="60" width="120" height="4" fill="#ffe7b0"></rect><rect x="0" y="64" width="8" height="4" fill="#ffc98a"></rect><rect x="8" y="64" width="8" height="4" fill="#545d70"></rect><rect x="16" y="64" width="8" height="4" fill="#6a7488"></rect><rect x="24" y="64" width="4" height="4" fill="#e0b25e"></rect><rect x="28" y="64" width="16" height="4" fill="#ffd98a"></rect><rect x="44" y="64" width="12" height="4" fill="#6a7488"></rect><rect x="56" y="64" width="4" height="4" fill="#e0b25e"></rect><rect x="60" y="64" width="16" height="4" fill="#ffd98a"></rect><rect x="76" y="64" width="12" height="4" fill="#6a7488"></rect><rect x="88" y="64" width="4" height="4" fill="#e0b25e"></rect><rect x="92" y="64" width="16" height="4" fill="#ffd98a"></rect><rect x="108" y="64" width="4" height="4" fill="#6a7488"></rect><rect x="112" y="64" width="8" height="4" fill="#3f4656"></rect><rect x="120" y="64" width="100" height="4" fill="#ffc98a"></rect><rect x="220" y="64" width="8" height="4" fill="#4a3826"></rect><rect x="228" y="64" width="36" height="4" fill="#3a2a1a"></rect><rect x="264" y="64" width="120" height="4" fill="#ffc98a"></rect><rect x="0" y="68" width="8" height="4" fill="#ffc98a"></rect><rect x="8" y="68" width="8" height="4" fill="#545d70"></rect><rect x="16" y="68" width="8" height="4" fill="#6a7488"></rect><rect x="24" y="68" width="4" height="4" fill="#e0b25e"></rect><rect x="28" y="68" width="16" height="4" fill="#ffd98a"></rect><rect x="44" y="68" width="12" height="4" fill="#6a7488"></rect><rect x="56" y="68" width="4" height="4" fill="#e0b25e"></rect><rect x="60" y="68" width="16" height="4" fill="#ffd98a"></rect><rect x="76" y="68" width="12" height="4" fill="#6a7488"></rect><rect x="88" y="68" width="4" height="4" fill="#e0b25e"></rect><rect x="92" y="68" width="16" height="4" fill="#ffd98a"></rect><rect x="108" y="68" width="4" height="4" fill="#6a7488"></rect><rect x="112" y="68" width="8" height="4" fill="#3f4656"></rect><rect x="120" y="68" width="100" height="4" fill="#ffc98a"></rect><rect x="220" y="68" width="8" height="4" fill="#4a3826"></rect><rect x="228" y="68" width="36" height="4" fill="#3a2a1a"></rect><rect x="264" y="68" width="120" height="4" fill="#ffc98a"></rect><rect x="0" y="72" width="8" height="4" fill="#ffc98a"></rect><rect x="8" y="72" width="8" height="4" fill="#545d70"></rect><rect x="16" y="72" width="96" height="4" fill="#6a7488"></rect><rect x="112" y="72" width="8" height="4" fill="#3f4656"></rect><rect x="120" y="72" width="100" height="4" fill="#ffc98a"></rect><rect x="220" y="72" width="8" height="4" fill="#4a3826"></rect><rect x="228" y="72" width="36" height="4" fill="#3a2a1a"></rect><rect x="264" y="72" width="120" height="4" fill="#ffc98a"></rect><rect x="0" y="76" width="8" height="4" fill="#ffc98a"></rect><rect x="8" y="76" width="8" height="4" fill="#545d70"></rect><rect x="16" y="76" width="96" height="4" fill="#6a7488"></rect><rect x="112" y="76" width="8" height="4" fill="#3f4656"></rect><rect x="120" y="76" width="100" height="4" fill="#ffc98a"></rect><rect x="220" y="76" width="8" height="4" fill="#4a3826"></rect><rect x="228" y="76" width="36" height="4" fill="#3a2a1a"></rect><rect x="264" y="76" width="120" height="4" fill="#ffc98a"></rect><rect x="0" y="80" width="8" height="4" fill="#ffc98a"></rect><rect x="8" y="80" width="8" height="4" fill="#545d70"></rect><rect x="16" y="80" width="96" height="4" fill="#6a7488"></rect><rect x="112" y="80" width="8" height="4" fill="#3f4656"></rect><rect x="120" y="80" width="112" height="4" fill="#ffc98a"></rect><rect x="232" y="80" width="16" height="4" fill="#f0c8a0"></rect><rect x="248" y="80" width="136" height="4" fill="#ffc98a"></rect><rect x="0" y="84" width="8" height="4" fill="#ffc98a"></rect><rect x="8" y="84" width="8" height="4" fill="#545d70"></rect><rect x="16" y="84" width="8" height="4" fill="#6a7488"></rect><rect x="24" y="84" width="20" height="4" fill="#e0b25e"></rect><rect x="44" y="84" width="12" height="4" fill="#6a7488"></rect><rect x="56" y="84" width="20" height="4" fill="#e0b25e"></rect><rect x="76" y="84" width="12" height="4" fill="#6a7488"></rect><rect x="88" y="84" width="20" height="4" fill="#e0b25e"></rect><rect x="108" y="84" width="4" height="4" fill="#6a7488"></rect><rect x="112" y="84" width="8" height="4" fill="#3f4656"></rect><rect x="120" y="84" width="112" height="4" fill="#ffc98a"></rect><rect x="232" y="84" width="16" height="4" fill="#f0c8a0"></rect><rect x="248" y="84" width="136" height="4" fill="#ffc98a"></rect><rect x="0" y="88" width="8" height="4" fill="#ffc98a"></rect><rect x="8" y="88" width="8" height="4" fill="#545d70"></rect><rect x="16" y="88" width="8" height="4" fill="#6a7488"></rect><rect x="24" y="88" width="4" height="4" fill="#e0b25e"></rect><rect x="28" y="88" width="16" height="4" fill="#ffd98a"></rect><rect x="44" y="88" width="12" height="4" fill="#6a7488"></rect><rect x="56" y="88" width="4" height="4" fill="#e0b25e"></rect><rect x="60" y="88" width="16" height="4" fill="#ffd98a"></rect><rect x="76" y="88" width="12" height="4" fill="#6a7488"></rect><rect x="88" y="88" width="4" height="4" fill="#e0b25e"></rect><rect x="92" y="88" width="16" height="4" fill="#ffd98a"></rect><rect x="108" y="88" width="4" height="4" fill="#6a7488"></rect><rect x="112" y="88" width="8" height="4" fill="#3f4656"></rect><rect x="120" y="88" width="96" height="4" fill="#ffc98a"></rect><rect x="216" y="88" width="16" height="4" fill="#34466b"></rect><rect x="232" y="88" width="16" height="4" fill="#fdfcf2"></rect><rect x="248" y="88" width="20" height="4" fill="#34466b"></rect><rect x="268" y="88" width="116" height="4" fill="#ffc98a"></rect><rect x="0" y="92" width="8" height="4" fill="#ffc98a"></rect><rect x="8" y="92" width="8" height="4" fill="#545d70"></rect><rect x="16" y="92" width="8" height="4" fill="#6a7488"></rect><rect x="24" y="92" width="4" height="4" fill="#e0b25e"></rect><rect x="28" y="92" width="16" height="4" fill="#ffd98a"></rect><rect x="44" y="92" width="12" height="4" fill="#6a7488"></rect><rect x="56" y="92" width="4" height="4" fill="#e0b25e"></rect><rect x="60" y="92" width="16" height="4" fill="#ffd98a"></rect><rect x="76" y="92" width="12" height="4" fill="#6a7488"></rect><rect x="88" y="92" width="4" height="4" fill="#e0b25e"></rect><rect x="92" y="92" width="16" height="4" fill="#ffd98a"></rect><rect x="108" y="92" width="4" height="4" fill="#6a7488"></rect><rect x="112" y="92" width="8" height="4" fill="#3f4656"></rect><rect x="120" y="92" width="96" height="4" fill="#ffc98a"></rect><rect x="216" y="92" width="16" height="4" fill="#34466b"></rect><rect x="232" y="92" width="16" height="4" fill="#fdfcf2"></rect><rect x="248" y="92" width="20" height="4" fill="#34466b"></rect><rect x="268" y="92" width="116" height="4" fill="#ffc98a"></rect><rect x="0" y="96" width="8" height="4" fill="#ff9e72"></rect><rect x="8" y="96" width="8" height="4" fill="#545d70"></rect><rect x="16" y="96" width="8" height="4" fill="#6a7488"></rect><rect x="24" y="96" width="4" height="4" fill="#e0b25e"></rect><rect x="28" y="96" width="16" height="4" fill="#ffd98a"></rect><rect x="44" y="96" width="12" height="4" fill="#6a7488"></rect><rect x="56" y="96" width="4" height="4" fill="#e0b25e"></rect><rect x="60" y="96" width="16" height="4" fill="#ffd98a"></rect><rect x="76" y="96" width="12" height="4" fill="#6a7488"></rect><rect x="88" y="96" width="4" height="4" fill="#e0b25e"></rect><rect x="92" y="96" width="16" height="4" fill="#ffd98a"></rect><rect x="108" y="96" width="4" height="4" fill="#6a7488"></rect><rect x="112" y="96" width="8" height="4" fill="#3f4656"></rect><rect x="120" y="96" width="96" height="4" fill="#ff9e72"></rect><rect x="216" y="96" width="52" height="4" fill="#34466b"></rect><rect x="268" y="96" width="116" height="4" fill="#ff9e72"></rect><rect x="0" y="100" width="8" height="4" fill="#ff9e72"></rect><rect x="8" y="100" width="8" height="4" fill="#545d70"></rect><rect x="16" y="100" width="8" height="4" fill="#6a7488"></rect><rect x="24" y="100" width="4" height="4" fill="#e0b25e"></rect><rect x="28" y="100" width="16" height="4" fill="#ffd98a"></rect><rect x="44" y="100" width="12" height="4" fill="#6a7488"></rect><rect x="56" y="100" width="4" height="4" fill="#e0b25e"></rect><rect x="60" y="100" width="16" height="4" fill="#ffd98a"></rect><rect x="76" y="100" width="12" height="4" fill="#6a7488"></rect><rect x="88" y="100" width="4" height="4" fill="#e0b25e"></rect><rect x="92" y="100" width="16" height="4" fill="#ffd98a"></rect><rect x="108" y="100" width="4" height="4" fill="#6a7488"></rect><rect x="112" y="100" width="8" height="4" fill="#3f4656"></rect><rect x="120" y="100" width="96" height="4" fill="#ff9e72"></rect><rect x="216" y="100" width="52" height="4" fill="#34466b"></rect><rect x="268" y="100" width="116" height="4" fill="#ff9e72"></rect><rect x="0" y="104" width="8" height="4" fill="#ff9e72"></rect><rect x="8" y="104" width="8" height="4" fill="#545d70"></rect><rect x="16" y="104" width="8" height="4" fill="#6a7488"></rect><rect x="24" y="104" width="4" height="4" fill="#e0b25e"></rect><rect x="28" y="104" width="16" height="4" fill="#ffd98a"></rect><rect x="44" y="104" width="12" height="4" fill="#6a7488"></rect><rect x="56" y="104" width="4" height="4" fill="#e0b25e"></rect><rect x="60" y="104" width="16" height="4" fill="#ffd98a"></rect><rect x="76" y="104" width="12" height="4" fill="#6a7488"></rect><rect x="88" y="104" width="4" height="4" fill="#e0b25e"></rect><rect x="92" y="104" width="16" height="4" fill="#ffd98a"></rect><rect x="108" y="104" width="4" height="4" fill="#6a7488"></rect><rect x="112" y="104" width="8" height="4" fill="#3f4656"></rect><rect x="120" y="104" width="92" height="4" fill="#ff9e72"></rect><rect x="212" y="104" width="8" height="4" fill="#34466b"></rect><rect x="220" y="104" width="8" height="4" fill="#2a3a5c"></rect><rect x="228" y="104" width="28" height="4" fill="#34466b"></rect><rect x="256" y="104" width="8" height="4" fill="#2a3a5c"></rect><rect x="264" y="104" width="8" height="4" fill="#34466b"></rect><rect x="272" y="104" width="112" height="4" fill="#ff9e72"></rect><rect x="0" y="108" width="8" height="4" fill="#ff9e72"></rect><rect x="8" y="108" width="8" height="4" fill="#545d70"></rect><rect x="16" y="108" width="24" height="4" fill="#6a7488"></rect><rect x="40" y="108" width="52" height="4" fill="#3f4656"></rect><rect x="92" y="108" width="20" height="4" fill="#6a7488"></rect><rect x="112" y="108" width="8" height="4" fill="#3f4656"></rect><rect x="120" y="108" width="92" height="4" fill="#ff9e72"></rect><rect x="212" y="108" width="8" height="4" fill="#34466b"></rect><rect x="220" y="108" width="8" height="4" fill="#2a3a5c"></rect><rect x="228" y="108" width="28" height="4" fill="#34466b"></rect><rect x="256" y="108" width="8" height="4" fill="#2a3a5c"></rect><rect x="264" y="108" width="8" height="4" fill="#34466b"></rect><rect x="272" y="108" width="112" height="4" fill="#ff9e72"></rect><rect x="0" y="112" width="8" height="4" fill="#ff9e72"></rect><rect x="8" y="112" width="8" height="4" fill="#545d70"></rect><rect x="16" y="112" width="24" height="4" fill="#6a7488"></rect><rect x="40" y="112" width="52" height="4" fill="#3f4656"></rect><rect x="92" y="112" width="20" height="4" fill="#6a7488"></rect><rect x="112" y="112" width="8" height="4" fill="#3f4656"></rect><rect x="120" y="112" width="92" height="4" fill="#ff9e72"></rect><rect x="212" y="112" width="8" height="4" fill="#34466b"></rect><rect x="220" y="112" width="8" height="4" fill="#2a3a5c"></rect><rect x="228" y="112" width="28" height="4" fill="#34466b"></rect><rect x="256" y="112" width="8" height="4" fill="#2a3a5c"></rect><rect x="264" y="112" width="8" height="4" fill="#34466b"></rect><rect x="272" y="112" width="16" height="4" fill="#ff9e72"></rect><rect x="288" y="112" width="20" height="4" fill="#ffd267"></rect><rect x="308" y="112" width="76" height="4" fill="#ff9e72"></rect><rect x="0" y="116" width="8" height="4" fill="#ff9e72"></rect><rect x="8" y="116" width="8" height="4" fill="#545d70"></rect><rect x="16" y="116" width="32" height="4" fill="#6a7488"></rect><rect x="48" y="116" width="36" height="4" fill="#c8cdd8"></rect><rect x="84" y="116" width="28" height="4" fill="#6a7488"></rect><rect x="112" y="116" width="8" height="4" fill="#3f4656"></rect><rect x="120" y="116" width="92" height="4" fill="#ff9e72"></rect><rect x="212" y="116" width="8" height="4" fill="#34466b"></rect><rect x="220" y="116" width="8" height="4" fill="#2a3a5c"></rect><rect x="228" y="116" width="28" height="4" fill="#34466b"></rect><rect x="256" y="116" width="8" height="4" fill="#2a3a5c"></rect><rect x="264" y="116" width="8" height="4" fill="#34466b"></rect><rect x="272" y="116" width="8" height="4" fill="#ff9e72"></rect><rect x="280" y="116" width="8" height="4" fill="#ffd267"></rect><rect x="288" y="116" width="20" height="4" fill="#fff0c0"></rect><rect x="308" y="116" width="8" height="4" fill="#ffd267"></rect><rect x="316" y="116" width="68" height="4" fill="#ff9e72"></rect><rect x="0" y="120" width="8" height="4" fill="#ff9e72"></rect><rect x="8" y="120" width="8" height="4" fill="#545d70"></rect><rect x="16" y="120" width="8" height="4" fill="#6a7488"></rect><rect x="24" y="120" width="20" height="4" fill="#e0b25e"></rect><rect x="44" y="120" width="4" height="4" fill="#6a7488"></rect><rect x="48" y="120" width="4" height="4" fill="#c8cdd8"></rect><rect x="52" y="120" width="12" height="4" fill="#2a2f3c"></rect><rect x="64" y="120" width="4" height="4" fill="#c8cdd8"></rect><rect x="68" y="120" width="12" height="4" fill="#2a2f3c"></rect><rect x="80" y="120" width="4" height="4" fill="#c8cdd8"></rect><rect x="84" y="120" width="4" height="4" fill="#6a7488"></rect><rect x="88" y="120" width="20" height="4" fill="#e0b25e"></rect><rect x="108" y="120" width="4" height="4" fill="#6a7488"></rect><rect x="112" y="120" width="8" height="4" fill="#3f4656"></rect><rect x="120" y="120" width="92" height="4" fill="#ff9e72"></rect><rect x="212" y="120" width="8" height="4" fill="#34466b"></rect><rect x="220" y="120" width="8" height="4" fill="#2a3a5c"></rect><rect x="228" y="120" width="28" height="4" fill="#34466b"></rect><rect x="256" y="120" width="8" height="4" fill="#2a3a5c"></rect><rect x="264" y="120" width="8" height="4" fill="#34466b"></rect><rect x="272" y="120" width="8" height="4" fill="#ffd267"></rect><rect x="280" y="120" width="36" height="4" fill="#fff0c0"></rect><rect x="316" y="120" width="8" height="4" fill="#ffd267"></rect><rect x="324" y="120" width="60" height="4" fill="#ff9e72"></rect><rect x="0" y="124" width="8" height="4" fill="#f07a66"></rect><rect x="8" y="124" width="8" height="4" fill="#545d70"></rect><rect x="16" y="124" width="8" height="4" fill="#6a7488"></rect><rect x="24" y="124" width="4" height="4" fill="#e0b25e"></rect><rect x="28" y="124" width="16" height="4" fill="#ffd98a"></rect><rect x="44" y="124" width="4" height="4" fill="#6a7488"></rect><rect x="48" y="124" width="4" height="4" fill="#c8cdd8"></rect><rect x="52" y="124" width="12" height="4" fill="#2a2f3c"></rect><rect x="64" y="124" width="4" height="4" fill="#c8cdd8"></rect><rect x="68" y="124" width="12" height="4" fill="#2a2f3c"></rect><rect x="80" y="124" width="4" height="4" fill="#c8cdd8"></rect><rect x="84" y="124" width="4" height="4" fill="#6a7488"></rect><rect x="88" y="124" width="4" height="4" fill="#e0b25e"></rect><rect x="92" y="124" width="16" height="4" fill="#ffd98a"></rect><rect x="108" y="124" width="4" height="4" fill="#6a7488"></rect><rect x="112" y="124" width="8" height="4" fill="#3f4656"></rect><rect x="120" y="124" width="92" height="4" fill="#f07a66"></rect><rect x="212" y="124" width="8" height="4" fill="#34466b"></rect><rect x="220" y="124" width="8" height="4" fill="#2a3a5c"></rect><rect x="228" y="124" width="28" height="4" fill="#34466b"></rect><rect x="256" y="124" width="8" height="4" fill="#2a3a5c"></rect><rect x="264" y="124" width="8" height="4" fill="#34466b"></rect><rect x="272" y="124" width="4" height="4" fill="#ffd267"></rect><rect x="276" y="124" width="44" height="4" fill="#fff0c0"></rect><rect x="320" y="124" width="4" height="4" fill="#ffd267"></rect><rect x="324" y="124" width="60" height="4" fill="#f07a66"></rect><rect x="0" y="128" width="8" height="4" fill="#f07a66"></rect><rect x="8" y="128" width="8" height="4" fill="#545d70"></rect><rect x="16" y="128" width="8" height="4" fill="#6a7488"></rect><rect x="24" y="128" width="4" height="4" fill="#e0b25e"></rect><rect x="28" y="128" width="16" height="4" fill="#ffd98a"></rect><rect x="44" y="128" width="4" height="4" fill="#6a7488"></rect><rect x="48" y="128" width="4" height="4" fill="#c8cdd8"></rect><rect x="52" y="128" width="12" height="4" fill="#2a2f3c"></rect><rect x="64" y="128" width="4" height="4" fill="#c8cdd8"></rect><rect x="68" y="128" width="12" height="4" fill="#2a2f3c"></rect><rect x="80" y="128" width="4" height="4" fill="#c8cdd8"></rect><rect x="84" y="128" width="4" height="4" fill="#6a7488"></rect><rect x="88" y="128" width="4" height="4" fill="#e0b25e"></rect><rect x="92" y="128" width="16" height="4" fill="#ffd98a"></rect><rect x="108" y="128" width="4" height="4" fill="#6a7488"></rect><rect x="112" y="128" width="8" height="4" fill="#3f4656"></rect><rect x="120" y="128" width="92" height="4" fill="#f07a66"></rect><rect x="212" y="128" width="8" height="4" fill="#1d1f2e"></rect><rect x="220" y="128" width="8" height="4" fill="#2a3a5c"></rect><rect x="228" y="128" width="28" height="4" fill="#34466b"></rect><rect x="256" y="128" width="8" height="4" fill="#2a3a5c"></rect><rect x="264" y="128" width="8" height="4" fill="#34466b"></rect><rect x="272" y="128" width="52" height="4" fill="#fff0c0"></rect><rect x="324" y="128" width="4" height="4" fill="#ffd267"></rect><rect x="328" y="128" width="56" height="4" fill="#f07a66"></rect><rect x="0" y="132" width="8" height="4" fill="#f07a66"></rect><rect x="8" y="132" width="8" height="4" fill="#545d70"></rect><rect x="16" y="132" width="8" height="4" fill="#6a7488"></rect><rect x="24" y="132" width="4" height="4" fill="#e0b25e"></rect><rect x="28" y="132" width="16" height="4" fill="#ffd98a"></rect><rect x="44" y="132" width="4" height="4" fill="#6a7488"></rect><rect x="48" y="132" width="4" height="4" fill="#c8cdd8"></rect><rect x="52" y="132" width="12" height="4" fill="#2a2f3c"></rect><rect x="64" y="132" width="4" height="4" fill="#c8cdd8"></rect><rect x="68" y="132" width="12" height="4" fill="#2a2f3c"></rect><rect x="80" y="132" width="4" height="4" fill="#c8cdd8"></rect><rect x="84" y="132" width="4" height="4" fill="#6a7488"></rect><rect x="88" y="132" width="4" height="4" fill="#e0b25e"></rect><rect x="92" y="132" width="16" height="4" fill="#ffd98a"></rect><rect x="108" y="132" width="4" height="4" fill="#6a7488"></rect><rect x="112" y="132" width="8" height="4" fill="#3f4656"></rect><rect x="120" y="132" width="92" height="4" fill="#f07a66"></rect><rect x="212" y="132" width="8" height="4" fill="#1d1f2e"></rect><rect x="220" y="132" width="8" height="4" fill="#2a3a5c"></rect><rect x="228" y="132" width="28" height="4" fill="#34466b"></rect><rect x="256" y="132" width="8" height="4" fill="#2a3a5c"></rect><rect x="264" y="132" width="8" height="4" fill="#34466b"></rect><rect x="272" y="132" width="52" height="4" fill="#fff0c0"></rect><rect x="324" y="132" width="8" height="4" fill="#ffd267"></rect><rect x="332" y="132" width="52" height="4" fill="#f07a66"></rect><rect x="0" y="136" width="8" height="4" fill="#f07a66"></rect><rect x="8" y="136" width="8" height="4" fill="#545d70"></rect><rect x="16" y="136" width="8" height="4" fill="#6a7488"></rect><rect x="24" y="136" width="4" height="4" fill="#e0b25e"></rect><rect x="28" y="136" width="16" height="4" fill="#ffd98a"></rect><rect x="44" y="136" width="4" height="4" fill="#6a7488"></rect><rect x="48" y="136" width="4" height="4" fill="#c8cdd8"></rect><rect x="52" y="136" width="12" height="4" fill="#2a2f3c"></rect><rect x="64" y="136" width="4" height="4" fill="#c8cdd8"></rect><rect x="68" y="136" width="12" height="4" fill="#2a2f3c"></rect><rect x="80" y="136" width="4" height="4" fill="#c8cdd8"></rect><rect x="84" y="136" width="4" height="4" fill="#6a7488"></rect><rect x="88" y="136" width="4" height="4" fill="#e0b25e"></rect><rect x="92" y="136" width="16" height="4" fill="#ffd98a"></rect><rect x="108" y="136" width="4" height="4" fill="#6a7488"></rect><rect x="112" y="136" width="8" height="4" fill="#3f4656"></rect><rect x="120" y="136" width="92" height="4" fill="#f07a66"></rect><rect x="212" y="136" width="8" height="4" fill="#1d1f2e"></rect><rect x="220" y="136" width="8" height="4" fill="#2a3a5c"></rect><rect x="228" y="136" width="28" height="4" fill="#34466b"></rect><rect x="256" y="136" width="8" height="4" fill="#2a3a5c"></rect><rect x="264" y="136" width="8" height="4" fill="#f0c8a0"></rect><rect x="272" y="136" width="56" height="4" fill="#fff0c0"></rect><rect x="328" y="136" width="4" height="4" fill="#ffd267"></rect><rect x="332" y="136" width="52" height="4" fill="#f07a66"></rect><rect x="0" y="140" width="8" height="4" fill="#f07a66"></rect><rect x="8" y="140" width="8" height="4" fill="#545d70"></rect><rect x="16" y="140" width="8" height="4" fill="#6a7488"></rect><rect x="24" y="140" width="4" height="4" fill="#e0b25e"></rect><rect x="28" y="140" width="16" height="4" fill="#ffd98a"></rect><rect x="44" y="140" width="4" height="4" fill="#6a7488"></rect><rect x="48" y="140" width="4" height="4" fill="#c8cdd8"></rect><rect x="52" y="140" width="12" height="4" fill="#2a2f3c"></rect><rect x="64" y="140" width="4" height="4" fill="#c8cdd8"></rect><rect x="68" y="140" width="12" height="4" fill="#2a2f3c"></rect><rect x="80" y="140" width="4" height="4" fill="#c8cdd8"></rect><rect x="84" y="140" width="4" height="4" fill="#6a7488"></rect><rect x="88" y="140" width="4" height="4" fill="#e0b25e"></rect><rect x="92" y="140" width="16" height="4" fill="#ffd98a"></rect><rect x="108" y="140" width="4" height="4" fill="#6a7488"></rect><rect x="112" y="140" width="8" height="4" fill="#3f4656"></rect><rect x="120" y="140" width="84" height="4" fill="#f07a66"></rect><rect x="204" y="140" width="24" height="4" fill="#553318"></rect><rect x="228" y="140" width="12" height="4" fill="#2a3a5c"></rect><rect x="240" y="140" width="4" height="4" fill="#f07a66"></rect><rect x="244" y="140" width="12" height="4" fill="#34466b"></rect><rect x="256" y="140" width="8" height="4" fill="#f07a66"></rect><rect x="264" y="140" width="8" height="4" fill="#f0c8a0"></rect><rect x="272" y="140" width="56" height="4" fill="#fff0c0"></rect><rect x="328" y="140" width="4" height="4" fill="#ffd267"></rect><rect x="332" y="140" width="52" height="4" fill="#f07a66"></rect><rect x="0" y="144" width="8" height="4" fill="#f07a66"></rect><rect x="8" y="144" width="8" height="4" fill="#545d70"></rect><rect x="16" y="144" width="32" height="4" fill="#6a7488"></rect><rect x="48" y="144" width="4" height="4" fill="#c8cdd8"></rect><rect x="52" y="144" width="12" height="4" fill="#2a2f3c"></rect><rect x="64" y="144" width="4" height="4" fill="#c8cdd8"></rect><rect x="68" y="144" width="12" height="4" fill="#2a2f3c"></rect><rect x="80" y="144" width="4" height="4" fill="#c8cdd8"></rect><rect x="84" y="144" width="28" height="4" fill="#6a7488"></rect><rect x="112" y="144" width="8" height="4" fill="#3f4656"></rect><rect x="120" y="144" width="84" height="4" fill="#f07a66"></rect><rect x="204" y="144" width="24" height="4" fill="#553318"></rect><rect x="228" y="144" width="12" height="4" fill="#2a3a5c"></rect><rect x="240" y="144" width="4" height="4" fill="#f07a66"></rect><rect x="244" y="144" width="12" height="4" fill="#34466b"></rect><rect x="256" y="144" width="8" height="4" fill="#f07a66"></rect><rect x="264" y="144" width="4" height="4" fill="#ffd267"></rect><rect x="268" y="144" width="60" height="4" fill="#fff0c0"></rect><rect x="328" y="144" width="4" height="4" fill="#ffd267"></rect><rect x="332" y="144" width="52" height="4" fill="#f07a66"></rect><rect x="0" y="148" width="8" height="4" fill="#f07a66"></rect><rect x="8" y="148" width="8" height="4" fill="#545d70"></rect><rect x="16" y="148" width="32" height="4" fill="#6a7488"></rect><rect x="48" y="148" width="4" height="4" fill="#c8cdd8"></rect><rect x="52" y="148" width="12" height="4" fill="#2a2f3c"></rect><rect x="64" y="148" width="4" height="4" fill="#c8cdd8"></rect><rect x="68" y="148" width="12" height="4" fill="#2a2f3c"></rect><rect x="80" y="148" width="4" height="4" fill="#c8cdd8"></rect><rect x="84" y="148" width="28" height="4" fill="#6a7488"></rect><rect x="112" y="148" width="8" height="4" fill="#3f4656"></rect><rect x="120" y="148" width="84" height="4" fill="#f07a66"></rect><rect x="204" y="148" width="24" height="4" fill="#6e4528"></rect><rect x="228" y="148" width="12" height="4" fill="#2a3a5c"></rect><rect x="240" y="148" width="4" height="4" fill="#f07a66"></rect><rect x="244" y="148" width="12" height="4" fill="#34466b"></rect><rect x="256" y="148" width="8" height="4" fill="#f07a66"></rect><rect x="264" y="148" width="4" height="4" fill="#ffd267"></rect><rect x="268" y="148" width="60" height="4" fill="#fff0c0"></rect><rect x="328" y="148" width="4" height="4" fill="#ffd267"></rect><rect x="332" y="148" width="52" height="4" fill="#f07a66"></rect><rect x="0" y="152" width="8" height="4" fill="#d96a78"></rect><rect x="8" y="152" width="8" height="4" fill="#545d70"></rect><rect x="16" y="152" width="32" height="4" fill="#6a7488"></rect><rect x="48" y="152" width="4" height="4" fill="#c8cdd8"></rect><rect x="52" y="152" width="12" height="4" fill="#2a2f3c"></rect><rect x="64" y="152" width="4" height="4" fill="#c8cdd8"></rect><rect x="68" y="152" width="12" height="4" fill="#2a2f3c"></rect><rect x="80" y="152" width="4" height="4" fill="#c8cdd8"></rect><rect x="84" y="152" width="28" height="4" fill="#6a7488"></rect><rect x="112" y="152" width="8" height="4" fill="#3f4656"></rect><rect x="120" y="152" width="84" height="4" fill="#d96a78"></rect><rect x="204" y="152" width="24" height="4" fill="#6e4528"></rect><rect x="228" y="152" width="12" height="4" fill="#2a3a5c"></rect><rect x="240" y="152" width="4" height="4" fill="#d96a78"></rect><rect x="244" y="152" width="12" height="4" fill="#34466b"></rect><rect x="256" y="152" width="8" height="4" fill="#d96a78"></rect><rect x="264" y="152" width="4" height="4" fill="#ffd267"></rect><rect x="268" y="152" width="60" height="4" fill="#fff0c0"></rect><rect x="328" y="152" width="4" height="4" fill="#ffd267"></rect><rect x="332" y="152" width="52" height="4" fill="#d96a78"></rect><rect x="0" y="156" width="8" height="4" fill="#d96a78"></rect><rect x="8" y="156" width="8" height="4" fill="#545d70"></rect><rect x="16" y="156" width="32" height="4" fill="#6a7488"></rect><rect x="48" y="156" width="4" height="4" fill="#c8cdd8"></rect><rect x="52" y="156" width="12" height="4" fill="#2a2f3c"></rect><rect x="64" y="156" width="4" height="4" fill="#c8cdd8"></rect><rect x="68" y="156" width="12" height="4" fill="#2a2f3c"></rect><rect x="80" y="156" width="4" height="4" fill="#c8cdd8"></rect><rect x="84" y="156" width="28" height="4" fill="#6a7488"></rect><rect x="112" y="156" width="8" height="4" fill="#3f4656"></rect><rect x="120" y="156" width="84" height="4" fill="#d96a78"></rect><rect x="204" y="156" width="24" height="4" fill="#6e4528"></rect><rect x="228" y="156" width="12" height="4" fill="#2a3a5c"></rect><rect x="240" y="156" width="4" height="4" fill="#d96a78"></rect><rect x="244" y="156" width="12" height="4" fill="#34466b"></rect><rect x="256" y="156" width="8" height="4" fill="#d96a78"></rect><rect x="264" y="156" width="8" height="4" fill="#ffd267"></rect><rect x="272" y="156" width="52" height="4" fill="#fff0c0"></rect><rect x="324" y="156" width="8" height="4" fill="#ffd267"></rect><rect x="332" y="156" width="52" height="4" fill="#d96a78"></rect><rect x="0" y="160" width="8" height="4" fill="#d96a78"></rect><rect x="8" y="160" width="8" height="4" fill="#545d70"></rect><rect x="16" y="160" width="32" height="4" fill="#6a7488"></rect><rect x="48" y="160" width="4" height="4" fill="#c8cdd8"></rect><rect x="52" y="160" width="12" height="4" fill="#2a2f3c"></rect><rect x="64" y="160" width="4" height="4" fill="#c8cdd8"></rect><rect x="68" y="160" width="12" height="4" fill="#2a2f3c"></rect><rect x="80" y="160" width="4" height="4" fill="#c8cdd8"></rect><rect x="84" y="160" width="28" height="4" fill="#6a7488"></rect><rect x="112" y="160" width="8" height="4" fill="#3f4656"></rect><rect x="120" y="160" width="84" height="4" fill="#d96a78"></rect><rect x="204" y="160" width="24" height="4" fill="#553318"></rect><rect x="228" y="160" width="12" height="4" fill="#2a3a5c"></rect><rect x="240" y="160" width="4" height="4" fill="#d96a78"></rect><rect x="244" y="160" width="12" height="4" fill="#34466b"></rect><rect x="256" y="160" width="12" height="4" fill="#d96a78"></rect><rect x="268" y="160" width="4" height="4" fill="#ffd267"></rect><rect x="272" y="160" width="52" height="4" fill="#fff0c0"></rect><rect x="324" y="160" width="4" height="4" fill="#ffd267"></rect><rect x="328" y="160" width="56" height="4" fill="#d96a78"></rect><rect x="0" y="164" width="8" height="4" fill="#d96a78"></rect><rect x="8" y="164" width="8" height="4" fill="#545d70"></rect><rect x="16" y="164" width="32" height="4" fill="#6a7488"></rect><rect x="48" y="164" width="4" height="4" fill="#c8cdd8"></rect><rect x="52" y="164" width="12" height="4" fill="#2a2f3c"></rect><rect x="64" y="164" width="4" height="4" fill="#c8cdd8"></rect><rect x="68" y="164" width="12" height="4" fill="#2a2f3c"></rect><rect x="80" y="164" width="4" height="4" fill="#c8cdd8"></rect><rect x="84" y="164" width="28" height="4" fill="#6a7488"></rect><rect x="112" y="164" width="8" height="4" fill="#3f4656"></rect><rect x="120" y="164" width="84" height="4" fill="#d96a78"></rect><rect x="204" y="164" width="24" height="4" fill="#6e4528"></rect><rect x="228" y="164" width="12" height="4" fill="#1d1f2e"></rect><rect x="240" y="164" width="4" height="4" fill="#d96a78"></rect><rect x="244" y="164" width="12" height="4" fill="#34466b"></rect><rect x="256" y="164" width="16" height="4" fill="#d96a78"></rect><rect x="272" y="164" width="4" height="4" fill="#ffd267"></rect><rect x="276" y="164" width="44" height="4" fill="#fff0c0"></rect><rect x="320" y="164" width="4" height="4" fill="#ffd267"></rect><rect x="324" y="164" width="60" height="4" fill="#d96a78"></rect><rect x="0" y="168" width="224" height="4" fill="#9a5f30"></rect><rect x="224" y="168" width="16" height="4" fill="#1d1f2e"></rect><rect x="240" y="168" width="4" height="4" fill="#9a5f30"></rect><rect x="244" y="168" width="16" height="4" fill="#1d1f2e"></rect><rect x="260" y="168" width="124" height="4" fill="#9a5f30"></rect><rect x="0" y="172" width="212" height="4" fill="#9a5f30"></rect><rect x="212" y="172" width="32" height="4" fill="#8a5630"></rect><rect x="244" y="172" width="16" height="4" fill="#1d1f2e"></rect><rect x="260" y="172" width="12" height="4" fill="#8a5630"></rect><rect x="272" y="172" width="112" height="4" fill="#9a5f30"></rect><rect x="0" y="176" width="212" height="4" fill="#b5763f"></rect><rect x="212" y="176" width="60" height="4" fill="#8a5630"></rect><rect x="272" y="176" width="112" height="4" fill="#b5763f"></rect><rect x="0" y="180" width="220" height="4" fill="#b5763f"></rect><rect x="220" y="180" width="44" height="4" fill="#8a5630"></rect><rect x="264" y="180" width="120" height="4" fill="#b5763f"></rect><rect x="0" y="184" width="384" height="4" fill="#b5763f"></rect><rect x="0" y="188" width="384" height="4" fill="#b5763f"></rect><rect x="0" y="192" width="384" height="4" fill="#b5763f"></rect><rect x="0" y="196" width="384" height="4" fill="#b5763f"></rect><rect x="0" y="200" width="384" height="4" fill="#b5763f"></rect><rect x="0" y="204" width="384" height="4" fill="#b5763f"></rect><rect x="0" y="208" width="384" height="4" fill="#b5763f"></rect><rect x="0" y="212" width="384" height="4" fill="#b5763f"></rect>
</svg>