<svg xmlns="http://www.w3.org/2000/svg" viewBox="0 0 384 216" width="384" height="216" shape-rendering="crispEdges" role="img" aria-label="야근(여성) — 캄캄한 밤 사무실, 의자에 앉은 뒷모습">
<rect x="0" y="0" width="384" height="4" fill="#1a1f2e"></rect><rect x="0" y="4" width="384" height="4" fill="#1a1f2e"></rect><rect x="0" y="8" width="384" height="4" fill="#22283a"></rect><rect x="0" y="12" width="12" height="4" fill="#22283a"></rect><rect x="12" y="12" width="112" height="4" fill="#2a3346"></rect><rect x="124" y="12" width="204" height="4" fill="#22283a"></rect><rect x="328" y="12" width="4" height="4" fill="#10141f"></rect><rect x="332" y="12" width="52" height="4" fill="#22283a"></rect><rect x="0" y="16" width="12" height="4" fill="#22283a"></rect><rect x="12" y="16" width="4" height="4" fill="#2a3346"></rect><rect x="16" y="16" width="52" height="4" fill="#10182e"></rect><rect x="68" y="16" width="4" height="4" fill="#2a3346"></rect><rect x="72" y="16" width="48" height="4" fill="#10182e"></rect><rect x="120" y="16" width="4" height="4" fill="#2a3346"></rect><rect x="124" y="16" width="192" height="4" fill="#22283a"></rect><rect x="316" y="16" width="12" height="4" fill="#10141f"></rect><rect x="328" y="16" width="4" height="4" fill="#cfd4e0"></rect><rect x="332" y="16" width="12" height="4" fill="#10141f"></rect><rect x="344" y="16" width="40" height="4" fill="#22283a"></rect><rect x="0" y="20" width="12" height="4" fill="#22283a"></rect><rect x="12" y="20" width="4" height="4" fill="#2a3346"></rect><rect x="16" y="20" width="52" height="4" fill="#10182e"></rect><rect x="68" y="20" width="4" height="4" fill="#2a3346"></rect><rect x="72" y="20" width="48" height="4" fill="#10182e"></rect><rect x="120" y="20" width="4" height="4" fill="#2a3346"></rect><rect x="124" y="20" width="188" height="4" fill="#22283a"></rect><rect x="312" y="20" width="4" height="4" fill="#10141f"></rect><rect x="316" y="20" width="28" height="4" fill="#cfd4e0"></rect><rect x="344" y="20" width="4" height="4" fill="#10141f"></rect><rect x="348" y="20" width="36" height="4" fill="#22283a"></rect><rect x="0" y="24" width="12" height="4" fill="#22283a"></rect><rect x="12" y="24" width="4" height="4" fill="#2a3346"></rect><rect x="16" y="24" width="52" height="4" fill="#10182e"></rect><rect x="68" y="24" width="4" height="4" fill="#2a3346"></rect><rect x="72" y="24" width="16" height="4" fill="#10182e"></rect><rect x="88" y="24" width="20" height="4" fill="#b9c0a0"></rect><rect x="108" y="24" width="12" height="4" fill="#10182e"></rect><rect x="120" y="24" width="4" height="4" fill="#2a3346"></rect><rect x="124" y="24" width="184" height="4" fill="#22283a"></rect><rect x="308" y="24" width="4" height="4" fill="#10141f"></rect><rect x="312" y="24" width="16" height="4" fill="#cfd4e0"></rect><rect x="328" y="24" width="4" height="4" fill="#10141f"></rect><rect x="332" y="24" width="16" height="4" fill="#cfd4e0"></rect><rect x="348" y="24" width="4" height="4" fill="#10141f"></rect><rect x="352" y="24" width="32" height="4" fill="#22283a"></rect><rect x="0" y="28" width="12" height="4" fill="#22283a"></rect><rect x="12" y="28" width="4" height="4" fill="#2a3346"></rect><rect x="16" y="28" width="52" height="4" fill="#10182e"></rect><rect x="68" y="28" width="4" height="4" fill="#2a3346"></rect><rect x="72" y="28" width="12" height="4" fill="#10182e"></rect><rect x="84" y="28" width="8" height="4" fill="#b9c0a0"></rect><rect x="92" y="28" width="12" height="4" fill="#e8ecd0"></rect><rect x="104" y="28" width="8" height="4" fill="#b9c0a0"></rect><rect x="112" y="28" width="8" height="4" fill="#10182e"></rect><rect x="120" y="28" width="4" height="4" fill="#2a3346"></rect><rect x="124" y="28" width="184" height="4" fill="#22283a"></rect><rect x="308" y="28" width="4" height="4" fill="#10141f"></rect><rect x="312" y="28" width="16" height="4" fill="#cfd4e0"></rect><rect x="328" y="28" width="4" height="4" fill="#10141f"></rect><rect x="332" y="28" width="16" height="4" fill="#cfd4e0"></rect><rect x="348" y="28" width="4" height="4" fill="#10141f"></rect><rect x="352" y="28" width="32" height="4" fill="#22283a"></rect><rect x="0" y="32" width="12" height="4" fill="#22283a"></rect><rect x="12" y="32" width="4" height="4" fill="#2a3346"></rect><rect x="16" y="32" width="20" height="4" fill="#10182e"></rect><rect x="36" y="32" width="4" height="4" fill="#c8d0e8"></rect><rect x="40" y="32" width="28" height="4" fill="#10182e"></rect><rect x="68" y="32" width="4" height="4" fill="#2a3346"></rect><rect x="72" y="32" width="4" height="4" fill="#c8d0e8"></rect><rect x="76" y="32" width="8" height="4" fill="#10182e"></rect><rect x="84" y="32" width="4" height="4" fill="#b9c0a0"></rect><rect x="88" y="32" width="20" height="4" fill="#e8ecd0"></rect><rect x="108" y="32" width="4" height="4" fill="#b9c0a0"></rect><rect x="112" y="32" width="8" height="4" fill="#10182e"></rect><rect x="120" y="32" width="4" height="4" fill="#2a3346"></rect><rect x="124" y="32" width="184" height="4" fill="#22283a"></rect><rect x="308" y="32" width="4" height="4" fill="#10141f"></rect><rect x="312" y="32" width="16" height="4" fill="#cfd4e0"></rect><rect x="328" y="32" width="4" height="4" fill="#10141f"></rect><rect x="332" y="32" width="16" height="4" fill="#cfd4e0"></rect><rect x="348" y="32" width="4" height="4" fill="#10141f"></rect><rect x="352" y="32" width="32" height="4" fill="#22283a"></rect><rect x="0" y="36" width="12" height="4" fill="#22283a"></rect><rect x="12" y="36" width="4" height="4" fill="#2a3346"></rect><rect x="16" y="36" width="52" height="4" fill="#10182e"></rect><rect x="68" y="36" width="4" height="4" fill="#2a3346"></rect><rect x="72" y="36" width="12" height="4" fill="#10182e"></rect><rect x="84" y="36" width="4" height="4" fill="#b9c0a0"></rect><rect x="88" y="36" width="20" height="4" fill="#e8ecd0"></rect><rect x="108" y="36" width="4" height="4" fill="#b9c0a0"></rect><rect x="112" y="36" width="8" height="4" fill="#10182e"></rect><rect x="120" y="36" width="4" height="4" fill="#2a3346"></rect><rect x="124" y="36" width="180" height="4" fill="#22283a"></rect><rect x="304" y="36" width="4" height="4" fill="#10141f"></rect><rect x="308" y="36" width="20" height="4" fill="#cfd4e0"></rect><rect x="328" y="36" width="4" height="4" fill="#e5383b"></rect><rect x="332" y="36" width="12" height="4" fill="#10141f"></rect><rect x="344" y="36" width="8" height="4" fill="#cfd4e0"></rect><rect x="352" y="36" width="4" height="4" fill="#10141f"></rect><rect x="356" y="36" width="28" height="4" fill="#22283a"></rect><rect x="0" y="40" width="12" height="4" fill="#22283a"></rect><rect x="12" y="40" width="4" height="4" fill="#2a3346"></rect><rect x="16" y="40" width="52" height="4" fill="#10182e"></rect><rect x="68" y="40" width="4" height="4" fill="#2a3346"></rect><rect x="72" y="40" width="12" height="4" fill="#10182e"></rect><rect x="84" y="40" width="4" height="4" fill="#b9c0a0"></rect><rect x="88" y="40" width="20" height="4" fill="#e8ecd0"></rect><rect x="108" y="40" width="4" height="4" fill="#b9c0a0"></rect><rect x="112" y="40" width="8" height="4" fill="#10182e"></rect><rect x="120" y="40" width="4" height="4" fill="#2a3346"></rect><rect x="124" y="40" width="184" height="4" fill="#22283a"></rect><rect x="308" y="40" width="4" height="4" fill="#10141f"></rect><rect x="312" y="40" width="36" height="4" fill="#cfd4e0"></rect><rect x="348" y="40" width="4" height="4" fill="#10141f"></rect><rect x="352" y="40" width="32" height="4" fill="#22283a"></rect><rect x="0" y="44" width="12" height="4" fill="#22283a"></rect><rect x="12" y="44" width="4" height="4" fill="#2a3346"></rect><rect x="16" y="44" width="52" height="4" fill="#10182e"></rect><rect x="68" y="44" width="4" height="4" fill="#2a3346"></rect><rect x="72" y="44" width="12" height="4" fill="#10182e"></rect><rect x="84" y="44" width="8" height="4" fill="#b9c0a0"></rect><rect x="92" y="44" width="4" height="4" fill="#ffd98a"></rect><rect x="96" y="44" width="8" height="4" fill="#e8ecd0"></rect><rect x="104" y="44" width="8" height="4" fill="#b9c0a0"></rect><rect x="112" y="44" width="8" height="4" fill="#10182e"></rect><rect x="120" y="44" width="4" height="4" fill="#2a3346"></rect><rect x="124" y="44" width="184" height="4" fill="#22283a"></rect><rect x="308" y="44" width="4" height="4" fill="#10141f"></rect><rect x="312" y="44" width="36" height="4" fill="#cfd4e0"></rect><rect x="348" y="44" width="4" height="4" fill="#10141f"></rect><rect x="352" y="44" width="32" height="4" fill="#22283a"></rect><rect x="0" y="48" width="12" height="4" fill="#22283a"></rect><rect x="12" y="48" width="4" height="4" fill="#2a3346"></rect><rect x="16" y="48" width="40" height="4" fill="#10182e"></rect><rect x="56" y="48" width="4" height="4" fill="#c8d0e8"></rect><rect x="60" y="48" width="8" height="4" fill="#10182e"></rect><rect x="68" y="48" width="4" height="4" fill="#2a3346"></rect><rect x="72" y="48" width="16" height="4" fill="#10182e"></rect><rect x="88" y="48" width="12" height="4" fill="#ffd98a"></rect><rect x="100" y="48" width="8" height="4" fill="#b9c0a0"></rect><rect x="108" y="48" width="12" height="4" fill="#10182e"></rect><rect x="120" y="48" width="4" height="4" fill="#2a3346"></rect><rect x="124" y="48" width="48" height="4" fill="#22283a"></rect><rect x="172" y="48" width="64" height="4" fill="#0f1320"></rect><rect x="236" y="48" width="72" height="4" fill="#22283a"></rect><rect x="308" y="48" width="4" height="4" fill="#10141f"></rect><rect x="312" y="48" width="36" height="4" fill="#cfd4e0"></rect><rect x="348" y="48" width="4" height="4" fill="#10141f"></rect><rect x="352" y="48" width="32" height="4" fill="#22283a"></rect><rect x="0" y="52" width="12" height="4" fill="#22283a"></rect><rect x="12" y="52" width="72" height="4" fill="#2a3346"></rect><rect x="84" y="52" width="20" height="4" fill="#ffd98a"></rect><rect x="104" y="52" width="20" height="4" fill="#2a3346"></rect><rect x="124" y="52" width="48" height="4" fill="#22283a"></rect><rect x="172" y="52" width="4" height="4" fill="#0f1320"></rect><rect x="176" y="52" width="56" height="4" fill="#8fc0ee"></rect><rect x="232" y="52" width="4" height="4" fill="#0f1320"></rect><rect x="236" y="52" width="76" height="4" fill="#22283a"></rect><rect x="312" y="52" width="4" height="4" fill="#10141f"></rect><rect x="316" y="52" width="28" height="4" fill="#cfd4e0"></rect><rect x="344" y="52" width="4" height="4" fill="#10141f"></rect><rect x="348" y="52" width="36" height="4" fill="#22283a"></rect><rect x="0" y="56" width="12" height="4" fill="#22283a"></rect><rect x="12" y="56" width="4" height="4" fill="#2a3346"></rect><rect x="16" y="56" width="52" height="4" fill="#1a2540"></rect><rect x="68" y="56" width="4" height="4" fill="#2a3346"></rect><rect x="72" y="56" width="16" height="4" fill="#1a2540"></rect><rect x="88" y="56" width="12" height="4" fill="#ffd98a"></rect><rect x="100" y="56" width="4" height="4" fill="#3a4150"></rect><rect x="104" y="56" width="16" height="4" fill="#1a2540"></rect><rect x="120" y="56" width="4" height="4" fill="#2a3346"></rect><rect x="124" y="56" width="48" height="4" fill="#22283a"></rect><rect x="172" y="56" width="4" height="4" fill="#0f1320"></rect><rect x="176" y="56" width="56" height="4" fill="#8fc0ee"></rect><rect x="232" y="56" width="4" height="4" fill="#0f1320"></rect><rect x="236" y="56" width="80" height="4" fill="#22283a"></rect><rect x="316" y="56" width="12" height="4" fill="#10141f"></rect><rect x="328" y="56" width="4" height="4" fill="#cfd4e0"></rect><rect x="332" y="56" width="12" height="4" fill="#10141f"></rect><rect x="344" y="56" width="40" height="4" fill="#22283a"></rect><rect x="0" y="60" width="12" height="4" fill="#22283a"></rect><rect x="12" y="60" width="4" height="4" fill="#2a3346"></rect><rect x="16" y="60" width="52" height="4" fill="#1a2540"></rect><rect x="68" y="60" width="4" height="4" fill="#2a3346"></rect><rect x="72" y="60" width="8" height="4" fill="#1a2540"></rect><rect x="80" y="60" width="36" height="4" fill="#c8a85a"></rect><rect x="116" y="60" width="4" height="4" fill="#1a2540"></rect><rect x="120" y="60" width="4" height="4" fill="#2a3346"></rect><rect x="124" y="60" width="48" height="4" fill="#22283a"></rect><rect x="172" y="60" width="4" height="4" fill="#0f1320"></rect><rect x="176" y="60" width="56" height="4" fill="#8fc0ee"></rect><rect x="232" y="60" width="4" height="4" fill="#0f1320"></rect><rect x="236" y="60" width="16" height="4" fill="#22283a"></rect><rect x="252" y="60" width="36" height="4" fill="#e8e4d4"></rect><rect x="288" y="60" width="40" height="4" fill="#22283a"></rect><rect x="328" y="60" width="4" height="4" fill="#10141f"></rect><rect x="332" y="60" width="52" height="4" fill="#22283a"></rect><rect x="0" y="64" width="12" height="4" fill="#22283a"></rect><rect x="12" y="64" width="4" height="4" fill="#2a3346"></rect><rect x="16" y="64" width="52" height="4" fill="#1a2540"></rect><rect x="68" y="64" width="4" height="4" fill="#2a3346"></rect><rect x="72" y="64" width="8" height="4" fill="#1a2540"></rect><rect x="80" y="64" width="36" height="4" fill="#c8a85a"></rect><rect x="116" y="64" width="4" height="4" fill="#1a2540"></rect><rect x="120" y="64" width="4" height="4" fill="#2a3346"></rect><rect x="124" y="64" width="48" height="4" fill="#22283a"></rect><rect x="172" y="64" width="4" height="4" fill="#0f1320"></rect><rect x="176" y="64" width="56" height="4" fill="#8fc0ee"></rect><rect x="232" y="64" width="4" height="4" fill="#0f1320"></rect><rect x="236" y="64" width="16" height="4" fill="#22283a"></rect><rect x="252" y="64" width="4" height="4" fill="#e8e4d4"></rect><rect x="256" y="64" width="28" height="4" fill="#c8c4b0"></rect><rect x="284" y="64" width="4" height="4" fill="#e8e4d4"></rect><rect x="288" y="64" width="96" height="4" fill="#22283a"></rect><rect x="0" y="68" width="12" height="4" fill="#22283a"></rect><rect x="12" y="68" width="4" height="4" fill="#2a3346"></rect><rect x="16" y="68" width="32" height="4" fill="#1a2540"></rect><rect x="48" y="68" width="4" height="4" fill="#c8d0e8"></rect><rect x="52" y="68" width="16" height="4" fill="#1a2540"></rect><rect x="68" y="68" width="4" height="4" fill="#2a3346"></rect><rect x="72" y="68" width="8" height="4" fill="#1a2540"></rect><rect x="80" y="68" width="36" height="4" fill="#c8a85a"></rect><rect x="116" y="68" width="4" height="4" fill="#1a2540"></rect><rect x="120" y="68" width="4" height="4" fill="#2a3346"></rect><rect x="124" y="68" width="48" height="4" fill="#22283a"></rect><rect x="172" y="68" width="4" height="4" fill="#0f1320"></rect><rect x="176" y="68" width="56" height="4" fill="#8fc0ee"></rect><rect x="232" y="68" width="4" height="4" fill="#0f1320"></rect><rect x="236" y="68" width="16" height="4" fill="#22283a"></rect><rect x="252" y="68" width="36" height="4" fill="#a8a48f"></rect><rect x="288" y="68" width="96" height="4" fill="#22283a"></rect><rect x="0" y="72" width="12" height="4" fill="#22283a"></rect><rect x="12" y="72" width="4" height="4" fill="#2a3346"></rect><rect x="16" y="72" width="52" height="4" fill="#1a2540"></rect><rect x="68" y="72" width="4" height="4" fill="#2a3346"></rect><rect x="72" y="72" width="8" height="4" fill="#1a2540"></rect><rect x="80" y="72" width="36" height="4" fill="#c8a85a"></rect><rect x="116" y="72" width="4" height="4" fill="#1a2540"></rect><rect x="120" y="72" width="4" height="4" fill="#2a3346"></rect><rect x="124" y="72" width="48" height="4" fill="#22283a"></rect><rect x="172" y="72" width="4" height="4" fill="#0f1320"></rect><rect x="176" y="72" width="56" height="4" fill="#cfe8ff"></rect><rect x="232" y="72" width="4" height="4" fill="#0f1320"></rect><rect x="236" y="72" width="24" height="4" fill="#22283a"></rect><rect x="260" y="72" width="36" height="4" fill="#e8e4d4"></rect><rect x="296" y="72" width="88" height="4" fill="#22283a"></rect><rect x="0" y="76" width="12" height="4" fill="#22283a"></rect><rect x="12" y="76" width="4" height="4" fill="#2a3346"></rect><rect x="16" y="76" width="52" height="4" fill="#1a2540"></rect><rect x="68" y="76" width="4" height="4" fill="#2a3346"></rect><rect x="72" y="76" width="8" height="4" fill="#1a2540"></rect><rect x="80" y="76" width="36" height="4" fill="#c8a85a"></rect><rect x="116" y="76" width="4" height="4" fill="#1a2540"></rect><rect x="120" y="76" width="4" height="4" fill="#2a3346"></rect><rect x="124" y="76" width="48" height="4" fill="#22283a"></rect><rect x="172" y="76" width="4" height="4" fill="#0f1320"></rect><rect x="176" y="76" width="56" height="4" fill="#cfe8ff"></rect><rect x="232" y="76" width="4" height="4" fill="#0f1320"></rect><rect x="236" y="76" width="24" height="4" fill="#22283a"></rect><rect x="260" y="76" width="4" height="4" fill="#e8e4d4"></rect><rect x="264" y="76" width="28" height="4" fill="#c8c4b0"></rect><rect x="292" y="76" width="4" height="4" fill="#e8e4d4"></rect><rect x="296" y="76" width="88" height="4" fill="#22283a"></rect><rect x="0" y="80" width="12" height="4" fill="#22283a"></rect><rect x="12" y="80" width="4" height="4" fill="#2a3346"></rect><rect x="16" y="80" width="52" height="4" fill="#1a2540"></rect><rect x="68" y="80" width="4" height="4" fill="#2a3346"></rect><rect x="72" y="80" width="16" height="4" fill="#1a2540"></rect><rect x="88" y="80" width="4" height="4" fill="#3a4150"></rect><rect x="92" y="80" width="28" height="4" fill="#1a2540"></rect><rect x="120" y="80" width="4" height="4" fill="#2a3346"></rect><rect x="124" y="80" width="48" height="4" fill="#22283a"></rect><rect x="172" y="80" width="4" height="4" fill="#0f1320"></rect><rect x="176" y="80" width="56" height="4" fill="#cfe8ff"></rect><rect x="232" y="80" width="4" height="4" fill="#0f1320"></rect><rect x="236" y="80" width="24" height="4" fill="#22283a"></rect><rect x="260" y="80" width="36" height="4" fill="#a8a48f"></rect><rect x="296" y="80" width="88" height="4" fill="#22283a"></rect><rect x="0" y="84" width="12" height="4" fill="#22283a"></rect><rect x="12" y="84" width="4" height="4" fill="#2a3346"></rect><rect x="16" y="84" width="52" height="4" fill="#1a2540"></rect><rect x="68" y="84" width="4" height="4" fill="#2a3346"></rect><rect x="72" y="84" width="16" height="4" fill="#1a2540"></rect><rect x="88" y="84" width="4" height="4" fill="#3a4150"></rect><rect x="92" y="84" width="28" height="4" fill="#1a2540"></rect><rect x="120" y="84" width="4" height="4" fill="#2a3346"></rect><rect x="124" y="84" width="44" height="4" fill="#22283a"></rect><rect x="168" y="84" width="52" height="4" fill="#4a3826"></rect><rect x="220" y="84" width="12" height="4" fill="#cfe8ff"></rect><rect x="232" y="84" width="4" height="4" fill="#0f1320"></rect><rect x="236" y="84" width="20" height="4" fill="#22283a"></rect><rect x="256" y="84" width="40" height="4" fill="#e8e4d4"></rect><rect x="296" y="84" width="88" height="4" fill="#22283a"></rect><rect x="0" y="88" width="12" height="4" fill="#22283a"></rect><rect x="12" y="88" width="76" height="4" fill="#2a3346"></rect><rect x="88" y="88" width="4" height="4" fill="#3a4150"></rect><rect x="92" y="88" width="32" height="4" fill="#2a3346"></rect><rect x="124" y="88" width="44" height="4" fill="#22283a"></rect><rect x="168" y="88" width="52" height="4" fill="#4a3826"></rect><rect x="220" y="88" width="12" height="4" fill="#cfe8ff"></rect><rect x="232" y="88" width="4" height="4" fill="#0f1320"></rect><rect x="236" y="88" width="20" height="4" fill="#22283a"></rect><rect x="256" y="88" width="4" height="4" fill="#e8e4d4"></rect><rect x="260" y="88" width="32" height="4" fill="#c8c4b0"></rect><rect x="292" y="88" width="4" height="4" fill="#e8e4d4"></rect><rect x="296" y="88" width="88" height="4" fill="#22283a"></rect><rect x="0" y="92" width="84" height="4" fill="#22283a"></rect><rect x="84" y="92" width="16" height="4" fill="#3a4150"></rect><rect x="100" y="92" width="68" height="4" fill="#22283a"></rect><rect x="168" y="92" width="52" height="4" fill="#4a3826"></rect><rect x="220" y="92" width="16" height="4" fill="#0f1320"></rect><rect x="236" y="92" width="20" height="4" fill="#22283a"></rect><rect x="256" y="92" width="40" height="4" fill="#a8a48f"></rect><rect x="296" y="92" width="88" height="4" fill="#22283a"></rect><rect x="0" y="96" width="56" height="4" fill="#22283a"></rect><rect x="56" y="96" width="112" height="4" fill="#46382b"></rect><rect x="168" y="96" width="8" height="4" fill="#4a3826"></rect><rect x="176" y="96" width="44" height="4" fill="#3a2a1a"></rect><rect x="220" y="96" width="108" height="4" fill="#46382b"></rect><rect x="328" y="96" width="56" height="4" fill="#22283a"></rect><rect x="0" y="100" width="56" height="4" fill="#22283a"></rect><rect x="56" y="100" width="112" height="4" fill="#5a4a3a"></rect><rect x="168" y="100" width="8" height="4" fill="#4a3826"></rect><rect x="176" y="100" width="44" height="4" fill="#3a2a1a"></rect><rect x="220" y="100" width="108" height="4" fill="#5a4a3a"></rect><rect x="328" y="100" width="56" height="4" fill="#22283a"></rect><rect x="0" y="104" width="56" height="4" fill="#22283a"></rect><rect x="56" y="104" width="112" height="4" fill="#5a4a3a"></rect><rect x="168" y="104" width="8" height="4" fill="#4a3826"></rect><rect x="176" y="104" width="44" height="4" fill="#3a2a1a"></rect><rect x="220" y="104" width="108" height="4" fill="#5a4a3a"></rect><rect x="328" y="104" width="56" height="4" fill="#22283a"></rect><rect x="0" y="108" width="8" height="4" fill="#22283a"></rect><rect x="8" y="108" width="40" height="4" fill="#2e3346"></rect><rect x="48" y="108" width="8" height="4" fill="#22283a"></rect><rect x="56" y="108" width="112" height="4" fill="#5a4a3a"></rect><rect x="168" y="108" width="8" height="4" fill="#4a3826"></rect><rect x="176" y="108" width="44" height="4" fill="#3a2a1a"></rect><rect x="220" y="108" width="108" height="4" fill="#5a4a3a"></rect><rect x="328" y="108" width="56" height="4" fill="#22283a"></rect><rect x="0" y="112" width="8" height="4" fill="#22283a"></rect><rect x="8" y="112" width="40" height="4" fill="#2e3346"></rect><rect x="48" y="112" width="8" height="4" fill="#22283a"></rect><rect x="56" y="112" width="112" height="4" fill="#5a4a3a"></rect><rect x="168" y="112" width="8" height="4" fill="#4a3826"></rect><rect x="176" y="112" width="44" height="4" fill="#3a2a1a"></rect><rect x="220" y="112" width="108" height="4" fill="#5a4a3a"></rect><rect x="328" y="112" width="56" height="4" fill="#22283a"></rect><rect x="0" y="116" width="8" height="4" fill="#22283a"></rect><rect x="8" y="116" width="8" height="4" fill="#252a3a"></rect><rect x="16" y="116" width="40" height="4" fill="#22283a"></rect><rect x="56" y="116" width="112" height="4" fill="#5a4a3a"></rect><rect x="168" y="116" width="8" height="4" fill="#4a3826"></rect><rect x="176" y="116" width="44" height="4" fill="#3a2a1a"></rect><rect x="220" y="116" width="108" height="4" fill="#5a4a3a"></rect><rect x="328" y="116" width="56" height="4" fill="#22283a"></rect><rect x="0" y="120" width="8" height="4" fill="#22283a"></rect><rect x="8" y="120" width="8" height="4" fill="#252a3a"></rect><rect x="16" y="120" width="40" height="4" fill="#22283a"></rect><rect x="56" y="120" width="112" height="4" fill="#5a4a3a"></rect><rect x="168" y="120" width="8" height="4" fill="#4a3826"></rect><rect x="176" y="120" width="12" height="4" fill="#3a2a1a"></rect><rect x="188" y="120" width="12" height="4" fill="#f0c8a0"></rect><rect x="200" y="120" width="20" height="4" fill="#3a2a1a"></rect><rect x="220" y="120" width="108" height="4" fill="#5a4a3a"></rect><rect x="328" y="120" width="56" height="4" fill="#22283a"></rect><rect x="0" y="124" width="8" height="4" fill="#22283a"></rect><rect x="8" y="124" width="8" height="4" fill="#252a3a"></rect><rect x="16" y="124" width="40" height="4" fill="#22283a"></rect><rect x="56" y="124" width="100" height="4" fill="#36291e"></rect><rect x="156" y="124" width="76" height="4" fill="#5a3a4e"></rect><rect x="232" y="124" width="96" height="4" fill="#36291e"></rect><rect x="328" y="124" width="56" height="4" fill="#22283a"></rect><rect x="0" y="128" width="8" height="4" fill="#22283a"></rect><rect x="8" y="128" width="8" height="4" fill="#252a3a"></rect><rect x="16" y="128" width="52" height="4" fill="#22283a"></rect><rect x="68" y="128" width="4" height="4" fill="#36291e"></rect><rect x="72" y="128" width="8" height="4" fill="#3e3024"></rect><rect x="80" y="128" width="76" height="4" fill="#22283a"></rect><rect x="156" y="128" width="76" height="4" fill="#5a3a4e"></rect><rect x="232" y="128" width="72" height="4" fill="#22283a"></rect><rect x="304" y="128" width="4" height="4" fill="#36291e"></rect><rect x="308" y="128" width="8" height="4" fill="#3e3024"></rect><rect x="316" y="128" width="68" height="4" fill="#22283a"></rect><rect x="0" y="132" width="8" height="4" fill="#22283a"></rect><rect x="8" y="132" width="8" height="4" fill="#252a3a"></rect><rect x="16" y="132" width="52" height="4" fill="#22283a"></rect><rect x="68" y="132" width="4" height="4" fill="#36291e"></rect><rect x="72" y="132" width="8" height="4" fill="#3e3024"></rect><rect x="80" y="132" width="72" height="4" fill="#22283a"></rect><rect x="152" y="132" width="80" height="4" fill="#5a3a4e"></rect><rect x="232" y="132" width="72" height="4" fill="#22283a"></rect><rect x="304" y="132" width="4" height="4" fill="#36291e"></rect><rect x="308" y="132" width="8" height="4" fill="#3e3024"></rect><rect x="316" y="132" width="68" height="4" fill="#22283a"></rect><rect x="0" y="136" width="8" height="4" fill="#22283a"></rect><rect x="8" y="136" width="8" height="4" fill="#252a3a"></rect><rect x="16" y="136" width="52" height="4" fill="#22283a"></rect><rect x="68" y="136" width="4" height="4" fill="#36291e"></rect><rect x="72" y="136" width="8" height="4" fill="#3e3024"></rect><rect x="80" y="136" width="64" height="4" fill="#22283a"></rect><rect x="144" y="136" width="8" height="4" fill="#0e1220"></rect><rect x="152" y="136" width="80" height="4" fill="#242a3c"></rect><rect x="232" y="136" width="8" height="4" fill="#0e1220"></rect><rect x="240" y="136" width="64" height="4" fill="#22283a"></rect><rect x="304" y="136" width="4" height="4" fill="#36291e"></rect><rect x="308" y="136" width="8" height="4" fill="#3e3024"></rect><rect x="316" y="136" width="68" height="4" fill="#22283a"></rect><rect x="0" y="140" width="68" height="4" fill="#22283a"></rect><rect x="68" y="140" width="4" height="4" fill="#36291e"></rect><rect x="72" y="140" width="8" height="4" fill="#3e3024"></rect><rect x="80" y="140" width="64" height="4" fill="#22283a"></rect><rect x="144" y="140" width="8" height="4" fill="#0e1220"></rect><rect x="152" y="140" width="80" height="4" fill="#242a3c"></rect><rect x="232" y="140" width="8" height="4" fill="#0e1220"></rect><rect x="240" y="140" width="64" height="4" fill="#22283a"></rect><rect x="304" y="140" width="4" height="4" fill="#36291e"></rect><rect x="308" y="140" width="8" height="4" fill="#3e3024"></rect><rect x="316" y="140" width="68" height="4" fill="#22283a"></rect><rect x="0" y="144" width="68" height="4" fill="#22283a"></rect><rect x="68" y="144" width="4" height="4" fill="#36291e"></rect><rect x="72" y="144" width="8" height="4" fill="#3e3024"></rect><rect x="80" y="144" width="64" height="4" fill="#22283a"></rect><rect x="144" y="144" width="8" height="4" fill="#0e1220"></rect><rect x="152" y="144" width="36" height="4" fill="#161a28"></rect><rect x="188" y="144" width="8" height="4" fill="#0e1220"></rect><rect x="196" y="144" width="36" height="4" fill="#161a28"></rect><rect x="232" y="144" width="8" height="4" fill="#0e1220"></rect><rect x="240" y="144" width="64" height="4" fill="#22283a"></rect><rect x="304" y="144" width="4" height="4" fill="#36291e"></rect><rect x="308" y="144" width="8" height="4" fill="#3e3024"></rect><rect x="316" y="144" width="68" height="4" fill="#22283a"></rect><rect x="0" y="148" width="68" height="4" fill="#22283a"></rect><rect x="68" y="148" width="4" height="4" fill="#36291e"></rect><rect x="72" y="148" width="8" height="4" fill="#3e3024"></rect><rect x="80" y="148" width="64" height="4" fill="#22283a"></rect><rect x="144" y="148" width="8" height="4" fill="#0e1220"></rect><rect x="152" y="148" width="36" height="4" fill="#161a28"></rect><rect x="188" y="148" width="8" height="4" fill="#0e1220"></rect><rect x="196" y="148" width="36" height="4" fill="#161a28"></rect><rect x="232" y="148" width="8" height="4" fill="#0e1220"></rect><rect x="240" y="148" width="64" height="4" fill="#22283a"></rect><rect x="304" y="148" width="4" height="4" fill="#36291e"></rect><rect x="308" y="148" width="8" height="4" fill="#3e3024"></rect><rect x="316" y="148" width="68" height="4" fill="#22283a"></rect><rect x="0" y="152" width="68" height="4" fill="#22283a"></rect><rect x="68" y="152" width="4" height="4" fill="#36291e"></rect><rect x="72" y="152" width="8" height="4" fill="#3e3024"></rect><rect x="80" y="152" width="64" height="4" fill="#22283a"></rect><rect x="144" y="152" width="8" height="4" fill="#0e1220"></rect><rect x="152" y="152" width="36" height="4" fill="#161a28"></rect><rect x="188" y="152" width="8" height="4" fill="#0e1220"></rect><rect x="196" y="152" width="36" height="4" fill="#161a28"></rect><rect x="232" y="152" width="8" height="4" fill="#0e1220"></rect><rect x="240" y="152" width="64" height="4" fill="#22283a"></rect><rect x="304" y="152" width="4" height="4" fill="#36291e"></rect><rect x="308" y="152" width="8" height="4" fill="#3e3024"></rect><rect x="316" y="152" width="68" height="4" fill="#22283a"></rect><rect x="0" y="156" width="68" height="4" fill="#22283a"></rect><rect x="68" y="156" width="4" height="4" fill="#36291e"></rect><rect x="72" y="156" width="8" height="4" fill="#3e3024"></rect><rect x="80" y="156" width="64" height="4" fill="#22283a"></rect><rect x="144" y="156" width="8" height="4" fill="#0e1220"></rect><rect x="152" y="156" width="36" height="4" fill="#161a28"></rect><rect x="188" y="156" width="8" height="4" fill="#0e1220"></rect><rect x="196" y="156" width="36" height="4" fill="#161a28"></rect><rect x="232" y="156" width="8" height="4" fill="#0e1220"></rect><rect x="240" y="156" width="64" height="4" fill="#22283a"></rect><rect x="304" y="156" width="4" height="4" fill="#36291e"></rect><rect x="308" y="156" width="8" height="4" fill="#3e3024"></rect><rect x="316" y="156" width="68" height="4" fill="#22283a"></rect><rect x="0" y="160" width="68" height="4" fill="#22283a"></rect><rect x="68" y="160" width="4" height="4" fill="#36291e"></rect><rect x="72" y="160" width="8" height="4" fill="#3e3024"></rect><rect x="80" y="160" width="64" height="4" fill="#22283a"></rect><rect x="144" y="160" width="8" height="4" fill="#0e1220"></rect><rect x="152" y="160" width="36" height="4" fill="#161a28"></rect><rect x="188" y="160" width="8" height="4" fill="#0e1220"></rect><rect x="196" y="160" width="36" height="4" fill="#161a28"></rect><rect x="232" y="160" width="8" height="4" fill="#0e1220"></rect><rect x="240" y="160" width="64" height="4" fill="#22283a"></rect><rect x="304" y="160" width="4" height="4" fill="#36291e"></rect><rect x="308" y="160" width="8" height="4" fill="#3e3024"></rect><rect x="316" y="160" width="68" height="4" fill="#22283a"></rect><rect x="0" y="164" width="68" height="4" fill="#22283a"></rect><rect x="68" y="164" width="4" height="4" fill="#36291e"></rect><rect x="72" y="164" width="8" height="4" fill="#3e3024"></rect><rect x="80" y="164" width="64" height="4" fill="#22283a"></rect><rect x="144" y="164" width="8" height="4" fill="#0e1220"></rect><rect x="152" y="164" width="36" height="4" fill="#161a28"></rect><rect x="188" y="164" width="8" height="4" fill="#0e1220"></rect><rect x="196" y="164" width="36" height="4" fill="#161a28"></rect><rect x="232" y="164" width="8" height="4" fill="#0e1220"></rect><rect x="240" y="164" width="64" height="4" fill="#22283a"></rect><rect x="304" y="164" width="4" height="4" fill="#36291e"></rect><rect x="308" y="164" width="8" height="4" fill="#3e3024"></rect><rect x="316" y="164" width="68" height="4" fill="#22283a"></rect><rect x="0" y="168" width="68" height="4" fill="#22283a"></rect><rect x="68" y="168" width="4" height="4" fill="#36291e"></rect><rect x="72" y="168" width="8" height="4" fill="#3e3024"></rect><rect x="80" y="168" width="64" height="4" fill="#22283a"></rect><rect x="144" y="168" width="8" height="4" fill="#0e1220"></rect><rect x="152" y="168" width="36" height="4" fill="#161a28"></rect><rect x="188" y="168" width="8" height="4" fill="#0e1220"></rect><rect x="196" y="168" width="36" height="4" fill="#161a28"></rect><rect x="232" y="168" width="8" height="4" fill="#0e1220"></rect><rect x="240" y="168" width="64" height="4" fill="#22283a"></rect><rect x="304" y="168" width="4" height="4" fill="#36291e"></rect><rect x="308" y="168" width="8" height="4" fill="#3e3024"></rect><rect x="316" y="168" width="68" height="4" fill="#22283a"></rect><rect x="0" y="172" width="68" height="4" fill="#22283a"></rect><rect x="68" y="172" width="4" height="4" fill="#36291e"></rect><rect x="72" y="172" width="8" height="4" fill="#3e3024"></rect><rect x="80" y="172" width="64" height="4" fill="#22283a"></rect><rect x="144" y="172" width="8" height="4" fill="#0e1220"></rect><rect x="152" y="172" width="36" height="4" fill="#161a28"></rect><rect x="188" y="172" width="8" height="4" fill="#0e1220"></rect><rect x="196" y="172" width="36" height="4" fill="#161a28"></rect><rect x="232" y="172" width="8" height="4" fill="#0e1220"></rect><rect x="240" y="172" width="64" height="4" fill="#22283a"></rect><rect x="304" y="172" width="4" height="4" fill="#36291e"></rect><rect x="308" y="172" width="8" height="4" fill="#3e3024"></rect><rect x="316" y="172" width="68" height="4" fill="#22283a"></rect><rect x="0" y="176" width="144" height="4" fill="#222031"></rect><rect x="144" y="176" width="8" height="4" fill="#0e1220"></rect><rect x="152" y="176" width="36" height="4" fill="#161a28"></rect><rect x="188" y="176" width="8" height="4" fill="#0e1220"></rect><rect x="196" y="176" width="36" height="4" fill="#161a28"></rect><rect x="232" y="176" width="8" height="4" fill="#0e1220"></rect><rect x="240" y="176" width="144" height="4" fill="#222031"></rect><rect x="0" y="180" width="144" height="4" fill="#2a2738"></rect><rect x="144" y="180" width="8" height="4" fill="#0e1220"></rect><rect x="152" y="180" width="36" height="4" fill="#161a28"></rect><rect x="188" y="180" width="8" height="4" fill="#0e1220"></rect><rect x="196" y="180" width="36" height="4" fill="#161a28"></rect><rect x="232" y="180" width="8" height="4" fill="#0e1220"></rect><rect x="240" y="180" width="144" height="4" fill="#2a2738"></rect><rect x="0" y="184" width="144" height="4" fill="#2a2738"></rect><rect x="144" y="184" width="8" height="4" fill="#0e1220"></rect><rect x="152" y="184" width="28" height="4" fill="#161a28"></rect><rect x="180" y="184" width="24" height="4" fill="#0e1220"></rect><rect x="204" y="184" width="28" height="4" fill="#161a28"></rect><rect x="232" y="184" width="8" height="4" fill="#0e1220"></rect><rect x="240" y="184" width="144" height="4" fill="#2a2738"></rect><rect x="0" y="188" width="144" height="4" fill="#2a2738"></rect><rect x="144" y="188" width="8" height="4" fill="#0e1220"></rect><rect x="152" y="188" width="28" height="4" fill="#161a28"></rect><rect x="180" y="188" width="24" height="4" fill="#0e1220"></rect><rect x="204" y="188" width="28" height="4" fill="#161a28"></rect><rect x="232" y="188" width="8" height="4" fill="#0e1220"></rect><rect x="240" y="188" width="144" height="4" fill="#2a2738"></rect><rect x="0" y="192" width="144" height="4" fill="#2a2738"></rect><rect x="144" y="192" width="8" height="4" fill="#0e1220"></rect><rect x="152" y="192" width="8" height="4" fill="#161a28"></rect><rect x="160" y="192" width="64" height="4" fill="#0e1220"></rect><rect x="224" y="192" width="8" height="4" fill="#161a28"></rect><rect x="232" y="192" width="8" height="4" fill="#0e1220"></rect><rect x="240" y="192" width="144" height="4" fill="#2a2738"></rect><rect x="0" y="196" width="144" height="4" fill="#2a2738"></rect><rect x="144" y="196" width="8" height="4" fill="#0e1220"></rect><rect x="152" y="196" width="36" height="4" fill="#161a28"></rect><rect x="188" y="196" width="8" height="4" fill="#0e1220"></rect><rect x="196" y="196" width="36" height="4" fill="#161a28"></rect><rect x="232" y="196" width="8" height="4" fill="#0e1220"></rect><rect x="240" y="196" width="144" height="4" fill="#2a2738"></rect><rect x="0" y="200" width="144" height="4" fill="#2a2738"></rect><rect x="144" y="200" width="8" height="4" fill="#0e1220"></rect><rect x="152" y="200" width="36" height="4" fill="#161a28"></rect><rect x="188" y="200" width="8" height="4" fill="#0e1220"></rect><rect x="196" y="200" width="36" height="4" fill="#161a28"></rect><rect x="232" y="200" width="8" height="4" fill="#0e1220"></rect><rect x="240" y="200" width="144" height="4" fill="#2a2738"></rect><rect x="0" y="204" width="144" height="4" fill="#2a2738"></rect><rect x="144" y="204" width="8" height="4" fill="#0e1220"></rect><rect x="152" y="204" width="36" height="4" fill="#161a28"></rect><rect x="188" y="204" width="8" height="4" fill="#0e1220"></rect><rect x="196" y="204" width="36" height="4" fill="#161a28"></rect><rect x="232" y="204" width="8" height="4" fill="#0e1220"></rect><rect x="240" y="204" width="144" height="4" fill="#2a2738"></rect><rect x="0" y="208" width="144" height="4" fill="#2a2738"></rect><rect x="144" y="208" width="8" height="4" fill="#0e1220"></rect><rect x="152" y="208" width="36" height="4" fill="#161a28"></rect><rect x="188" y="208" width="8" height="4" fill="#0e1220"></rect><rect x="196" y="208" width="36" height="4" fill="#161a28"></rect><rect x="232" y="208" width="8" height="4" fill="#0e1220"></rect><rect x="240" y="208" width="144" height="4" fill="#2a2738"></rect><rect x="0" y="212" width="144" height="4" fill="#2a2738"></rect><rect x="144" y="212" width="8" height="4" fill="#0e1220"></rect><rect x="152" y="212" width="36" height="4" fill="#161a28"></rect><rect x="188" y="212" width="8" height="4" fill="#0e1220"></rect><rect x="196" y="212" width="36" height="4" fill="#161a28"></rect><rect x="232" y="212" width="8" height="4" fill="#0e1220"></rect><rect x="240" y="212" width="144" height="4" fill="#2a2738"></rect>
</svg>