<svg xmlns="http://www.w3.org/2000/svg" viewBox="0 0 384 216" width="384" height="216" shape-rendering="crispEdges" role="img" aria-label="과로사(남성) — 흑백, 책상에 엎드려 쓰러진 모습, 머리 위 영혼">
<rect x="0" y="0" width="384" height="4" fill="#454545"></rect><rect x="0" y="4" width="384" height="4" fill="#454545"></rect><rect x="0" y="8" width="384" height="4" fill="#383838"></rect><rect x="0" y="12" width="384" height="4" fill="#383838"></rect><rect x="0" y="16" width="384" height="4" fill="#383838"></rect><rect x="0" y="20" width="384" height="4" fill="#383838"></rect><rect x="0" y="24" width="384" height="4" fill="#383838"></rect><rect x="0" y="28" width="384" height="4" fill="#383838"></rect><rect x="0" y="32" width="384" height="4" fill="#383838"></rect><rect x="0" y="36" width="384" height="4" fill="#383838"></rect><rect x="0" y="40" width="224" height="4" fill="#383838"></rect><rect x="224" y="40" width="4" height="4" fill="#f2f2f2"></rect><rect x="228" y="40" width="156" height="4" fill="#383838"></rect><rect x="0" y="44" width="216" height="4" fill="#383838"></rect><rect x="216" y="44" width="20" height="4" fill="#f2f2f2"></rect><rect x="236" y="44" width="148" height="4" fill="#383838"></rect><rect x="0" y="48" width="212" height="4" fill="#383838"></rect><rect x="212" y="48" width="28" height="4" fill="#f2f2f2"></rect><rect x="240" y="48" width="144" height="4" fill="#383838"></rect><rect x="0" y="52" width="212" height="4" fill="#383838"></rect><rect x="212" y="52" width="4" height="4" fill="#f2f2f2"></rect><rect x="216" y="52" width="4" height="4" fill="#1a1a1a"></rect><rect x="220" y="52" width="8" height="4" fill="#f2f2f2"></rect><rect x="228" y="52" width="4" height="4" fill="#1a1a1a"></rect><rect x="232" y="52" width="8" height="4" fill="#f2f2f2"></rect><rect x="240" y="52" width="144" height="4" fill="#383838"></rect><rect x="0" y="56" width="208" height="4" fill="#383838"></rect><rect x="208" y="56" width="8" height="4" fill="#f2f2f2"></rect><rect x="216" y="56" width="4" height="4" fill="#1a1a1a"></rect><rect x="220" y="56" width="8" height="4" fill="#f2f2f2"></rect><rect x="228" y="56" width="4" height="4" fill="#1a1a1a"></rect><rect x="232" y="56" width="12" height="4" fill="#f2f2f2"></rect><rect x="244" y="56" width="140" height="4" fill="#383838"></rect><rect x="0" y="60" width="208" height="4" fill="#383838"></rect><rect x="208" y="60" width="36" height="4" fill="#f2f2f2"></rect><rect x="244" y="60" width="140" height="4" fill="#383838"></rect><rect x="0" y="64" width="208" height="4" fill="#383838"></rect><rect x="208" y="64" width="36" height="4" fill="#f2f2f2"></rect><rect x="244" y="64" width="140" height="4" fill="#383838"></rect><rect x="0" y="68" width="108" height="4" fill="#383838"></rect><rect x="108" y="68" width="68" height="4" fill="#2a2a2a"></rect><rect x="176" y="68" width="32" height="4" fill="#383838"></rect><rect x="208" y="68" width="36" height="4" fill="#f2f2f2"></rect><rect x="244" y="68" width="140" height="4" fill="#383838"></rect><rect x="0" y="72" width="108" height="4" fill="#383838"></rect><rect x="108" y="72" width="4" height="4" fill="#2a2a2a"></rect><rect x="112" y="72" width="60" height="4" fill="#888"></rect><rect x="172" y="72" width="4" height="4" fill="#2a2a2a"></rect><rect x="176" y="72" width="32" height="4" fill="#383838"></rect><rect x="208" y="72" width="36" height="4" fill="#f2f2f2"></rect><rect x="244" y="72" width="140" height="4" fill="#383838"></rect><rect x="0" y="76" width="108" height="4" fill="#383838"></rect><rect x="108" y="76" width="4" height="4" fill="#2a2a2a"></rect><rect x="112" y="76" width="60" height="4" fill="#888"></rect><rect x="172" y="76" width="4" height="4" fill="#2a2a2a"></rect><rect x="176" y="76" width="32" height="4" fill="#383838"></rect><rect x="208" y="76" width="4" height="4" fill="#f2f2f2"></rect><rect x="212" y="76" width="12" height="4" fill="#383838"></rect><rect x="224" y="76" width="4" height="4" fill="#f2f2f2"></rect><rect x="228" y="76" width="12" height="4" fill="#383838"></rect><rect x="240" y="76" width="4" height="4" fill="#f2f2f2"></rect><rect x="244" y="76" width="140" height="4" fill="#383838"></rect><rect x="0" y="80" width="108" height="4" fill="#383838"></rect><rect x="108" y="80" width="4" height="4" fill="#2a2a2a"></rect><rect x="112" y="80" width="60" height="4" fill="#888"></rect><rect x="172" y="80" width="4" height="4" fill="#2a2a2a"></rect><rect x="176" y="80" width="40" height="4" fill="#383838"></rect><rect x="216" y="80" width="4" height="4" fill="#f2f2f2"></rect><rect x="220" y="80" width="12" height="4" fill="#383838"></rect><rect x="232" y="80" width="4" height="4" fill="#f2f2f2"></rect><rect x="236" y="80" width="148" height="4" fill="#383838"></rect><rect x="0" y="84" width="12" height="4" fill="#383838"></rect><rect x="12" y="84" width="52" height="4" fill="#3a3a3a"></rect><rect x="64" y="84" width="44" height="4" fill="#383838"></rect><rect x="108" y="84" width="4" height="4" fill="#2a2a2a"></rect><rect x="112" y="84" width="60" height="4" fill="#888"></rect><rect x="172" y="84" width="4" height="4" fill="#2a2a2a"></rect><rect x="176" y="84" width="44" height="4" fill="#383838"></rect><rect x="220" y="84" width="4" height="4" fill="#b0b0b0"></rect><rect x="224" y="84" width="160" height="4" fill="#383838"></rect><rect x="0" y="88" width="12" height="4" fill="#383838"></rect><rect x="12" y="88" width="52" height="4" fill="#4e4e4e"></rect><rect x="64" y="88" width="44" height="4" fill="#383838"></rect><rect x="108" y="88" width="4" height="4" fill="#2a2a2a"></rect><rect x="112" y="88" width="60" height="4" fill="#888"></rect><rect x="172" y="88" width="4" height="4" fill="#2a2a2a"></rect><rect x="176" y="88" width="208" height="4" fill="#383838"></rect><rect x="0" y="92" width="12" height="4" fill="#383838"></rect><rect x="12" y="92" width="52" height="4" fill="#4e4e4e"></rect><rect x="64" y="92" width="44" height="4" fill="#383838"></rect><rect x="108" y="92" width="4" height="4" fill="#2a2a2a"></rect><rect x="112" y="92" width="60" height="4" fill="#c8c8c8"></rect><rect x="172" y="92" width="4" height="4" fill="#2a2a2a"></rect><rect x="176" y="92" width="28" height="4" fill="#383838"></rect><rect x="204" y="92" width="20" height="4" fill="#454545"></rect><rect x="224" y="92" width="4" height="4" fill="#b0b0b0"></rect><rect x="228" y="92" width="16" height="4" fill="#454545"></rect><rect x="244" y="92" width="76" height="4" fill="#383838"></rect><rect x="320" y="92" width="52" height="4" fill="#3a3a3a"></rect><rect x="372" y="92" width="12" height="4" fill="#383838"></rect><rect x="0" y="96" width="16" height="4" fill="#383838"></rect><rect x="16" y="96" width="8" height="4" fill="#3a3a3a"></rect><rect x="24" y="96" width="28" height="4" fill="#383838"></rect><rect x="52" y="96" width="8" height="4" fill="#3a3a3a"></rect><rect x="60" y="96" width="48" height="4" fill="#383838"></rect><rect x="108" y="96" width="4" height="4" fill="#2a2a2a"></rect><rect x="112" y="96" width="4" height="4" fill="#888"></rect><rect x="116" y="96" width="4" height="4" fill="#c8c8c8"></rect><rect x="120" y="96" width="4" height="4" fill="#888"></rect><rect x="124" y="96" width="4" height="4" fill="#c8c8c8"></rect><rect x="128" y="96" width="4" height="4" fill="#888"></rect><rect x="132" y="96" width="4" height="4" fill="#c8c8c8"></rect><rect x="136" y="96" width="4" height="4" fill="#888"></rect><rect x="140" y="96" width="4" height="4" fill="#c8c8c8"></rect><rect x="144" y="96" width="4" height="4" fill="#888"></rect><rect x="148" y="96" width="4" height="4" fill="#c8c8c8"></rect><rect x="152" y="96" width="4" height="4" fill="#888"></rect><rect x="156" y="96" width="4" height="4" fill="#c8c8c8"></rect><rect x="160" y="96" width="4" height="4" fill="#888"></rect><rect x="164" y="96" width="4" height="4" fill="#c8c8c8"></rect><rect x="168" y="96" width="4" height="4" fill="#888"></rect><rect x="172" y="96" width="4" height="4" fill="#2a2a2a"></rect><rect x="176" y="96" width="28" height="4" fill="#383838"></rect><rect x="204" y="96" width="40" height="4" fill="#454545"></rect><rect x="244" y="96" width="76" height="4" fill="#383838"></rect><rect x="320" y="96" width="52" height="4" fill="#4e4e4e"></rect><rect x="372" y="96" width="12" height="4" fill="#383838"></rect><rect x="0" y="100" width="16" height="4" fill="#383838"></rect><rect x="16" y="100" width="8" height="4" fill="#3a3a3a"></rect><rect x="24" y="100" width="28" height="4" fill="#383838"></rect><rect x="52" y="100" width="8" height="4" fill="#3a3a3a"></rect><rect x="60" y="100" width="48" height="4" fill="#383838"></rect><rect x="108" y="100" width="4" height="4" fill="#2a2a2a"></rect><rect x="112" y="100" width="60" height="4" fill="#c8c8c8"></rect><rect x="172" y="100" width="4" height="4" fill="#2a2a2a"></rect><rect x="176" y="100" width="4" height="4" fill="#383838"></rect><rect x="180" y="100" width="8" height="4" fill="#9a9a9a"></rect><rect x="188" y="100" width="16" height="4" fill="#c2c2c2"></rect><rect x="204" y="100" width="8" height="4" fill="#454545"></rect><rect x="212" y="100" width="8" height="4" fill="#2e2e2e"></rect><rect x="220" y="100" width="4" height="4" fill="#b0b0b0"></rect><rect x="224" y="100" width="20" height="4" fill="#2e2e2e"></rect><rect x="244" y="100" width="16" height="4" fill="#c2c2c2"></rect><rect x="260" y="100" width="8" height="4" fill="#9a9a9a"></rect><rect x="268" y="100" width="52" height="4" fill="#383838"></rect><rect x="320" y="100" width="52" height="4" fill="#4e4e4e"></rect><rect x="372" y="100" width="12" height="4" fill="#383838"></rect><rect x="0" y="104" width="16" height="4" fill="#383838"></rect><rect x="16" y="104" width="8" height="4" fill="#3a3a3a"></rect><rect x="24" y="104" width="28" height="4" fill="#383838"></rect><rect x="52" y="104" width="8" height="4" fill="#3a3a3a"></rect><rect x="60" y="104" width="48" height="4" fill="#383838"></rect><rect x="108" y="104" width="4" height="4" fill="#2a2a2a"></rect><rect x="112" y="104" width="60" height="4" fill="#c8c8c8"></rect><rect x="172" y="104" width="8" height="4" fill="#e0e0e0"></rect><rect x="180" y="104" width="8" height="4" fill="#9a9a9a"></rect><rect x="188" y="104" width="16" height="4" fill="#e0e0e0"></rect><rect x="204" y="104" width="8" height="4" fill="#454545"></rect><rect x="212" y="104" width="32" height="4" fill="#2e2e2e"></rect><rect x="244" y="104" width="16" height="4" fill="#e0e0e0"></rect><rect x="260" y="104" width="8" height="4" fill="#9a9a9a"></rect><rect x="268" y="104" width="8" height="4" fill="#e0e0e0"></rect><rect x="276" y="104" width="48" height="4" fill="#383838"></rect><rect x="324" y="104" width="8" height="4" fill="#3a3a3a"></rect><rect x="332" y="104" width="28" height="4" fill="#383838"></rect><rect x="360" y="104" width="8" height="4" fill="#3a3a3a"></rect><rect x="368" y="104" width="16" height="4" fill="#383838"></rect><rect x="0" y="108" width="16" height="4" fill="#383838"></rect><rect x="16" y="108" width="8" height="4" fill="#3a3a3a"></rect><rect x="24" y="108" width="28" height="4" fill="#383838"></rect><rect x="52" y="108" width="8" height="4" fill="#3a3a3a"></rect><rect x="60" y="108" width="48" height="4" fill="#383838"></rect><rect x="108" y="108" width="4" height="4" fill="#2a2a2a"></rect><rect x="112" y="108" width="60" height="4" fill="#c8c8c8"></rect><rect x="172" y="108" width="8" height="4" fill="#e0e0e0"></rect><rect x="180" y="108" width="8" height="4" fill="#9a9a9a"></rect><rect x="188" y="108" width="16" height="4" fill="#e0e0e0"></rect><rect x="204" y="108" width="8" height="4" fill="#454545"></rect><rect x="212" y="108" width="32" height="4" fill="#2e2e2e"></rect><rect x="244" y="108" width="16" height="4" fill="#e0e0e0"></rect><rect x="260" y="108" width="8" height="4" fill="#9a9a9a"></rect><rect x="268" y="108" width="8" height="4" fill="#e0e0e0"></rect><rect x="276" y="108" width="48" height="4" fill="#383838"></rect><rect x="324" y="108" width="8" height="4" fill="#3a3a3a"></rect><rect x="332" y="108" width="28" height="4" fill="#383838"></rect><rect x="360" y="108" width="8" height="4" fill="#3a3a3a"></rect><rect x="368" y="108" width="16" height="4" fill="#383838"></rect><rect x="0" y="112" width="16" height="4" fill="#383838"></rect><rect x="16" y="112" width="8" height="4" fill="#3a3a3a"></rect><rect x="24" y="112" width="28" height="4" fill="#383838"></rect><rect x="52" y="112" width="8" height="4" fill="#3a3a3a"></rect><rect x="60" y="112" width="48" height="4" fill="#383838"></rect><rect x="108" y="112" width="4" height="4" fill="#2a2a2a"></rect><rect x="112" y="112" width="60" height="4" fill="#c8c8c8"></rect><rect x="172" y="112" width="8" height="4" fill="#e0e0e0"></rect><rect x="180" y="112" width="8" height="4" fill="#9a9a9a"></rect><rect x="188" y="112" width="16" height="4" fill="#e0e0e0"></rect><rect x="204" y="112" width="8" height="4" fill="#454545"></rect><rect x="212" y="112" width="32" height="4" fill="#2e2e2e"></rect><rect x="244" y="112" width="16" height="4" fill="#e0e0e0"></rect><rect x="260" y="112" width="8" height="4" fill="#9a9a9a"></rect><rect x="268" y="112" width="8" height="4" fill="#e0e0e0"></rect><rect x="276" y="112" width="48" height="4" fill="#383838"></rect><rect x="324" y="112" width="8" height="4" fill="#3a3a3a"></rect><rect x="332" y="112" width="28" height="4" fill="#383838"></rect><rect x="360" y="112" width="8" height="4" fill="#3a3a3a"></rect><rect x="368" y="112" width="16" height="4" fill="#383838"></rect><rect x="0" y="116" width="16" height="4" fill="#383838"></rect><rect x="16" y="116" width="8" height="4" fill="#3a3a3a"></rect><rect x="24" y="116" width="28" height="4" fill="#383838"></rect><rect x="52" y="116" width="8" height="4" fill="#3a3a3a"></rect><rect x="60" y="116" width="48" height="4" fill="#383838"></rect><rect x="108" y="116" width="32" height="4" fill="#2a2a2a"></rect><rect x="140" y="116" width="8" height="4" fill="#3a3a3a"></rect><rect x="148" y="116" width="24" height="4" fill="#2a2a2a"></rect><rect x="172" y="116" width="8" height="4" fill="#e0e0e0"></rect><rect x="180" y="116" width="24" height="4" fill="#9a9a9a"></rect><rect x="204" y="116" width="8" height="4" fill="#454545"></rect><rect x="212" y="116" width="32" height="4" fill="#2e2e2e"></rect><rect x="244" y="116" width="24" height="4" fill="#9a9a9a"></rect><rect x="268" y="116" width="8" height="4" fill="#e0e0e0"></rect><rect x="276" y="116" width="48" height="4" fill="#383838"></rect><rect x="324" y="116" width="8" height="4" fill="#3a3a3a"></rect><rect x="332" y="116" width="28" height="4" fill="#383838"></rect><rect x="360" y="116" width="8" height="4" fill="#3a3a3a"></rect><rect x="368" y="116" width="16" height="4" fill="#383838"></rect><rect x="0" y="120" width="16" height="4" fill="#383838"></rect><rect x="16" y="120" width="8" height="4" fill="#3a3a3a"></rect><rect x="24" y="120" width="28" height="4" fill="#383838"></rect><rect x="52" y="120" width="8" height="4" fill="#3a3a3a"></rect><rect x="60" y="120" width="44" height="4" fill="#383838"></rect><rect x="104" y="120" width="68" height="4" fill="#565656"></rect><rect x="172" y="120" width="8" height="4" fill="#e0e0e0"></rect><rect x="180" y="120" width="20" height="4" fill="#565656"></rect><rect x="200" y="120" width="48" height="4" fill="#1a1a1a"></rect><rect x="248" y="120" width="20" height="4" fill="#565656"></rect><rect x="268" y="120" width="8" height="4" fill="#e0e0e0"></rect><rect x="276" y="120" width="12" height="4" fill="#565656"></rect><rect x="288" y="120" width="36" height="4" fill="#383838"></rect><rect x="324" y="120" width="8" height="4" fill="#3a3a3a"></rect><rect x="332" y="120" width="28" height="4" fill="#383838"></rect><rect x="360" y="120" width="8" height="4" fill="#3a3a3a"></rect><rect x="368" y="120" width="16" height="4" fill="#383838"></rect><rect x="0" y="124" width="104" height="4" fill="#383838"></rect><rect x="104" y="124" width="68" height="4" fill="#6a6a6a"></rect><rect x="172" y="124" width="8" height="4" fill="#cfcfcf"></rect><rect x="180" y="124" width="88" height="4" fill="#6a6a6a"></rect><rect x="268" y="124" width="8" height="4" fill="#cfcfcf"></rect><rect x="276" y="124" width="12" height="4" fill="#6a6a6a"></rect><rect x="288" y="124" width="36" height="4" fill="#383838"></rect><rect x="324" y="124" width="8" height="4" fill="#3a3a3a"></rect><rect x="332" y="124" width="28" height="4" fill="#383838"></rect><rect x="360" y="124" width="8" height="4" fill="#3a3a3a"></rect><rect x="368" y="124" width="16" height="4" fill="#383838"></rect><rect x="0" y="128" width="104" height="4" fill="#383838"></rect><rect x="104" y="128" width="68" height="4" fill="#6a6a6a"></rect><rect x="172" y="128" width="8" height="4" fill="#cfcfcf"></rect><rect x="180" y="128" width="88" height="4" fill="#6a6a6a"></rect><rect x="268" y="128" width="8" height="4" fill="#cfcfcf"></rect><rect x="276" y="128" width="12" height="4" fill="#6a6a6a"></rect><rect x="288" y="128" width="36" height="4" fill="#383838"></rect><rect x="324" y="128" width="8" height="4" fill="#3a3a3a"></rect><rect x="332" y="128" width="28" height="4" fill="#383838"></rect><rect x="360" y="128" width="8" height="4" fill="#3a3a3a"></rect><rect x="368" y="128" width="16" height="4" fill="#383838"></rect><rect x="0" y="132" width="104" height="4" fill="#383838"></rect><rect x="104" y="132" width="68" height="4" fill="#6a6a6a"></rect><rect x="172" y="132" width="8" height="4" fill="#cfcfcf"></rect><rect x="180" y="132" width="88" height="4" fill="#6a6a6a"></rect><rect x="268" y="132" width="8" height="4" fill="#cfcfcf"></rect><rect x="276" y="132" width="12" height="4" fill="#6a6a6a"></rect><rect x="288" y="132" width="96" height="4" fill="#383838"></rect><rect x="0" y="136" width="104" height="4" fill="#383838"></rect><rect x="104" y="136" width="68" height="4" fill="#3e3e3e"></rect><rect x="172" y="136" width="8" height="4" fill="#cfcfcf"></rect><rect x="180" y="136" width="88" height="4" fill="#3e3e3e"></rect><rect x="268" y="136" width="8" height="4" fill="#cfcfcf"></rect><rect x="276" y="136" width="12" height="4" fill="#3e3e3e"></rect><rect x="288" y="136" width="96" height="4" fill="#383838"></rect><rect x="0" y="140" width="116" height="4" fill="#383838"></rect><rect x="116" y="140" width="4" height="4" fill="#444"></rect><rect x="120" y="140" width="8" height="4" fill="#5a5a5a"></rect><rect x="128" y="140" width="136" height="4" fill="#383838"></rect><rect x="264" y="140" width="4" height="4" fill="#444"></rect><rect x="268" y="140" width="8" height="4" fill="#5a5a5a"></rect><rect x="276" y="140" width="108" height="4" fill="#383838"></rect><rect x="0" y="144" width="116" height="4" fill="#383838"></rect><rect x="116" y="144" width="4" height="4" fill="#444"></rect><rect x="120" y="144" width="8" height="4" fill="#5a5a5a"></rect><rect x="128" y="144" width="76" height="4" fill="#383838"></rect><rect x="204" y="144" width="4" height="4" fill="#2c2c2c"></rect><rect x="208" y="144" width="12" height="4" fill="#3a3a3a"></rect><rect x="220" y="144" width="8" height="4" fill="#383838"></rect><rect x="228" y="144" width="4" height="4" fill="#2c2c2c"></rect><rect x="232" y="144" width="12" height="4" fill="#3a3a3a"></rect><rect x="244" y="144" width="20" height="4" fill="#383838"></rect><rect x="264" y="144" width="4" height="4" fill="#444"></rect><rect x="268" y="144" width="8" height="4" fill="#5a5a5a"></rect><rect x="276" y="144" width="108" height="4" fill="#383838"></rect><rect x="0" y="148" width="116" height="4" fill="#383838"></rect><rect x="116" y="148" width="4" height="4" fill="#444"></rect><rect x="120" y="148" width="8" height="4" fill="#5a5a5a"></rect><rect x="128" y="148" width="76" height="4" fill="#383838"></rect><rect x="204" y="148" width="4" height="4" fill="#2c2c2c"></rect><rect x="208" y="148" width="12" height="4" fill="#3a3a3a"></rect><rect x="220" y="148" width="8" height="4" fill="#383838"></rect><rect x="228" y="148" width="4" height="4" fill="#2c2c2c"></rect><rect x="232" y="148" width="12" height="4" fill="#3a3a3a"></rect><rect x="244" y="148" width="20" height="4" fill="#383838"></rect><rect x="264" y="148" width="4" height="4" fill="#444"></rect><rect x="268" y="148" width="8" height="4" fill="#5a5a5a"></rect><rect x="276" y="148" width="108" height="4" fill="#383838"></rect><rect x="0" y="152" width="116" height="4" fill="#383838"></rect><rect x="116" y="152" width="4" height="4" fill="#444"></rect><rect x="120" y="152" width="8" height="4" fill="#5a5a5a"></rect><rect x="128" y="152" width="76" height="4" fill="#383838"></rect><rect x="204" y="152" width="4" height="4" fill="#2c2c2c"></rect><rect x="208" y="152" width="12" height="4" fill="#3a3a3a"></rect><rect x="220" y="152" width="8" height="4" fill="#383838"></rect><rect x="228" y="152" width="4" height="4" fill="#2c2c2c"></rect><rect x="232" y="152" width="12" height="4" fill="#3a3a3a"></rect><rect x="244" y="152" width="20" height="4" fill="#383838"></rect><rect x="264" y="152" width="4" height="4" fill="#444"></rect><rect x="268" y="152" width="8" height="4" fill="#5a5a5a"></rect><rect x="276" y="152" width="108" height="4" fill="#383838"></rect><rect x="0" y="156" width="116" height="4" fill="#383838"></rect><rect x="116" y="156" width="4" height="4" fill="#444"></rect><rect x="120" y="156" width="8" height="4" fill="#5a5a5a"></rect><rect x="128" y="156" width="76" height="4" fill="#383838"></rect><rect x="204" y="156" width="4" height="4" fill="#2c2c2c"></rect><rect x="208" y="156" width="12" height="4" fill="#3a3a3a"></rect><rect x="220" y="156" width="8" height="4" fill="#383838"></rect><rect x="228" y="156" width="4" height="4" fill="#2c2c2c"></rect><rect x="232" y="156" width="12" height="4" fill="#3a3a3a"></rect><rect x="244" y="156" width="20" height="4" fill="#383838"></rect><rect x="264" y="156" width="4" height="4" fill="#444"></rect><rect x="268" y="156" width="8" height="4" fill="#5a5a5a"></rect><rect x="276" y="156" width="108" height="4" fill="#383838"></rect><rect x="0" y="160" width="116" height="4" fill="#383838"></rect><rect x="116" y="160" width="4" height="4" fill="#444"></rect><rect x="120" y="160" width="8" height="4" fill="#5a5a5a"></rect><rect x="128" y="160" width="76" height="4" fill="#383838"></rect><rect x="204" y="160" width="4" height="4" fill="#2c2c2c"></rect><rect x="208" y="160" width="12" height="4" fill="#3a3a3a"></rect><rect x="220" y="160" width="8" height="4" fill="#383838"></rect><rect x="228" y="160" width="4" height="4" fill="#2c2c2c"></rect><rect x="232" y="160" width="12" height="4" fill="#3a3a3a"></rect><rect x="244" y="160" width="20" height="4" fill="#383838"></rect><rect x="264" y="160" width="4" height="4" fill="#444"></rect><rect x="268" y="160" width="8" height="4" fill="#5a5a5a"></rect><rect x="276" y="160" width="108" height="4" fill="#383838"></rect><rect x="0" y="164" width="116" height="4" fill="#383838"></rect><rect x="116" y="164" width="4" height="4" fill="#444"></rect><rect x="120" y="164" width="8" height="4" fill="#5a5a5a"></rect><rect x="128" y="164" width="76" height="4" fill="#383838"></rect><rect x="204" y="164" width="4" height="4" fill="#2c2c2c"></rect><rect x="208" y="164" width="12" height="4" fill="#3a3a3a"></rect><rect x="220" y="164" width="8" height="4" fill="#383838"></rect><rect x="228" y="164" width="4" height="4" fill="#2c2c2c"></rect><rect x="232" y="164" width="12" height="4" fill="#3a3a3a"></rect><rect x="244" y="164" width="20" height="4" fill="#383838"></rect><rect x="264" y="164" width="4" height="4" fill="#444"></rect><rect x="268" y="164" width="8" height="4" fill="#5a5a5a"></rect><rect x="276" y="164" width="108" height="4" fill="#383838"></rect><rect x="0" y="168" width="116" height="4" fill="#383838"></rect><rect x="116" y="168" width="4" height="4" fill="#444"></rect><rect x="120" y="168" width="8" height="4" fill="#5a5a5a"></rect><rect x="128" y="168" width="76" height="4" fill="#383838"></rect><rect x="204" y="168" width="4" height="4" fill="#2c2c2c"></rect><rect x="208" y="168" width="12" height="4" fill="#3a3a3a"></rect><rect x="220" y="168" width="8" height="4" fill="#383838"></rect><rect x="228" y="168" width="4" height="4" fill="#2c2c2c"></rect><rect x="232" y="168" width="12" height="4" fill="#3a3a3a"></rect><rect x="244" y="168" width="20" height="4" fill="#383838"></rect><rect x="264" y="168" width="4" height="4" fill="#444"></rect><rect x="268" y="168" width="8" height="4" fill="#5a5a5a"></rect><rect x="276" y="168" width="108" height="4" fill="#383838"></rect><rect x="0" y="172" width="116" height="4" fill="#383838"></rect><rect x="116" y="172" width="4" height="4" fill="#444"></rect><rect x="120" y="172" width="8" height="4" fill="#5a5a5a"></rect><rect x="128" y="172" width="72" height="4" fill="#383838"></rect><rect x="200" y="172" width="20" height="4" fill="#1a1a1a"></rect><rect x="220" y="172" width="8" height="4" fill="#383838"></rect><rect x="228" y="172" width="20" height="4" fill="#1a1a1a"></rect><rect x="248" y="172" width="16" height="4" fill="#383838"></rect><rect x="264" y="172" width="4" height="4" fill="#444"></rect><rect x="268" y="172" width="8" height="4" fill="#5a5a5a"></rect><rect x="276" y="172" width="108" height="4" fill="#383838"></rect><rect x="0" y="176" width="384" height="4" fill="#3a3a3a"></rect><rect x="0" y="180" width="384" height="4" fill="#4a4a4a"></rect><rect x="0" y="184" width="384" height="4" fill="#4a4a4a"></rect><rect x="0" y="188" width="384" height="4" fill="#4a4a4a"></rect><rect x="0" y="192" width="384" height="4" fill="#4a4a4a"></rect><rect x="0" y="196" width="384" height="4" fill="#4a4a4a"></rect><rect x="0" y="200" width="384" height="4" fill="#4a4a4a"></rect><rect x="0" y="204" width="384" height="4" fill="#4a4a4a"></rect><rect x="0" y="208" width="384" height="4" fill="#4a4a4a"></rect><rect x="0" y="212" width="384" height="4" fill="#4a4a4a"></rect>
</svg>